<svg width="250" height="125" viewBox="0 0 250 125" fill="none" xmlns="http://www.w3.org/2000/svg">
<rect width="250" height="125" rx="4" fill="white"/>
<path d="M58.2144 63.256C58.6198 63.32 58.9878 63.4853 59.3184 63.752C59.6598 64.0187 59.9264 64.3493 60.1184 64.744C60.3211 65.1387 60.4224 65.56 60.4224 66.008C60.4224 66.5733 60.2784 67.0853 59.9904 67.544C59.7024 67.992 59.2811 68.3493 58.7264 68.616C58.1824 68.872 57.5371 69 56.7904 69H52.6304V57.848H56.6304C57.3878 57.848 58.0331 57.976 58.5664 58.232C59.0998 58.4773 59.4998 58.8133 59.7664 59.24C60.0331 59.6667 60.1664 60.1467 60.1664 60.68C60.1664 61.3413 59.9851 61.8907 59.6224 62.328C59.2704 62.7547 58.8011 63.064 58.2144 63.256ZM54.0864 62.664H56.5344C57.2171 62.664 57.7451 62.504 58.1184 62.184C58.4918 61.864 58.6784 61.4213 58.6784 60.856C58.6784 60.2907 58.4918 59.848 58.1184 59.528C57.7451 59.208 57.2064 59.048 56.5024 59.048H54.0864V62.664ZM56.6624 67.8C57.3878 67.8 57.9531 67.6293 58.3584 67.288C58.7638 66.9467 58.9664 66.472 58.9664 65.864C58.9664 65.2453 58.7531 64.76 58.3264 64.408C57.8998 64.0453 57.3291 63.864 56.6144 63.864H54.0864V67.8H56.6624ZM70.4429 64.28C70.4429 64.5573 70.4269 64.8507 70.3949 65.16H63.3869C63.4403 66.024 63.7336 66.7013 64.2669 67.192C64.8109 67.672 65.4669 67.912 66.2349 67.912C66.8643 67.912 67.3869 67.768 67.8029 67.48C68.2296 67.1813 68.5283 66.7867 68.6989 66.296H70.2669C70.0323 67.1387 69.5629 67.8267 68.8589 68.36C68.1549 68.8827 67.2803 69.144 66.2349 69.144C65.4029 69.144 64.6563 68.9573 63.9949 68.584C63.3443 68.2107 62.8323 67.6827 62.4589 67C62.0856 66.3067 61.8989 65.5067 61.8989 64.6C61.8989 63.6933 62.0803 62.8987 62.4429 62.216C62.8056 61.5333 63.3123 61.0107 63.9629 60.648C64.6243 60.2747 65.3816 60.088 66.2349 60.088C67.0669 60.088 67.8029 60.2693 68.4429 60.632C69.0829 60.9947 69.5736 61.496 69.9149 62.136C70.2669 62.7653 70.4429 63.48 70.4429 64.28ZM68.9389 63.976C68.9389 63.4213 68.8163 62.9467 68.5709 62.552C68.3256 62.1467 67.9896 61.8427 67.5629 61.64C67.1469 61.4267 66.6829 61.32 66.1709 61.32C65.4349 61.32 64.8056 61.5547 64.2829 62.024C63.7709 62.4933 63.4776 63.144 63.4029 63.976H68.9389ZM71.8208 64.6C71.8208 63.6933 72.0021 62.904 72.3648 62.232C72.7275 61.5493 73.2288 61.0213 73.8688 60.648C74.5195 60.2747 75.2608 60.088 76.0928 60.088C77.1701 60.088 78.0555 60.3493 78.7488 60.872C79.4528 61.3947 79.9168 62.12 80.1408 63.048H78.5728C78.4235 62.5147 78.1301 62.0933 77.6928 61.784C77.2661 61.4747 76.7328 61.32 76.0928 61.32C75.2608 61.32 74.5888 61.608 74.0768 62.184C73.5648 62.7493 73.3088 63.5547 73.3088 64.6C73.3088 65.656 73.5648 66.472 74.0768 67.048C74.5888 67.624 75.2608 67.912 76.0928 67.912C76.7328 67.912 77.2661 67.7627 77.6928 67.464C78.1195 67.1653 78.4128 66.7387 78.5728 66.184H80.1408C79.9061 67.08 79.4368 67.8 78.7328 68.344C78.0288 68.8773 77.1488 69.144 76.0928 69.144C75.2608 69.144 74.5195 68.9573 73.8688 68.584C73.2288 68.2107 72.7275 67.6827 72.3648 67C72.0021 66.3173 71.8208 65.5173 71.8208 64.6ZM85.9076 69.144C85.0862 69.144 84.3396 68.9573 83.6676 68.584C83.0062 68.2107 82.4836 67.6827 82.0996 67C81.7262 66.3067 81.5396 65.5067 81.5396 64.6C81.5396 63.704 81.7316 62.9147 82.1156 62.232C82.5102 61.5387 83.0436 61.0107 83.7156 60.648C84.3876 60.2747 85.1396 60.088 85.9716 60.088C86.8036 60.088 87.5556 60.2747 88.2276 60.648C88.8996 61.0107 89.4276 61.5333 89.8116 62.216C90.2062 62.8987 90.4036 63.6933 90.4036 64.6C90.4036 65.5067 90.2009 66.3067 89.7956 67C89.4009 67.6827 88.8622 68.2107 88.1796 68.584C87.4969 68.9573 86.7396 69.144 85.9076 69.144ZM85.9076 67.864C86.4302 67.864 86.9209 67.7413 87.3796 67.496C87.8382 67.2507 88.2062 66.8827 88.4836 66.392C88.7716 65.9013 88.9156 65.304 88.9156 64.6C88.9156 63.896 88.7769 63.2987 88.4996 62.808C88.2222 62.3173 87.8596 61.9547 87.4116 61.72C86.9636 61.4747 86.4782 61.352 85.9556 61.352C85.4222 61.352 84.9316 61.4747 84.4836 61.72C84.0462 61.9547 83.6942 62.3173 83.4276 62.808C83.1609 63.2987 83.0276 63.896 83.0276 64.6C83.0276 65.3147 83.1556 65.9173 83.4116 66.408C83.6782 66.8987 84.0302 67.2667 84.4676 67.512C84.9049 67.7467 85.3849 67.864 85.9076 67.864ZM102.862 60.072C103.545 60.072 104.153 60.216 104.686 60.504C105.219 60.7813 105.641 61.2027 105.95 61.768C106.259 62.3333 106.414 63.0213 106.414 63.832V69H104.974V64.04C104.974 63.1653 104.755 62.4987 104.318 62.04C103.891 61.5707 103.31 61.336 102.574 61.336C101.817 61.336 101.214 61.5813 100.766 62.072C100.318 62.552 100.094 63.2507 100.094 64.168V69H98.6539V64.04C98.6539 63.1653 98.4353 62.4987 97.9979 62.04C97.5713 61.5707 96.9899 61.336 96.2539 61.336C95.4966 61.336 94.8939 61.5813 94.4459 62.072C93.9979 62.552 93.7739 63.2507 93.7739 64.168V69H92.3179V60.232H93.7739V61.496C94.0619 61.0373 94.4459 60.6853 94.9259 60.44C95.4166 60.1947 95.9553 60.072 96.5419 60.072C97.2779 60.072 97.9286 60.2373 98.4939 60.568C99.0593 60.8987 99.4806 61.384 99.7579 62.024C100.003 61.4053 100.409 60.9253 100.974 60.584C101.539 60.2427 102.169 60.072 102.862 60.072ZM116.802 64.28C116.802 64.5573 116.786 64.8507 116.754 65.16H109.746C109.8 66.024 110.093 66.7013 110.626 67.192C111.17 67.672 111.826 67.912 112.594 67.912C113.224 67.912 113.746 67.768 114.162 67.48C114.589 67.1813 114.888 66.7867 115.058 66.296H116.626C116.392 67.1387 115.922 67.8267 115.218 68.36C114.514 68.8827 113.64 69.144 112.594 69.144C111.762 69.144 111.016 68.9573 110.354 68.584C109.704 68.2107 109.192 67.6827 108.818 67C108.445 66.3067 108.258 65.5067 108.258 64.6C108.258 63.6933 108.44 62.8987 108.802 62.216C109.165 61.5333 109.672 61.0107 110.322 60.648C110.984 60.2747 111.741 60.088 112.594 60.088C113.426 60.088 114.162 60.2693 114.802 60.632C115.442 60.9947 115.933 61.496 116.274 62.136C116.626 62.7653 116.802 63.48 116.802 64.28ZM115.298 63.976C115.298 63.4213 115.176 62.9467 114.93 62.552C114.685 62.1467 114.349 61.8427 113.922 61.64C113.506 61.4267 113.042 61.32 112.53 61.32C111.794 61.32 111.165 61.5547 110.642 62.024C110.13 62.4933 109.837 63.144 109.762 63.976H115.298ZM122.446 64.584C122.446 63.688 122.627 62.904 122.99 62.232C123.352 61.5493 123.848 61.0213 124.478 60.648C125.118 60.2747 125.827 60.088 126.606 60.088C127.374 60.088 128.04 60.2533 128.606 60.584C129.171 60.9147 129.592 61.3307 129.87 61.832V60.232H131.342V69H129.87V67.368C129.582 67.88 129.15 68.3067 128.574 68.648C128.008 68.9787 127.347 69.144 126.59 69.144C125.811 69.144 125.107 68.952 124.478 68.568C123.848 68.184 123.352 67.6453 122.99 66.952C122.627 66.2587 122.446 65.4693 122.446 64.584ZM129.87 64.6C129.87 63.9387 129.736 63.3627 129.47 62.872C129.203 62.3813 128.84 62.008 128.382 61.752C127.934 61.4853 127.438 61.352 126.894 61.352C126.35 61.352 125.854 61.48 125.406 61.736C124.958 61.992 124.6 62.3653 124.334 62.856C124.067 63.3467 123.934 63.9227 123.934 64.584C123.934 65.256 124.067 65.8427 124.334 66.344C124.6 66.8347 124.958 67.2133 125.406 67.48C125.854 67.736 126.35 67.864 126.894 67.864C127.438 67.864 127.934 67.736 128.382 67.48C128.84 67.2133 129.203 66.8347 129.47 66.344C129.736 65.8427 129.87 65.2613 129.87 64.6ZM145.524 61.112C145.524 62.04 145.204 62.8133 144.564 63.432C143.935 64.04 142.969 64.344 141.668 64.344H139.524V69H138.068V57.848H141.668C142.927 57.848 143.881 58.152 144.532 58.76C145.193 59.368 145.524 60.152 145.524 61.112ZM141.668 63.144C142.479 63.144 143.076 62.968 143.46 62.616C143.844 62.264 144.036 61.7627 144.036 61.112C144.036 59.736 143.247 59.048 141.668 59.048H139.524V63.144H141.668ZM146.79 64.584C146.79 63.688 146.971 62.904 147.334 62.232C147.696 61.5493 148.192 61.0213 148.822 60.648C149.462 60.2747 150.171 60.088 150.95 60.088C151.718 60.088 152.384 60.2533 152.95 60.584C153.515 60.9147 153.936 61.3307 154.214 61.832V60.232H155.686V69H154.214V67.368C153.926 67.88 153.494 68.3067 152.918 68.648C152.352 68.9787 151.691 69.144 150.934 69.144C150.155 69.144 149.451 68.952 148.822 68.568C148.192 68.184 147.696 67.6453 147.334 66.952C146.971 66.2587 146.79 65.4693 146.79 64.584ZM154.214 64.6C154.214 63.9387 154.08 63.3627 153.814 62.872C153.547 62.3813 153.184 62.008 152.726 61.752C152.278 61.4853 151.782 61.352 151.238 61.352C150.694 61.352 150.198 61.48 149.75 61.736C149.302 61.992 148.944 62.3653 148.678 62.856C148.411 63.3467 148.278 63.9227 148.278 64.584C148.278 65.256 148.411 65.8427 148.678 66.344C148.944 66.8347 149.302 67.2133 149.75 67.48C150.198 67.736 150.694 67.864 151.238 67.864C151.782 67.864 152.278 67.736 152.726 67.48C153.184 67.2133 153.547 66.8347 153.814 66.344C154.08 65.8427 154.214 65.2613 154.214 64.6ZM159.602 61.656C159.858 61.1547 160.221 60.7653 160.69 60.488C161.17 60.2107 161.751 60.072 162.434 60.072V61.576H162.05C160.418 61.576 159.602 62.4613 159.602 64.232V69H158.146V60.232H159.602V61.656ZM165.891 61.432V66.6C165.891 67.0267 165.981 67.3307 166.163 67.512C166.344 67.6827 166.659 67.768 167.107 67.768H168.179V69H166.867C166.056 69 165.448 68.8133 165.043 68.44C164.637 68.0667 164.435 67.4533 164.435 66.6V61.432H163.299V60.232H164.435V58.024H165.891V60.232H168.179V61.432H165.891ZM174.215 60.072C175.282 60.072 176.146 60.3973 176.807 61.048C177.468 61.688 177.799 62.616 177.799 63.832V69H176.359V64.04C176.359 63.1653 176.14 62.4987 175.703 62.04C175.266 61.5707 174.668 61.336 173.911 61.336C173.143 61.336 172.53 61.576 172.071 62.056C171.623 62.536 171.399 63.2347 171.399 64.152V69H169.943V60.232H171.399V61.48C171.687 61.032 172.076 60.6853 172.567 60.44C173.068 60.1947 173.618 60.072 174.215 60.072ZM188.177 64.28C188.177 64.5573 188.161 64.8507 188.129 65.16H181.121C181.175 66.024 181.468 66.7013 182.001 67.192C182.545 67.672 183.201 67.912 183.969 67.912C184.599 67.912 185.121 67.768 185.537 67.48C185.964 67.1813 186.263 66.7867 186.433 66.296H188.001C187.767 67.1387 187.297 67.8267 186.593 68.36C185.889 68.8827 185.015 69.144 183.969 69.144C183.137 69.144 182.391 68.9573 181.729 68.584C181.079 68.2107 180.567 67.6827 180.193 67C179.82 66.3067 179.633 65.5067 179.633 64.6C179.633 63.6933 179.815 62.8987 180.177 62.216C180.54 61.5333 181.047 61.0107 181.697 60.648C182.359 60.2747 183.116 60.088 183.969 60.088C184.801 60.088 185.537 60.2693 186.177 60.632C186.817 60.9947 187.308 61.496 187.649 62.136C188.001 62.7653 188.177 63.48 188.177 64.28ZM186.673 63.976C186.673 63.4213 186.551 62.9467 186.305 62.552C186.06 62.1467 185.724 61.8427 185.297 61.64C184.881 61.4267 184.417 61.32 183.905 61.32C183.169 61.32 182.54 61.5547 182.017 62.024C181.505 62.4933 181.212 63.144 181.137 63.976H186.673ZM191.555 61.656C191.811 61.1547 192.174 60.7653 192.643 60.488C193.123 60.2107 193.705 60.072 194.387 60.072V61.576H194.003C192.371 61.576 191.555 62.4613 191.555 64.232V69H190.099V60.232H191.555V61.656ZM197.956 57.848L197.78 65.848H196.564L196.388 57.848H197.956ZM197.236 69.096C196.959 69.096 196.724 69 196.532 68.808C196.34 68.616 196.244 68.3813 196.244 68.104C196.244 67.8267 196.34 67.592 196.532 67.4C196.724 67.208 196.959 67.112 197.236 67.112C197.503 67.112 197.727 67.208 197.908 67.4C198.1 67.592 198.196 67.8267 198.196 68.104C198.196 68.3813 198.1 68.616 197.908 68.808C197.727 69 197.503 69.096 197.236 69.096Z" fill="#1F2937"/>
</svg>
