<svg width="50" height="50" viewBox="0 0 50 50" fill="none" xmlns="http://www.w3.org/2000/svg">
<rect width="50" height="50" rx="6" fill="#563D7C"/>
<path d="M5 39.8423C5 42.6911 7.30922 45 10.1577 45H39.8422C42.6911 45 45 42.6908 45 39.8423V10.1578C45 7.30891 42.6908 5 39.8423 5H10.1578C7.30891 5 5 7.30922 5 10.1577V39.8423Z" fill="#563D7C"/>
<path d="M21.5872 22.6934V17.0289H26.5733C27.0483 17.0289 27.5061 17.0684 27.947 17.1477C28.388 17.2267 28.7781 17.368 29.1173 17.5716C29.4564 17.7752 29.7278 18.0578 29.9314 18.4195C30.1348 18.7814 30.2367 19.245 30.2367 19.8102C30.2367 20.8278 29.9314 21.5628 29.3208 22.015C28.7103 22.4673 27.9302 22.6934 26.9803 22.6934H21.5872ZM16.2617 12.8906V37.1094H27.998C29.0834 37.1094 30.1406 36.9738 31.1695 36.7023C32.1984 36.4309 33.1142 36.0127 33.917 35.4473C34.7197 34.882 35.3586 34.1527 35.8334 33.2595C36.3084 32.3662 36.5458 31.3091 36.5458 30.088C36.5458 28.5728 36.1783 27.2783 35.4434 26.2042C34.7084 25.13 33.5947 24.3781 32.1022 23.9484C33.1877 23.4284 34.0075 22.7612 34.5616 21.9472C35.1155 21.1331 35.3925 20.1156 35.3925 18.8944C35.3925 17.7638 35.2059 16.8141 34.8328 16.0452C34.4597 15.2764 33.9339 14.6602 33.2555 14.1966C32.5772 13.733 31.7631 13.3994 30.8133 13.1959C29.8636 12.9923 28.812 12.8906 27.6588 12.8906H16.2617ZM21.5872 32.9711V26.3228H27.3873C28.5406 26.3228 29.4678 26.5884 30.1689 27.12C30.8698 27.6514 31.2205 28.5389 31.2205 29.7827C31.2205 30.4159 31.113 30.9359 30.8981 31.343C30.6833 31.75 30.395 32.0723 30.0331 32.3097C29.6714 32.5472 29.253 32.7167 28.7781 32.8186C28.3031 32.9202 27.8058 32.9711 27.2856 32.9711H21.5872Z" fill="white"/>
</svg>
