<svg width="50" height="50" viewBox="0 0 50 50" fill="none" xmlns="http://www.w3.org/2000/svg">
<rect width="50" height="50" rx="6" fill="#2F313A"/>
<path d="M20 40C22.76 40 25 37.76 25 35V30H20C17.24 30 15 32.24 15 35C15 37.76 17.24 40 20 40Z" fill="#0ACF83"/>
<path d="M15 25C15 22.24 17.24 20 20 20H25V30H20C17.24 30 15 27.76 15 25Z" fill="#A259FF"/>
<path d="M15 15C15 12.24 17.24 10 20 10H25V20H20C17.24 20 15 17.76 15 15Z" fill="#F24E1E"/>
<path d="M25 10H30C32.76 10 35 12.24 35 15C35 17.76 32.76 20 30 20H25V10Z" fill="#FF7262"/>
<path d="M35 25C35 27.76 32.76 30 30 30C27.24 30 25 27.76 25 25C25 22.24 27.24 20 30 20C32.76 20 35 22.24 35 25Z" fill="#1ABCFE"/>
</svg>
