<svg width="50" height="50" viewBox="0 0 50 50" fill="none" xmlns="http://www.w3.org/2000/svg">
<rect width="50" height="50" rx="6" fill="#039BE5"/>
<path d="M28.3924 20.8363L25.3924 23.6301L22.6074 18.0101L24.0462 14.7788C24.4099 14.1338 25.0049 14.1263 25.3687 14.7788L28.3924 20.8363Z" fill="#FFA000"/>
<path d="M25.3927 23.6288L14.1689 34.0675L22.6077 18.01L25.3927 23.6288Z" fill="#F57F17"/>
<path d="M31.6824 16.5637C32.2199 16.0512 32.7737 16.225 32.9137 16.9512L35.8312 33.9262L26.1537 39.7362C25.8137 39.9262 24.9137 40 24.9137 40C24.9137 40 24.0949 39.9 23.7812 39.7275L14.1699 34.0675L31.6824 16.5637Z" fill="#FFCA28"/>
<path d="M22.6074 18.0099L14.1699 34.0674L17.9299 10.5961C18.0712 9.86863 18.4837 9.79488 18.8549 10.4386L22.6074 18.0099Z" fill="#FFA000"/>
</svg>
