<svg width="40" height="24" viewBox="0 0 40 24" fill="none" xmlns="http://www.w3.org/2000/svg">
<path fill-rule="evenodd" clip-rule="evenodd" d="M36.2715 0H3.7124C1.6519 0 -0.0161164 1.68437 0.0001175 3.72852V16.1569C0.0001175 18.2174 1.66826 19.8854 3.72876 19.8854H19.1497L26.198 23.8102L24.5954 19.8854H36.2715C38.3321 19.8854 40 18.2174 40 16.1569V3.72852C40 1.66802 38.3321 0 36.2715 0ZM3.02564 2.87815C2.56775 2.91086 2.22433 3.07439 1.99539 3.38509C1.76645 3.67945 1.68469 4.05557 1.73374 4.48076C2.69858 10.6132 3.598 14.7505 4.43201 16.8928C4.75908 17.6777 5.1352 18.0539 5.57673 18.0212C6.26356 17.9721 7.08122 17.0236 8.04605 15.1758C8.553 14.1291 9.33796 12.5593 10.4009 10.466C11.2839 13.5567 12.4941 15.8789 14.015 17.4325C14.4402 17.874 14.8817 18.0702 15.3068 18.0375C15.683 18.0048 15.9773 17.8086 16.1735 17.4488C16.3371 17.1381 16.4025 16.7783 16.3698 16.3695C16.2717 14.8814 16.4189 12.8045 16.8277 10.1389C17.2528 7.39162 17.7762 5.41288 18.4139 4.23546C18.5448 3.99016 18.5938 3.74486 18.5775 3.45051C18.5448 3.07438 18.3812 2.76368 18.0706 2.51838C17.7599 2.27309 17.4164 2.15862 17.0403 2.19131C16.566 2.22402 16.2063 2.45296 15.961 2.91086C14.9471 4.75876 14.2275 7.75139 13.8024 11.9051C13.1809 10.3352 12.6576 8.48728 12.2488 6.3123C12.0689 5.34748 11.6274 4.88959 10.9078 4.93865C10.4173 4.97135 10.0084 5.29841 9.68137 5.91983L6.10003 12.7391C5.51132 10.3679 4.95531 7.47338 4.44836 4.05557C4.33389 3.20522 3.85965 2.81273 3.02564 2.87815ZM34.5381 4.05562C35.6993 4.30093 36.566 4.92235 37.1546 5.95259C37.678 6.83567 37.9396 7.89862 37.9396 9.17416C37.9396 10.8585 37.5144 12.3957 36.664 13.8021C35.6828 15.4374 34.4073 16.255 32.8211 16.255C32.5431 16.255 32.2487 16.2223 31.938 16.1569C30.7769 15.9116 29.9102 15.2903 29.3215 14.26C28.7982 13.3606 28.5365 12.2813 28.5365 11.022C28.5365 9.33769 28.9618 7.80049 29.8121 6.41048C30.8097 4.77517 32.0852 3.95751 33.6551 3.95751C33.9331 3.95751 34.2275 3.99022 34.5381 4.05562ZM33.8514 12.9026C34.4564 12.363 34.8652 11.5617 35.0942 10.4824C35.1596 10.1063 35.2086 9.69746 35.2086 9.27228C35.2086 8.79804 35.1105 8.2911 34.9142 7.78414C34.669 7.14637 34.3419 6.80296 33.9494 6.72119C33.3607 6.60672 32.7884 6.93378 32.2487 7.73509C31.8072 8.3565 31.5291 9.01063 31.382 9.68111C31.3002 10.0572 31.2675 10.4661 31.2675 10.8749C31.2675 11.3491 31.3656 11.8561 31.5618 12.363C31.8072 13.0008 32.1342 13.3442 32.5267 13.426C32.9355 13.5077 33.377 13.3279 33.8514 12.9026ZM26.9012 5.95259C26.3124 4.92235 25.4294 4.30093 24.2847 4.05562C23.9739 3.99022 23.6796 3.95751 23.4016 3.95751C21.8318 3.95751 20.5562 4.77517 19.5586 6.41048C18.7082 7.80049 18.2831 9.33769 18.2831 11.022C18.2831 12.2813 18.5448 13.3606 19.068 14.26C19.6568 15.2903 20.5235 15.9116 21.6845 16.1569C21.9952 16.2223 22.2896 16.255 22.5676 16.255C24.1539 16.255 25.4294 15.4374 26.4106 13.8021C27.261 12.3957 27.6861 10.8585 27.6861 9.17416C27.6861 7.89862 27.4244 6.83567 26.9012 5.95259ZM24.8407 10.4824C24.6118 11.5617 24.2029 12.363 23.5978 12.9026C23.1236 13.3279 22.6821 13.5077 22.2733 13.426C21.8808 13.3442 21.5537 13.0008 21.3084 12.363C21.1122 11.8561 21.014 11.3491 21.014 10.8749C21.014 10.4661 21.0467 10.0572 21.1286 9.68111C21.2757 9.01063 21.5537 8.3565 21.9952 7.73509C22.5349 6.93378 23.1073 6.60672 23.6959 6.72119C24.0885 6.80296 24.4155 7.14637 24.6608 7.78414C24.8571 8.2911 24.9552 8.79804 24.9552 9.27228C24.9552 9.69746 24.9225 10.1063 24.8407 10.4824Z" fill="white"/>
</svg>
