<svg width="50" height="50" viewBox="0 0 50 50" fill="none" xmlns="http://www.w3.org/2000/svg">
<rect width="50" height="50" rx="6" fill="white"/>
<path d="M25.0464 17.9131C31.2228 13.1182 28.0529 10 28.0529 10C28.5246 14.9569 22.9495 16.1273 21.455 19.5336C20.4353 21.858 22.1534 23.8931 25.0444 26.4582C24.7888 25.8901 24.3946 25.3381 23.9956 24.7792C22.6344 22.8731 21.2165 20.8874 25.0464 17.9131Z" fill="#E76F00"/>
<path d="M26.0324 27.5097C26.0324 27.5097 27.8906 26.0105 26.4191 24.3445C21.4308 18.6923 31.8747 16.1273 31.8747 16.1273C25.4982 19.1992 26.4502 21.0225 28.0529 23.2377C29.7689 25.6129 26.0324 27.5097 26.0324 27.5097Z" fill="#E76F00"/>
<path d="M31.5032 31.9803C37.2269 29.0555 34.5806 26.2448 32.7334 26.6235C32.2806 26.7161 32.0787 26.7965 32.0787 26.7965C32.0787 26.7965 32.2468 26.5375 32.5678 26.4254C36.2221 25.1621 39.0325 30.1515 31.3882 32.1276C31.3882 32.1276 31.4768 32.0498 31.5032 31.9803Z" fill="#5382A1"/>
<path d="M19.5936 28.2784C16.0125 27.8081 21.5572 26.5131 21.5572 26.5131C21.5572 26.5131 19.404 26.3703 16.7557 27.6291C13.6243 29.1187 24.5015 29.7961 30.1321 28.3399C30.7174 27.9468 31.5265 27.6061 31.5265 27.6061C31.5265 27.6061 29.2224 28.0107 26.9278 28.2011C24.1201 28.4324 21.1057 28.4775 19.5936 28.2784Z" fill="#5382A1"/>
<path d="M20.9559 31.071C18.9589 30.868 20.2665 29.9161 20.2665 29.9161C15.0989 31.6027 23.1416 33.5153 30.3623 31.4389C29.5948 31.1729 29.1067 30.6862 29.1067 30.6862C25.5777 31.3544 23.5383 31.3331 20.9559 31.071Z" fill="#5382A1"/>
<path d="M21.826 34.0929C19.8305 33.8673 20.9963 33.2007 20.9963 33.2007C16.3055 34.4896 23.8495 37.1523 29.8217 34.6353C28.8435 34.2613 28.1431 33.8295 28.1431 33.8295C25.479 34.3252 24.2434 34.3641 21.826 34.0929Z" fill="#5382A1"/>
<path d="M34.3175 35.6301C34.3175 35.6301 35.1802 36.3291 33.3674 36.8698C29.9201 37.8968 19.0196 38.2069 15.9915 36.9108C14.903 36.4451 16.9443 35.7989 17.5864 35.6633C18.2561 35.5205 18.6387 35.5471 18.6387 35.5471C17.4282 34.7085 10.8142 37.1937 15.2792 37.9055C27.4558 39.8473 37.476 37.031 34.3175 35.6301Z" fill="#5382A1"/>
<path d="M36.2502 37.1573C36.0504 39.7137 27.6136 40.2515 22.1196 39.9056C18.5355 39.6796 17.8172 39.1148 17.8066 39.1065C21.2369 39.6626 27.0204 39.7639 31.7097 38.896C35.8661 38.1264 36.2502 37.1573 36.2502 37.1573Z" fill="#5382A1"/>
</svg>
