<svg width="50" height="50" viewBox="0 0 50 50" fill="none" xmlns="http://www.w3.org/2000/svg">
<rect width="50" height="50" rx="6" fill="white"/>
<path d="M25.0464 17.9131C31.2228 13.1182 28.0529 10 28.0529 10C28.5246 14.9569 22.9495 16.1273 21.455 19.5336C20.4353 21.858 22.1534 23.8931 25.0444 26.4582C24.7888 25.8901 24.3946 25.3381 23.9956 24.7792C22.6344 22.8731 21.2165 20.8874 25.0464 17.9131Z" fill="#E76F00"/>
<path d="M26.0324 27.5098C26.0324 27.5098 27.8906 26.0106 26.4191 24.3446C21.4308 18.6925 31.8747 16.1274 31.8747 16.1274C25.4982 19.1993 26.4502 21.0227 28.0529 23.2378C29.7689 25.613 26.0324 27.5098 26.0324 27.5098Z" fill="#E76F00"/>
<path d="M31.5037 31.9803C37.2274 29.0555 34.581 26.2448 32.7339 26.6235C32.2811 26.7161 32.0792 26.7965 32.0792 26.7965C32.0792 26.7965 32.2473 26.5375 32.5683 26.4254C36.2226 25.1621 39.033 30.1515 31.3887 32.1276C31.3887 32.1276 31.4773 32.0498 31.5037 31.9803Z" fill="#5382A1"/>
<path d="M19.5936 28.2783C16.0125 27.808 21.5572 26.5129 21.5572 26.5129C21.5572 26.5129 19.404 26.3702 16.7557 27.6289C13.6243 29.1185 24.5015 29.796 30.1321 28.3398C30.7174 27.9467 31.5265 27.606 31.5265 27.606C31.5265 27.606 29.2224 28.0106 26.9278 28.201C24.1201 28.4323 21.1057 28.4774 19.5936 28.2783Z" fill="#5382A1"/>
<path d="M20.9564 31.0712C18.9594 30.8681 20.2669 29.9163 20.2669 29.9163C15.0994 31.6028 23.1421 33.5154 30.3628 31.439C29.5953 31.173 29.1072 30.6863 29.1072 30.6863C25.5782 31.3546 23.5388 31.3332 20.9564 31.0712Z" fill="#5382A1"/>
<path d="M21.8265 34.0929C19.831 33.8673 20.9968 33.2007 20.9968 33.2007C16.3059 34.4896 23.85 37.1523 29.8222 34.6353C28.844 34.2613 28.1436 33.8295 28.1436 33.8295C25.4795 34.3252 24.2439 34.3641 21.8265 34.0929Z" fill="#5382A1"/>
<path d="M34.3175 35.6302C34.3175 35.6302 35.1802 36.3292 33.3674 36.87C29.9201 37.8969 19.0196 38.207 15.9915 36.9109C14.903 36.4453 16.9443 35.7991 17.5864 35.6634C18.2561 35.5206 18.6387 35.5472 18.6387 35.5472C17.4282 34.7086 10.8142 37.1939 15.2792 37.9056C27.4558 39.8475 37.476 37.0311 34.3175 35.6302Z" fill="#5382A1"/>
<path d="M36.2502 37.1575C36.0504 39.7138 27.6136 40.2516 22.1196 39.9058C18.5355 39.6797 17.8172 39.1149 17.8066 39.1066C21.2369 39.6628 27.0204 39.764 31.7097 38.8962C35.8661 38.1266 36.2502 37.1575 36.2502 37.1575Z" fill="#5382A1"/>
</svg>
