<svg width="50" height="50" viewBox="0 0 50 50" fill="none" xmlns="http://www.w3.org/2000/svg">
<g clip-path="url(#clip0_612_30)">
<path d="M46 0H4C1.79086 0 0 1.79086 0 4V46C0 48.2091 1.79086 50 4 50H46C48.2091 50 50 48.2091 50 46V4C50 1.79086 48.2091 0 46 0Z" fill="#F5DE19"/>
<path d="M32.5139 37.3047C32.8866 38.0619 33.4658 38.6984 34.1845 39.1407C34.9033 39.583 35.7324 39.8132 36.5764 39.8047C38.2795 39.8047 39.3686 38.9532 39.3686 37.7735C39.3686 36.3672 38.2498 35.8641 36.3748 35.0438L35.3467 34.6032C32.3779 33.3391 30.4092 31.7563 30.4092 28.4094C30.4092 25.3266 32.7529 22.9782 36.4295 22.9782C37.6197 22.8922 38.8088 23.1586 39.8486 23.7441C40.8883 24.3295 41.7327 25.2082 42.2764 26.2704L39.0623 28.3251C38.853 27.7984 38.4885 27.3478 38.0171 27.033C37.5458 26.7182 36.99 26.5542 36.4232 26.5626C36.176 26.5378 35.9263 26.5648 35.6901 26.6419C35.4538 26.719 35.2363 26.8444 35.0512 27.0102C34.8661 27.1761 34.7176 27.3786 34.6152 27.605C34.5127 27.8314 34.4585 28.0766 34.4561 28.3251C34.4561 29.5579 35.2201 30.0579 36.9842 30.8251L38.0123 31.2657C41.5061 32.7641 43.4811 34.2907 43.4811 37.7235C43.4811 41.4251 40.5732 43.4532 36.6686 43.4532C35.1472 43.5501 33.6302 43.2047 32.3008 42.4586C30.9713 41.7125 29.8862 40.5976 29.1764 39.2485L32.5139 37.3047ZM17.9904 37.661C18.6357 38.8063 19.2232 39.7751 20.6357 39.7751C21.9857 39.7751 22.8389 39.2469 22.8389 37.1922V23.2126H26.9498V37.2469C26.9498 41.5032 24.4498 43.4407 20.8107 43.4407C19.5244 43.511 18.2469 43.1904 17.1462 42.5211C16.0455 41.8518 15.173 40.8651 14.6436 39.6907L17.9904 37.661Z" fill="black"/>
</g>
<defs>
<clipPath id="clip0_612_30">
<rect width="50" height="50" rx="6" fill="white"/>
</clipPath>
</defs>
</svg>
