<svg width="50" height="50" viewBox="0 0 50 50" fill="none" xmlns="http://www.w3.org/2000/svg">
<rect width="50" height="50" rx="6" fill="white"/>
<path d="M39.5286 16.775C39.5394 16.8149 39.545 16.856 39.545 16.8974V23.3256C39.545 23.4935 39.4552 23.6486 39.3095 23.7322L33.9142 26.8385V32.9954C33.9142 33.163 33.8251 33.3176 33.6798 33.402L22.4176 39.8853C22.3918 39.8999 22.3637 39.9093 22.3356 39.9193C22.325 39.9228 22.3151 39.9292 22.304 39.9321C22.2252 39.9529 22.1425 39.9529 22.0638 39.9321C22.0509 39.9286 22.0391 39.9216 22.0268 39.9169C22.0011 39.9075 21.9741 39.8993 21.9495 39.8853L10.6896 33.402C10.544 33.3184 10.4541 33.1633 10.4541 32.9954V13.7108C10.4541 13.6687 10.46 13.6276 10.4705 13.5878C10.474 13.5743 10.4822 13.562 10.4869 13.5486C10.4957 13.5239 10.5039 13.4988 10.5168 13.4759C10.5256 13.4607 10.5385 13.4484 10.549 13.4343C10.5625 13.4156 10.5748 13.3962 10.5906 13.3798C10.6041 13.3663 10.6217 13.3564 10.6369 13.3447C10.6539 13.3306 10.6691 13.3154 10.6885 13.3042H10.689L16.3193 10.0626C16.4644 9.97913 16.6429 9.97913 16.788 10.0626L22.4182 13.3042H22.4194C22.4381 13.316 22.4539 13.3306 22.4709 13.3441C22.4862 13.3558 22.5032 13.3663 22.5166 13.3792C22.533 13.3962 22.5448 13.4156 22.5588 13.4343C22.5688 13.4484 22.5822 13.4607 22.5904 13.4759C22.6039 13.4993 22.6115 13.5239 22.6209 13.5486C22.6256 13.562 22.6338 13.5743 22.6373 13.5884C22.6481 13.6283 22.6536 13.6695 22.6537 13.7108V25.7558L27.3454 23.0543V16.8968C27.3454 16.8558 27.3512 16.8142 27.3618 16.775C27.3659 16.7609 27.3735 16.7486 27.3782 16.7351C27.3876 16.7105 27.3958 16.6853 27.4087 16.6625C27.4175 16.6472 27.4303 16.6349 27.4403 16.6209C27.4544 16.6021 27.4661 16.5828 27.4825 16.5664C27.496 16.5529 27.5129 16.5429 27.5282 16.5312C27.5458 16.5172 27.561 16.5019 27.5797 16.4908H27.5803L33.2111 13.2492C33.3562 13.1656 33.5348 13.1656 33.6798 13.2492L39.3101 16.4908C39.33 16.5025 39.3452 16.5172 39.3628 16.5306C39.3775 16.5424 39.3944 16.5529 39.4079 16.5658C39.4243 16.5828 39.436 16.6021 39.4501 16.6209C39.4606 16.6349 39.4735 16.6472 39.4817 16.6625C39.4952 16.6853 39.5028 16.7105 39.5122 16.7351C39.5175 16.7486 39.5251 16.7609 39.5286 16.775ZM38.6064 23.0543V17.7088L36.6362 18.8431L33.9142 20.4103V25.7558L38.607 23.0543H38.6064ZM32.9762 32.7242V27.3751L30.2988 28.9043L22.6531 33.2678V38.6672L32.9762 32.7242ZM11.3927 14.5223V32.7242L21.7146 38.6667V33.2684L16.3222 30.2166L16.3204 30.2155L16.3181 30.2143C16.2999 30.2037 16.2847 30.1885 16.2677 30.1756C16.2531 30.1639 16.2361 30.1545 16.2232 30.1416L16.222 30.1399C16.2068 30.1252 16.1962 30.1071 16.1833 30.0907C16.1716 30.0748 16.1576 30.0614 16.1482 30.045L16.1476 30.0432C16.1371 30.0256 16.1306 30.0045 16.123 29.9846C16.1154 29.967 16.1054 29.9506 16.1007 29.9319V29.9313C16.0949 29.909 16.0937 29.8856 16.0914 29.8628C16.089 29.8452 16.0843 29.8276 16.0843 29.81V29.8089V17.2237L13.363 15.6559L11.3927 14.5229V14.5223ZM16.5542 11.0106L11.8631 13.7108L16.553 16.4111L21.2435 13.7103L16.553 11.0106H16.5542ZM18.9938 27.8626L21.7152 26.296V14.5223L19.7449 15.6565L17.0229 17.2237V28.9974L18.9938 27.8626ZM33.4455 14.1971L28.755 16.8974L33.4455 19.5977L38.1354 16.8968L33.4455 14.1971ZM32.9762 20.4103L30.2542 18.8431L28.284 17.7088V23.0543L31.0053 24.621L32.9762 25.7558V20.4103ZM22.1833 32.4564L29.0632 28.5287L32.5022 26.5661L27.8153 23.8675L22.4188 26.9744L17.5004 29.8059L22.1833 32.4564Z" fill="#FF2D20"/>
</svg>
