<svg width="50" height="50" viewBox="0 0 50 50" fill="none" xmlns="http://www.w3.org/2000/svg">
<rect width="50" height="50" rx="6" fill="white"/>
<g clip-path="url(#clip0_620_69)">
<path d="M39.5291 16.775C39.5399 16.8149 39.5455 16.856 39.5455 16.8974V23.3256C39.5455 23.4935 39.4557 23.6486 39.31 23.7322L33.9147 26.8385V32.9954C33.9147 33.163 33.8256 33.3176 33.6803 33.402L22.4181 39.8853C22.3923 39.8999 22.3642 39.9093 22.3361 39.9193C22.3255 39.9228 22.3156 39.9292 22.3044 39.9321C22.2257 39.9529 22.143 39.9529 22.0642 39.9321C22.0513 39.9286 22.0396 39.9216 22.0273 39.9169C22.0015 39.9075 21.9746 39.8993 21.95 39.8853L10.6901 33.402C10.5445 33.3184 10.4546 33.1633 10.4546 32.9954V13.7108C10.4546 13.6687 10.4604 13.6276 10.471 13.5878C10.4745 13.5743 10.4827 13.562 10.4874 13.5486C10.4962 13.5239 10.5044 13.4988 10.5173 13.4759C10.5261 13.4607 10.539 13.4484 10.5495 13.4343C10.563 13.4156 10.5753 13.3962 10.5911 13.3798C10.6046 13.3663 10.6221 13.3564 10.6374 13.3447C10.6544 13.3306 10.6696 13.3154 10.6889 13.3042H10.6895L16.3198 10.0626C16.4648 9.97913 16.6434 9.97913 16.7885 10.0626L22.4187 13.3042H22.4199C22.4386 13.316 22.4544 13.3306 22.4714 13.3441C22.4867 13.3558 22.5036 13.3663 22.5171 13.3792C22.5335 13.3962 22.5452 13.4156 22.5593 13.4343C22.5693 13.4484 22.5827 13.4607 22.5909 13.4759C22.6044 13.4993 22.612 13.5239 22.6214 13.5486C22.6261 13.562 22.6343 13.5743 22.6378 13.5884C22.6486 13.6283 22.6541 13.6695 22.6542 13.7108V25.7558L27.3459 23.0543V16.8968C27.3459 16.8558 27.3517 16.8142 27.3623 16.775C27.3664 16.7609 27.374 16.7486 27.3787 16.7351C27.3881 16.7105 27.3963 16.6853 27.4092 16.6625C27.4179 16.6472 27.4308 16.6349 27.4408 16.6209C27.4548 16.6021 27.4666 16.5828 27.483 16.5664C27.4964 16.5529 27.5134 16.5429 27.5287 16.5312C27.5462 16.5172 27.5615 16.5019 27.5802 16.4908H27.5808L33.2116 13.2492C33.3567 13.1656 33.5353 13.1656 33.6803 13.2492L39.3106 16.4908C39.3305 16.5025 39.3457 16.5172 39.3633 16.5306C39.3779 16.5424 39.3949 16.5529 39.4084 16.5658C39.4248 16.5828 39.4365 16.6021 39.4506 16.6209C39.4611 16.6349 39.474 16.6472 39.4822 16.6625C39.4957 16.6853 39.5033 16.7105 39.5127 16.7351C39.518 16.7486 39.5256 16.7609 39.5291 16.775ZM38.6069 23.0543V17.7088L36.6366 18.8431L33.9147 20.4103V25.7558L38.6075 23.0543H38.6069ZM32.9767 32.7242V27.3751L30.2993 28.9043L22.6536 33.2678V38.6672L32.9767 32.7242ZM11.3932 14.5223V32.7242L21.7151 38.6667V33.2684L16.3227 30.2166L16.3209 30.2155L16.3186 30.2143C16.3004 30.2037 16.2852 30.1885 16.2682 30.1756C16.2536 30.1639 16.2366 30.1545 16.2237 30.1416L16.2225 30.1399C16.2073 30.1252 16.1967 30.1071 16.1838 30.0907C16.1721 30.0748 16.1581 30.0614 16.1487 30.045L16.1481 30.0432C16.1376 30.0256 16.1311 30.0045 16.1235 29.9846C16.1159 29.967 16.1059 29.9506 16.1012 29.9319V29.9313C16.0954 29.909 16.0942 29.8856 16.0919 29.8628C16.0895 29.8452 16.0848 29.8276 16.0848 29.81V29.8089V17.2237L13.3634 15.6559L11.3932 14.5229V14.5223ZM16.5547 11.0106L11.8636 13.7108L16.5535 16.4111L21.244 13.7103L16.5535 11.0106H16.5547ZM18.9943 27.8626L21.7156 26.296V14.5223L19.7454 15.6565L17.0234 17.2237V28.9974L18.9943 27.8626ZM33.446 14.1971L28.7555 16.8974L33.446 19.5977L38.1359 16.8968L33.446 14.1971ZM32.9767 20.4103L30.2547 18.8431L28.2844 17.7088V23.0543L31.0058 24.621L32.9767 25.7558V20.4103ZM22.1838 32.4564L29.0637 28.5287L32.5027 26.5661L27.8157 23.8675L22.4193 26.9744L17.5009 29.8059L22.1838 32.4564Z" fill="#FF2D20"/>
</g>
<defs>
<clipPath id="clip0_620_69">
<rect width="30" height="30" fill="white" transform="translate(10 10)"/>
</clipPath>
</defs>
</svg>
