<svg width="50" height="50" viewBox="0 0 50 50" fill="none" xmlns="http://www.w3.org/2000/svg">
<rect width="50" height="50" rx="6" fill="#001E2B"/>
<path d="M25.6828 39.9999L24.884 39.7274C24.884 39.7274 24.9815 35.6562 23.5203 35.3637C22.5465 34.2337 23.6765 -12.5589 27.1828 35.2074C27.1828 35.2074 25.9753 35.8111 25.7603 36.8437C25.5278 37.8574 25.6828 39.9999 25.6828 39.9999Z" fill="white"/>
<path d="M25.6828 39.9999L24.884 39.7274C24.884 39.7274 24.9815 35.6562 23.5203 35.3637C22.5465 34.2337 23.6765 -12.5589 27.1828 35.2074C27.1828 35.2074 25.9753 35.8111 25.7603 36.8437C25.5278 37.8574 25.6828 39.9999 25.6828 39.9999Z" fill="#A6A385"/>
<path d="M26.111 36.0651C26.111 36.0651 33.1048 31.4676 31.4685 21.9026C29.891 14.9489 26.1698 12.6689 25.761 11.7926C25.3135 11.1689 24.8848 10.0789 24.8848 10.0789L25.1773 29.4226C25.176 29.4414 24.5723 35.3439 26.111 36.0651Z" fill="white"/>
<path d="M26.111 36.0651C26.111 36.0651 33.1048 31.4676 31.4685 21.9026C29.891 14.9489 26.1698 12.6689 25.761 11.7926C25.3135 11.1689 24.8848 10.0789 24.8848 10.0789L25.1773 29.4226C25.176 29.4414 24.5723 35.3439 26.111 36.0651Z" fill="#499D4A"/>
<path d="M24.4749 36.3175C24.4749 36.3175 17.9099 31.8375 18.2999 23.9475C18.6699 16.0575 23.3062 12.1812 24.2024 11.48C24.7874 10.8575 24.8062 10.6237 24.8449 10C25.2537 10.8762 25.1762 23.11 25.2349 24.5512C25.4099 30.1037 24.9237 35.2662 24.4749 36.3175Z" fill="white"/>
<path d="M24.4749 36.3175C24.4749 36.3175 17.9099 31.8375 18.2999 23.9475C18.6699 16.0575 23.3062 12.1812 24.2024 11.48C24.7874 10.8575 24.8062 10.6237 24.8449 10C25.2537 10.8762 25.1762 23.11 25.2349 24.5512C25.4099 30.1037 24.9237 35.2662 24.4749 36.3175Z" fill="#58AA50"/>
</svg>
