<svg width="50" height="50" viewBox="0 0 50 50" fill="none" xmlns="http://www.w3.org/2000/svg">
<rect width="50" height="50" rx="6" fill="#001E2B"/>
<g clip-path="url(#clip0_612_37)">
<path d="M25.6823 40L24.8835 39.7275C24.8835 39.7275 24.981 35.6563 23.5198 35.3638C22.546 34.2338 23.676 -12.5587 27.1823 35.2075C27.1823 35.2075 25.9748 35.8113 25.7598 36.8438C25.5273 37.8575 25.6823 40 25.6823 40Z" fill="white"/>
<path d="M25.6823 40L24.8835 39.7275C24.8835 39.7275 24.981 35.6563 23.5198 35.3638C22.546 34.2338 23.676 -12.5587 27.1823 35.2075C27.1823 35.2075 25.9748 35.8113 25.7598 36.8438C25.5273 37.8575 25.6823 40 25.6823 40Z" fill="#A6A385"/>
<path d="M26.111 36.065C26.111 36.065 33.1048 31.4675 31.4685 21.9025C29.891 14.9487 26.1698 12.6687 25.761 11.7925C25.3135 11.1687 24.8848 10.0787 24.8848 10.0787L25.1773 29.4225C25.176 29.4412 24.5723 35.3437 26.111 36.065Z" fill="white"/>
<path d="M26.111 36.065C26.111 36.065 33.1048 31.4675 31.4685 21.9025C29.891 14.9487 26.1698 12.6687 25.761 11.7925C25.3135 11.1687 24.8848 10.0787 24.8848 10.0787L25.1773 29.4225C25.176 29.4412 24.5723 35.3437 26.111 36.065Z" fill="#499D4A"/>
<path d="M24.4749 36.3175C24.4749 36.3175 17.9099 31.8375 18.2999 23.9475C18.6699 16.0575 23.3062 12.1812 24.2024 11.48C24.7874 10.8575 24.8062 10.6237 24.8449 10C25.2537 10.8762 25.1762 23.11 25.2349 24.5512C25.4099 30.1037 24.9237 35.2662 24.4749 36.3175Z" fill="white"/>
<path d="M24.4749 36.3175C24.4749 36.3175 17.9099 31.8375 18.2999 23.9475C18.6699 16.0575 23.3062 12.1812 24.2024 11.48C24.7874 10.8575 24.8062 10.6237 24.8449 10C25.2537 10.8762 25.1762 23.11 25.2349 24.5512C25.4099 30.1037 24.9237 35.2662 24.4749 36.3175Z" fill="#58AA50"/>
</g>
<defs>
<clipPath id="clip0_612_37">
<rect width="30" height="30" fill="white" transform="translate(10 10)"/>
</clipPath>
</defs>
</svg>
