<svg width="50" height="50" viewBox="0 0 50 50" fill="none" xmlns="http://www.w3.org/2000/svg">
<rect width="50" height="50" rx="6" fill="white"/>
<path d="M37.6271 32.7793C35.9905 32.7347 34.7406 32.8871 33.672 33.3375C33.3684 33.4656 32.8838 33.4692 32.8342 33.8496C33.0011 34.0244 33.0271 34.2857 33.1597 34.5008C33.4149 34.9134 33.8456 35.4672 34.23 35.7572C34.6502 36.0743 35.083 36.4132 35.5333 36.6877C36.3341 37.1759 37.2282 37.4549 37.9992 37.944C38.4537 38.2326 38.9051 38.5958 39.3485 38.9211C39.5679 39.082 39.715 39.3322 40 39.4331V39.3868C39.8502 39.196 39.8116 38.9342 39.6742 38.735L39.0692 38.13C38.4778 37.3449 37.7268 36.6553 36.9286 36.0827C36.2921 35.6258 34.8677 35.0086 34.6023 34.2681L34.5558 34.2216C35.007 34.1706 35.5352 34.0074 35.9518 33.8956C36.6515 33.7081 37.2768 33.7566 37.9992 33.5701L38.9762 33.2908V33.1048C38.6111 32.7301 38.3507 32.2341 37.9527 31.895C36.9105 31.0078 35.7734 30.1214 34.6025 29.3821C33.9529 28.9724 33.1504 28.706 32.4619 28.3586C32.2304 28.2415 31.8235 28.1807 31.6706 27.9861C31.3089 27.5253 31.1121 26.9411 30.8333 26.4042C30.2493 25.2793 29.6758 24.0509 29.1583 22.8674C28.8053 22.0604 28.5747 21.2648 28.1345 20.5408C26.0216 17.0668 23.7474 14.9704 20.2244 12.9094C19.4746 12.4711 18.572 12.2982 17.618 12.0717C17.1065 12.0409 16.5945 12.0097 16.0827 11.9784C15.7701 11.8482 15.4453 11.4659 15.1522 11.2804C13.9851 10.543 10.9912 8.93925 10.1269 11.0479C9.58106 12.3788 10.9428 13.6771 11.4295 14.3518C11.7715 14.8244 12.2091 15.355 12.4533 15.8871C12.614 16.2369 12.6417 16.5877 12.7793 16.9576C13.1172 17.8691 13.4117 18.8607 13.8494 19.7028C14.0704 20.1292 14.3142 20.578 14.5939 20.9591C14.7651 21.193 15.0592 21.296 15.1054 21.6571C14.8183 22.0592 14.8018 22.6835 14.6404 23.1929C13.913 25.4859 14.1875 28.3362 15.2454 30.0332C15.5697 30.5545 16.3345 31.6718 17.3858 31.243C18.3053 30.8686 18.1 29.7077 18.363 28.6836C18.4224 28.4516 18.3859 28.2808 18.5026 28.1254V28.1719L19.3403 29.8469C19.9604 30.8454 21.0602 31.8888 21.9927 32.5928C22.4761 32.9579 22.8567 33.5889 23.4818 33.8026V33.7558H23.4353C23.3141 33.5672 23.1245 33.489 22.97 33.3373C22.6058 32.9803 22.2009 32.5365 21.8999 32.1275C21.0519 30.9764 20.3026 29.7165 19.6198 28.4051C19.2936 27.7786 19.01 27.088 18.7353 26.4505C18.6294 26.2049 18.6309 25.8331 18.41 25.706C18.1088 26.1729 17.6655 26.5507 17.4327 27.102C17.0605 27.9835 17.0125 29.0585 16.8745 30.1732C16.7929 30.2023 16.8291 30.1822 16.7812 30.2194C16.133 30.0632 15.9055 29.3962 15.6644 28.8236C15.0553 27.3761 14.9421 25.0456 15.4782 23.3794C15.617 22.948 16.2437 21.5906 15.9899 21.1921C15.8688 20.7947 15.4691 20.5649 15.2456 20.2613C14.9688 19.8859 14.6926 19.3918 14.5006 18.9582C14.0022 17.83 13.7695 16.5629 13.2446 15.4221C12.9935 14.8767 12.5692 14.3246 12.2208 13.84C11.8352 13.3027 11.403 12.9071 11.104 12.2577C10.9976 12.0268 10.8533 11.6572 11.0107 11.4199C11.0608 11.2599 11.1319 11.1931 11.29 11.1409C11.56 10.9327 12.3116 11.21 12.5926 11.3267C13.3388 11.6367 13.9617 11.9319 14.5939 12.3507C14.897 12.552 15.2042 12.9409 15.5709 13.0487H15.9897C16.6448 13.1992 17.3786 13.0952 17.9908 13.2812C19.0725 13.6099 20.0419 14.1214 20.9222 14.6773C23.6041 16.371 25.7972 18.7815 27.2972 21.6573C27.5385 22.1205 27.643 22.5621 27.8555 23.0534C28.2842 24.0438 28.8244 25.0628 29.251 26.0315C29.677 26.9978 30.0919 27.973 30.6938 28.7771C31.0103 29.1997 32.2323 29.4265 32.7879 29.6614C33.1771 29.8257 33.8151 29.9974 34.184 30.2194C34.8882 30.6444 35.5707 31.1502 36.2316 31.6157C36.5614 31.8482 37.5766 32.3588 37.6271 32.7793ZM16.8272 15.0505C16.486 15.0441 16.2446 15.0877 15.9895 15.1433V15.1898H16.036C16.1989 15.5241 16.4862 15.7397 16.6873 16.0276C16.8423 16.3536 16.9975 16.6791 17.1528 17.0046L17.199 16.9586C17.4874 16.7552 17.6192 16.4306 17.6176 15.9345C17.5021 15.8132 17.4852 15.661 17.385 15.516C17.2525 15.3226 16.9951 15.2127 16.8272 15.0505Z" fill="#00618A"/>
</svg>
