<svg width="50" height="50" viewBox="0 0 50 50" fill="none" xmlns="http://www.w3.org/2000/svg">
<rect width="50" height="50" rx="6" fill="#242938"/>
<path d="M23.6464 8.3527C24.4662 7.88349 25.5339 7.88138 26.3529 8.3527C30.4733 10.6809 34.5949 13.0055 38.7146 15.3352C39.4895 15.7716 40.0078 16.634 39.9999 17.5268V31.5344C40.0057 32.4642 39.4362 33.3472 38.6187 33.7737C34.5118 36.0891 30.4071 38.4074 26.3009 40.7228C25.4643 41.2012 24.3751 41.1643 23.5646 40.6467C22.3334 39.933 21.1 39.2227 19.8687 38.5097C19.6171 38.3597 19.3334 38.2403 19.1557 37.9963C19.3128 37.7846 19.5936 37.7583 19.8218 37.6658C20.3358 37.5024 20.8078 37.2401 21.2799 36.9855C21.3993 36.9038 21.5451 36.9351 21.6595 37.0082C22.7124 37.6119 23.7559 38.2331 24.8123 38.831C25.0377 38.9611 25.2659 38.7884 25.4585 38.681C29.4886 36.4033 33.5236 34.1342 37.553 31.8557C37.7023 31.7839 37.7848 31.6254 37.7727 31.4619C37.7755 26.8411 37.7734 22.2195 37.7741 17.5987C37.7912 17.4131 37.6838 17.2425 37.516 17.1665C33.4234 14.8617 29.3329 12.5534 25.241 10.248C25.1701 10.1993 25.0861 10.1731 25.0001 10.173C24.9141 10.1729 24.83 10.1988 24.759 10.2473C20.6671 12.5534 16.5773 14.8639 12.4854 17.1685C12.3182 17.2446 12.206 17.4124 12.2259 17.5987C12.2266 22.2195 12.2259 26.8411 12.2259 31.4626C12.2188 31.5424 12.2363 31.6224 12.2761 31.692C12.3159 31.7615 12.376 31.8172 12.4484 31.8515C13.5404 32.4707 14.6337 33.0855 15.7264 33.7026C16.3419 34.034 17.0977 34.2308 17.7759 33.977C18.3744 33.7623 18.7939 33.1516 18.7825 32.5161C18.7882 27.9223 18.7797 23.3278 18.7867 18.7346C18.7718 18.5307 18.9652 18.3622 19.1635 18.3814C19.6882 18.3779 20.2135 18.3743 20.7382 18.3828C20.9572 18.3779 21.1079 18.5975 21.0808 18.8029C21.0787 23.4258 21.0865 28.0489 21.0773 32.6718C21.0787 33.9038 20.5725 35.2445 19.4329 35.8473C18.029 36.5746 16.2937 36.4204 14.9067 35.723C13.7059 35.1237 12.5601 34.4164 11.3806 33.7743C10.561 33.3501 9.99433 32.4636 10.0001 31.5345V17.5268C9.99151 16.6155 10.5304 15.7375 11.3294 15.3074C15.4356 12.9901 19.541 10.671 23.6464 8.3527Z" fill="#8CC84B"/>
<path d="M27.2284 18.0559C29.0192 17.9406 30.9364 17.9876 32.548 18.8699C33.7957 19.5459 34.4874 20.9649 34.5094 22.351C34.4746 22.538 34.2791 22.6412 34.1006 22.6283C33.581 22.6276 33.0613 22.6354 32.5417 22.6248C32.3213 22.6333 32.1932 22.43 32.1655 22.2352C32.0162 21.5719 31.6545 20.9151 31.0303 20.5951C30.072 20.1153 28.9608 20.1395 27.9159 20.1495C27.153 20.19 26.3327 20.256 25.6864 20.7046C25.1902 21.0444 25.0395 21.7304 25.2166 22.2829C25.3836 22.6795 25.8415 22.8075 26.2161 22.9255C28.3743 23.49 30.6614 23.4338 32.7784 24.1766C33.6549 24.4795 34.5123 25.0682 34.8123 25.9859C35.2047 27.2158 35.0327 28.6859 34.1576 29.6733C33.448 30.4859 32.4144 30.9281 31.3836 31.1683C30.0123 31.4741 28.5891 31.4818 27.1965 31.3461C25.8869 31.1968 24.5242 30.8527 23.5132 29.9605C22.6488 29.2099 22.2265 28.0403 22.2685 26.9115C22.2785 26.7209 22.4683 26.588 22.6509 26.6037C23.1741 26.5994 23.6974 26.598 24.2206 26.6044C24.4296 26.5894 24.5846 26.77 24.5953 26.967C24.6918 27.5989 24.9293 28.2622 25.4804 28.6368C26.5438 29.3229 27.8782 29.2759 29.0959 29.2951C30.1047 29.2504 31.2371 29.2368 32.0604 28.5701C32.4947 28.1898 32.6234 27.5535 32.506 27.0061C32.3789 26.544 31.8954 26.3286 31.4803 26.1878C29.3497 25.5138 27.0371 25.7584 24.9272 24.9962C24.0706 24.6935 23.2423 24.1212 22.9132 23.2412C22.454 21.9957 22.6644 20.4551 23.6312 19.5011C24.5739 18.5521 25.9346 18.1867 27.2284 18.0559Z" fill="#8CC84B"/>
</svg>
