<svg width="50" height="50" viewBox="0 0 50 50" fill="none" xmlns="http://www.w3.org/2000/svg">
<rect width="50" height="50" rx="6" fill="#242938"/>
<path d="M23.6464 8.3527C24.4662 7.88349 25.5339 7.88138 26.3529 8.3527C30.4733 10.6809 34.5949 13.0055 38.7146 15.3352C39.4895 15.7716 40.0078 16.634 39.9999 17.5268V31.5344C40.0057 32.4642 39.4362 33.3472 38.6187 33.7737C34.5118 36.0891 30.4071 38.4074 26.3009 40.7228C25.4643 41.2012 24.3751 41.1643 23.5646 40.6467C22.3334 39.933 21.1 39.2227 19.8687 38.5097C19.6171 38.3597 19.3334 38.2403 19.1557 37.9963C19.3128 37.7846 19.5936 37.7583 19.8218 37.6658C20.3358 37.5024 20.8078 37.2401 21.2799 36.9855C21.3993 36.9038 21.5451 36.9351 21.6595 37.0082C22.7124 37.6119 23.7559 38.2331 24.8123 38.831C25.0377 38.9611 25.2659 38.7884 25.4585 38.681C29.4886 36.4033 33.5236 34.1342 37.553 31.8557C37.7023 31.7839 37.7848 31.6254 37.7727 31.4619C37.7755 26.8411 37.7734 22.2195 37.7741 17.5987C37.7912 17.4131 37.6838 17.2425 37.516 17.1665C33.4234 14.8617 29.3329 12.5534 25.241 10.248C25.1701 10.1993 25.0861 10.1731 25.0001 10.173C24.9141 10.1729 24.83 10.1988 24.759 10.2473C20.6671 12.5534 16.5773 14.8639 12.4854 17.1685C12.3182 17.2446 12.206 17.4124 12.2259 17.5987C12.2266 22.2195 12.2259 26.8411 12.2259 31.4626C12.2188 31.5424 12.2363 31.6224 12.2761 31.692C12.3159 31.7615 12.376 31.8172 12.4484 31.8515C13.5404 32.4707 14.6337 33.0855 15.7264 33.7026C16.3419 34.034 17.0977 34.2308 17.7759 33.977C18.3744 33.7623 18.7939 33.1516 18.7825 32.5161C18.7882 27.9223 18.7797 23.3278 18.7867 18.7346C18.7718 18.5307 18.9652 18.3622 19.1635 18.3814C19.6882 18.3779 20.2135 18.3743 20.7382 18.3828C20.9572 18.3779 21.1079 18.5975 21.0808 18.8029C21.0787 23.4258 21.0865 28.0489 21.0773 32.6718C21.0787 33.9038 20.5725 35.2445 19.4329 35.8473C18.029 36.5746 16.2937 36.4204 14.9067 35.723C13.7059 35.1237 12.5601 34.4164 11.3806 33.7743C10.561 33.3501 9.99433 32.4636 10.0001 31.5345V17.5268C9.99151 16.6155 10.5304 15.7375 11.3294 15.3074C15.4356 12.9901 19.541 10.671 23.6464 8.3527Z" fill="#8CC84B"/>
<path d="M27.2289 18.0558C29.0197 17.9405 30.9369 17.9875 32.5485 18.8697C33.7962 19.5458 34.4879 20.9647 34.5099 22.3509C34.4751 22.5379 34.2796 22.641 34.1011 22.6282C33.5815 22.6275 33.0618 22.6353 32.5422 22.6247C32.3218 22.6331 32.1937 22.4299 32.166 22.2351C32.0167 21.5718 31.655 20.9149 31.0308 20.595C30.0724 20.1152 28.9613 20.1394 27.9163 20.1494C27.1535 20.1899 26.3332 20.2559 25.6869 20.7045C25.1907 21.0443 25.04 21.7303 25.2171 22.2827C25.3841 22.6794 25.842 22.8074 26.2166 22.9254C28.3748 23.4898 30.6619 23.4337 32.7789 24.1765C33.6553 24.4793 34.5127 25.0681 34.8128 25.9857C35.2052 27.2157 35.0332 28.6858 34.1581 29.6732C33.4485 30.4857 32.4149 30.928 31.3841 31.1682C30.0128 31.4739 28.5896 31.4817 27.1969 31.346C25.8874 31.1967 24.5247 30.8526 23.5137 29.9604C22.6493 29.2098 22.227 28.0402 22.269 26.9114C22.279 26.7208 22.4688 26.5879 22.6514 26.6035C23.1746 26.5993 23.6979 26.5979 24.2211 26.6042C24.4301 26.5893 24.5851 26.7699 24.5958 26.9669C24.6923 27.5988 24.9298 28.262 25.4808 28.6367C26.5443 29.3228 27.8787 29.2758 29.0964 29.295C30.1052 29.2503 31.2376 29.2367 32.0609 28.5699C32.4952 28.1896 32.6239 27.5534 32.5065 27.006C32.3794 26.5438 31.8959 26.3285 31.4808 26.1877C29.3502 25.5137 27.0376 25.7583 24.9277 24.9961C24.0711 24.6934 23.2428 24.1211 22.9137 23.241C22.4545 21.9956 22.6649 20.455 23.6317 19.501C24.5743 18.552 25.9351 18.1866 27.2289 18.0558Z" fill="#8CC84B"/>
</svg>
