<svg width="50" height="50" viewBox="0 0 50 50" fill="none" xmlns="http://www.w3.org/2000/svg">
<rect width="50" height="50" rx="6" fill="white"/>
<path d="M19.6466 35.1464C19.4759 34.8318 19.4155 34.469 19.4749 34.1161H12.2081L23.0023 15.1121L27.5512 23.2168L28.9818 22.1493L24.4898 14.0731C24.3395 13.797 24.1237 13.5621 23.8612 13.3891C23.5987 13.2161 23.2978 13.1103 22.9848 13.0811C22.6696 13.0941 22.3645 13.1958 22.1046 13.3746C21.8448 13.5534 21.6407 13.802 21.5159 14.0917L10.5784 33.334C10.412 33.6038 10.3161 33.911 10.2995 34.2275C10.2829 34.544 10.346 34.8596 10.4832 35.1453C10.6496 35.4103 10.8871 35.6233 11.1687 35.7598C11.4503 35.8964 11.7646 35.951 12.0757 35.9175H21.2348C20.9242 35.952 20.6102 35.8986 20.3286 35.7632C20.047 35.6278 19.8092 35.416 19.6423 35.1518L19.6466 35.1464Z" fill="#00C58E"/>
<path d="M40.4145 33.3726L31.613 17.744C31.47 17.4678 31.2596 17.2321 31.0013 17.0587C30.743 16.8853 30.4452 16.7798 30.1354 16.752C29.8275 16.765 29.5296 16.8652 29.2764 17.0408C29.0232 17.2164 28.8249 17.4602 28.7048 17.744L27.541 19.6034V23.2127L30.1343 18.7601L38.8307 34.1502H35.5221C35.5748 34.4618 35.5281 34.7821 35.3887 35.0657L35.3602 35.1226C35.1811 35.3767 34.942 35.5826 34.6642 35.7223C34.3865 35.8619 34.0785 35.9309 33.7677 35.9232H38.9455C39.2565 35.9318 39.5647 35.8632 39.8426 35.7235C40.1206 35.5837 40.3595 35.3773 40.538 35.1226C40.6778 34.8465 40.7393 34.5375 40.7158 34.2289C40.6923 33.9204 40.5846 33.6242 40.4046 33.3726H40.4145Z" fill="#108775"/>
<path d="M35.5988 35.1094L35.6272 35.0525L35.7038 34.9005C35.7971 34.6565 35.8202 34.3913 35.7705 34.1349C35.7216 33.855 35.6215 33.5865 35.4752 33.343L28.5999 21.4211L27.5608 19.6099H27.5422L26.4933 21.4124L19.6278 33.3342C19.4941 33.5774 19.4037 33.842 19.361 34.1163C19.2962 34.4681 19.3533 34.8316 19.5228 35.1466C19.6957 35.4117 19.9387 35.6237 20.2249 35.7589C20.5111 35.8941 20.8292 35.9472 21.1438 35.9122H33.9494C34.2697 35.9224 34.5875 35.8538 34.8751 35.7125C35.1627 35.5712 35.4112 35.3615 35.5988 35.1017V35.1094ZM27.5411 23.2269L33.8346 34.125H21.2477L27.5411 23.2269Z" fill="#2F495E"/>
</svg>
