<svg width="50" height="50" viewBox="0 0 50 50" fill="none" xmlns="http://www.w3.org/2000/svg">
<rect width="50" height="50" rx="6" fill="#0C0824"/>
<g clip-path="url(#clip0_620_83)">
<rect x="7" y="8" width="35" height="35" rx="6" fill="#33ABFB"/>
<path d="M38.3332 5H11.6667C7.99999 5 5 7.99999 5 11.6667V38.3333C5 42 7.99999 45 11.6667 45H38.3333C42 45 45 42 45 38.3333V11.6667C44.9999 7.99999 41.9999 5 38.3332 5ZM24.1647 25.3541C22.7763 26.7424 20.5943 27.3944 18.1292 27.3944C17.4775 27.3944 16.8825 27.3658 16.429 27.2808V34.4781H12.9724V15.635C14.2191 15.4084 15.9476 15.2383 18.2992 15.2383C20.8496 15.2383 22.7197 15.7767 23.9382 16.7968C25.0717 17.732 25.8083 19.2337 25.8083 21.0188C25.8082 22.8324 25.2415 24.334 24.1647 25.3541ZM31.4172 34.7617C29.7454 34.7617 28.2437 34.3649 27.2236 33.7981L27.9036 31.2763C28.6969 31.758 30.1989 32.2681 31.4456 32.2681C32.9755 32.2681 33.6558 31.6447 33.6558 30.7379C33.6558 29.803 33.0892 29.3211 31.3889 28.7261C28.6969 27.791 27.5638 26.3176 27.5921 24.7024C27.5921 22.2656 29.6038 20.3672 32.8057 20.3672C34.3359 20.3672 35.6676 20.764 36.4608 21.1888L35.7808 23.654C35.1858 23.3141 34.0806 22.8606 32.8623 22.8606C31.6154 22.8606 30.9354 23.4557 30.9354 24.3056C30.9354 25.1842 31.5872 25.6094 33.3441 26.2327C35.8375 27.1393 36.9993 28.4144 37.0276 30.4547C37.0276 32.9482 35.0726 34.7617 31.4172 34.7617ZM22.3229 21.1604C22.3229 23.399 20.7359 24.6741 18.1292 24.6741C17.4209 24.6741 16.8541 24.6458 16.429 24.5325V18.0719C16.7975 17.987 17.4775 17.902 18.4411 17.902C20.8496 17.902 22.3229 19.0354 22.3229 21.1604Z" fill="#0C0824"/>
</g>
<defs>
<clipPath id="clip0_620_83">
<rect x="7" y="8" width="35" height="35" rx="6" fill="white"/>
</clipPath>
</defs>
</svg>
