<svg width="50" height="50" viewBox="0 0 50 50" fill="none" xmlns="http://www.w3.org/2000/svg">
<rect width="50" height="50" rx="6" fill="#8892BF"/>
<path d="M25 42.5C34.665 42.5 42.5 34.665 42.5 25C42.5 15.335 34.665 7.5 25 7.5C15.335 7.5 7.5 15.335 7.5 25C7.5 34.665 15.335 42.5 25 42.5Z" fill="#8892BF"/>
<path d="M23.0488 17.5H25.1488L24.5553 20.6553H26.4423C27.4772 20.6774 28.248 20.9086 28.7554 21.3491C29.2728 21.7895 29.425 22.6268 29.212 23.8601L28.1924 29.3611H26.0619L27.0358 24.1079C27.1372 23.5571 27.1068 23.1663 26.9445 22.935C26.7823 22.7038 26.4323 22.5881 25.8945 22.5881L24.2053 22.5716L22.9574 29.3611H20.8574L23.0488 17.5Z" fill="white"/>
<path fill-rule="evenodd" clip-rule="evenodd" d="M13.4262 20.6554H17.5045C18.7015 20.6663 19.569 21.0409 20.1068 21.7786C20.6445 22.5165 20.822 23.5241 20.6394 24.8018C20.5685 25.3856 20.4111 25.9581 20.1676 26.5199C19.9343 27.0815 19.6097 27.588 19.1938 28.0396C18.6864 28.6123 18.1436 28.9756 17.5654 29.13C16.9871 29.2843 16.3885 29.3613 15.7697 29.3613H13.9436L13.3653 32.5H11.25L13.4262 20.6554ZM14.2936 27.4945L15.2036 22.5551H15.511C15.6227 22.5551 15.7393 22.5495 15.861 22.5386C16.6727 22.5276 17.3472 22.6103 17.885 22.7864C18.4328 22.9625 18.6154 23.6289 18.4328 24.7853C18.2098 26.162 17.7733 26.9659 17.1241 27.1971C16.4749 27.4175 15.6632 27.522 14.6892 27.511H14.4762C14.4153 27.511 14.3544 27.5054 14.2936 27.4945Z" fill="white"/>
<path fill-rule="evenodd" clip-rule="evenodd" d="M35.5455 20.6554H31.4671L29.291 32.5H31.4063L31.9846 29.3613H33.8108C34.4295 29.3613 35.0281 29.2843 35.6064 29.13C36.1848 28.9756 36.7274 28.6123 37.2348 28.0396C37.6508 27.588 37.9753 27.0815 38.2086 26.5199C38.4521 25.9581 38.6095 25.3856 38.6804 24.8018C38.863 23.5241 38.6856 22.5165 38.1478 21.7786C37.61 21.0409 36.7426 20.6663 35.5455 20.6554ZM33.2446 22.5551L32.3346 27.4945C32.3955 27.5054 32.4564 27.511 32.5173 27.511H32.7303C33.7043 27.522 34.5159 27.4175 35.1651 27.1971C35.8143 26.9659 36.2508 26.162 36.4739 24.7853C36.6565 23.6289 36.4739 22.9625 35.926 22.7864C35.3883 22.6103 34.7138 22.5276 33.902 22.5386C33.7803 22.5495 33.6638 22.5551 33.552 22.5551H33.2446Z" fill="white"/>
</svg>
