<svg width="50" height="50" viewBox="0 0 50 50" fill="none" xmlns="http://www.w3.org/2000/svg">
<rect width="50" height="50" rx="6" fill="#8892BF"/>
<path d="M25 42.5C34.665 42.5 42.5 34.665 42.5 25C42.5 15.335 34.665 7.5 25 7.5C15.335 7.5 7.5 15.335 7.5 25C7.5 34.665 15.335 42.5 25 42.5Z" fill="#8892BF"/>
<path d="M23.0488 17.5H25.1488L24.5553 20.6553H26.4423C27.4772 20.6774 28.248 20.9086 28.7554 21.3491C29.2728 21.7895 29.425 22.6268 29.212 23.8601L28.1924 29.3611H26.0619L27.0358 24.1079C27.1372 23.5571 27.1068 23.1663 26.9445 22.935C26.7823 22.7038 26.4323 22.5881 25.8945 22.5881L24.2053 22.5716L22.9574 29.3611H20.8574L23.0488 17.5Z" fill="white"/>
<path fill-rule="evenodd" clip-rule="evenodd" d="M13.4262 20.6553H17.5045C18.7015 20.6661 19.569 21.0408 20.1068 21.7785C20.6445 22.5164 20.822 23.524 20.6394 24.8016C20.5685 25.3855 20.4111 25.958 20.1676 26.5198C19.9343 27.0814 19.6097 27.5879 19.1938 28.0395C18.6864 28.6121 18.1436 28.9755 17.5654 29.1299C16.9871 29.2841 16.3885 29.3611 15.7697 29.3611H13.9436L13.3653 32.4999H11.25L13.4262 20.6553ZM14.2936 27.4944L15.2036 22.555H15.511C15.6227 22.555 15.7393 22.5494 15.861 22.5385C16.6727 22.5275 17.3472 22.6101 17.885 22.7863C18.4328 22.9624 18.6154 23.6288 18.4328 24.7851C18.2098 26.1619 17.7733 26.9658 17.1241 27.197C16.4749 27.4174 15.6632 27.5219 14.6892 27.5109H14.4762C14.4153 27.5109 14.3544 27.5053 14.2936 27.4944Z" fill="white"/>
<path fill-rule="evenodd" clip-rule="evenodd" d="M35.5455 20.6553H31.4671L29.291 32.4999H31.4063L31.9846 29.3611H33.8108C34.4295 29.3611 35.0281 29.2841 35.6064 29.1299C36.1848 28.9755 36.7274 28.6121 37.2348 28.0395C37.6508 27.5879 37.9753 27.0814 38.2086 26.5198C38.4521 25.958 38.6095 25.3855 38.6804 24.8016C38.863 23.524 38.6856 22.5164 38.1478 21.7785C37.61 21.0408 36.7426 20.6661 35.5455 20.6553ZM33.2446 22.555L32.3346 27.4944C32.3955 27.5053 32.4564 27.5109 32.5173 27.5109H32.7303C33.7043 27.5219 34.5159 27.4174 35.1651 27.197C35.8143 26.9658 36.2508 26.1619 36.4739 24.7851C36.6565 23.6288 36.4739 22.9624 35.926 22.7863C35.3883 22.6101 34.7138 22.5275 33.902 22.5385C33.7803 22.5494 33.6638 22.555 33.552 22.555H33.2446Z" fill="white"/>
</svg>
