<svg width="50" height="50" viewBox="0 0 50 50" fill="none" xmlns="http://www.w3.org/2000/svg">
<rect width="50" height="50" rx="6" fill="#303134"/>
<path d="M25 27.6719C26.4756 27.6719 27.6719 26.4756 27.6719 25C27.6719 23.5244 26.4756 22.3281 25 22.3281C23.5244 22.3281 22.3281 23.5244 22.3281 25C22.3281 26.4756 23.5244 27.6719 25 27.6719Z" fill="#61DAFB"/>
<path d="M35.1484 20.5938C34.6328 20.4062 34.0938 20.2188 33.5312 20.0547C33.6719 19.4922 33.7891 18.9297 33.8828 18.3906C34.375 15.2969 33.8359 13.1172 32.3359 12.2734C31.8906 12.0156 31.3984 11.8984 30.8359 11.8984C29.1953 11.8984 27.1094 13.1172 25 15.1562C22.8906 13.1172 20.8047 11.8984 19.1641 11.8984C18.6016 11.8984 18.1094 12.0156 17.6641 12.2734C16.1641 13.1406 15.625 15.3203 16.1172 18.3906C16.2109 18.9297 16.3281 19.4922 16.4688 20.0547C15.9062 20.2188 15.3672 20.3828 14.8516 20.5938C11.9219 21.7188 10.3281 23.2656 10.3281 25C10.3281 26.7344 11.9453 28.2813 14.8516 29.4063C15.3672 29.5938 15.9062 29.7812 16.4688 29.9453C16.3281 30.5078 16.2109 31.0703 16.1172 31.6094C15.625 34.7031 16.1641 36.8828 17.6641 37.7266C18.1094 37.9844 18.6016 38.1016 19.1641 38.1016C20.8281 38.1016 22.9141 36.8828 25 34.8438C27.1094 36.8828 29.1953 38.1016 30.8359 38.1016C31.3984 38.1016 31.8906 37.9844 32.3359 37.7266C33.8359 36.8594 34.375 34.6797 33.8828 31.6094C33.7891 31.0703 33.6719 30.5078 33.5312 29.9453C34.0938 29.7812 34.6328 29.6172 35.1484 29.4063C38.0781 28.2813 39.6719 26.7344 39.6719 25C39.6719 23.2656 38.0781 21.7188 35.1484 20.5938ZM31.6797 13.4453C32.6406 14.0078 32.9688 15.7422 32.5703 18.2031C32.5 18.6953 32.3828 19.2109 32.2422 19.75C31.0234 19.4688 29.7344 19.2812 28.375 19.1641C27.5781 18.0391 26.7578 17.0312 25.9375 16.1172C27.6719 14.4062 29.4297 13.2344 30.8594 13.2344C31.1641 13.2344 31.4453 13.3047 31.6797 13.4453ZM29.0547 27.3438C28.6328 28.0938 28.1406 28.8438 27.625 29.5938C26.7578 29.6641 25.8906 29.6875 25 29.6875C24.0859 29.6875 23.2187 29.6641 22.375 29.5938C21.8594 28.8438 21.3906 28.0938 20.9687 27.3438C20.5234 26.5703 20.1016 25.7734 19.7266 25C20.1016 24.2266 20.5234 23.4297 20.9687 22.6562C21.3906 21.9062 21.8828 21.1563 22.3984 20.4063C23.2656 20.3359 24.1328 20.3125 25.0234 20.3125C25.9375 20.3125 26.8047 20.3359 27.6484 20.4063C28.1641 21.1563 28.6328 21.9062 29.0547 22.6562C29.5 23.4297 29.9219 24.2266 30.2969 25C29.8984 25.7734 29.5 26.5469 29.0547 27.3438ZM31 26.5703C31.3516 27.3906 31.6328 28.1875 31.8906 28.9844C31.0938 29.1719 30.25 29.3125 29.3594 29.4297C29.6406 28.9844 29.9453 28.5156 30.2031 28.0234C30.4844 27.5313 30.7422 27.0391 31 26.5703ZM25 32.9219C24.4375 32.3125 23.8984 31.6562 23.3828 30.9766C23.9219 31 24.4609 31.0234 25 31.0234C25.5391 31.0234 26.0781 31 26.6172 30.9766C26.1016 31.6562 25.5625 32.3125 25 32.9219ZM20.6406 29.4063C19.75 29.2891 18.9062 29.1484 18.1094 28.9609C18.3672 28.1875 18.6484 27.3672 19 26.5469C19.2578 27.0156 19.5156 27.5078 19.7969 27.9766C20.0781 28.4922 20.3594 28.9375 20.6406 29.4063ZM19 23.4297C18.6484 22.6094 18.3672 21.8125 18.1094 21.0156C18.9062 20.8281 19.75 20.6875 20.6406 20.5703C20.3594 21.0156 20.0547 21.4844 19.7969 21.9766C19.5156 22.4688 19.2578 22.9609 19 23.4297ZM25 17.0781C25.5625 17.6875 26.1016 18.3438 26.6172 19.0234C26.0781 19 25.5391 18.9766 25 18.9766C24.4609 18.9766 23.9219 19 23.3828 19.0234C23.8984 18.3438 24.4375 17.6875 25 17.0781ZM30.2031 22L29.3594 20.5938C30.25 20.7109 31.0938 20.8516 31.8906 21.0391C31.6328 21.8125 31.3516 22.6328 31 23.4531C30.7422 22.9609 30.4844 22.4688 30.2031 22ZM17.4297 18.2031C17.0313 15.7422 17.3594 14.0078 18.3203 13.4453C18.5547 13.3047 18.8359 13.2344 19.1406 13.2344C20.5469 13.2344 22.3047 14.3828 24.0625 16.1172C23.2422 17.0078 22.4219 18.0391 21.625 19.1641C20.2656 19.2812 18.9766 19.4922 17.7578 19.75C17.6172 19.2109 17.5234 18.6953 17.4297 18.2031ZM11.6406 25C11.6406 23.8984 12.9766 22.7266 15.3203 21.8594C15.7891 21.6719 16.3047 21.5078 16.8203 21.3672C17.1953 22.5391 17.6641 23.7812 18.2266 25.0234C17.6641 26.2656 17.1719 27.4844 16.8203 28.6562C13.5859 27.7188 11.6406 26.3125 11.6406 25ZM18.3203 36.5547C17.3594 35.9922 17.0313 34.2578 17.4297 31.7969C17.5 31.3047 17.6172 30.7891 17.7578 30.25C18.9766 30.5312 20.2656 30.7188 21.625 30.8359C22.4219 31.9609 23.2422 32.9688 24.0625 33.8828C22.3281 35.5938 20.5703 36.7656 19.1406 36.7656C18.8359 36.7656 18.5547 36.6953 18.3203 36.5547ZM32.5703 31.7969C32.9688 34.2578 32.6406 35.9922 31.6797 36.5547C31.4453 36.6953 31.1641 36.7656 30.8594 36.7656C29.4531 36.7656 27.6953 35.6172 25.9375 33.8828C26.7578 32.9922 27.5781 31.9609 28.375 30.8359C29.7344 30.7188 31.0234 30.5078 32.2422 30.25C32.3828 30.7891 32.4766 31.3047 32.5703 31.7969ZM34.6797 28.1406C34.2109 28.3281 33.6953 28.4922 33.1797 28.6328C32.8047 27.4609 32.3359 26.2188 31.7734 24.9766C32.3359 23.7344 32.8281 22.5156 33.1797 21.3438C36.4141 22.2813 38.3594 23.6875 38.3594 25C38.3594 26.1016 37 27.2734 34.6797 28.1406Z" fill="#61DAFB"/>
</svg>
