<svg width="50" height="50" viewBox="0 0 50 50" fill="none" xmlns="http://www.w3.org/2000/svg">
<rect width="50" height="50" rx="6" fill="#CF649A"/>
<path d="M35.8254 26.9128C34.7765 26.9187 33.8682 27.1706 33.1065 27.5457C32.8252 26.989 32.5439 26.5026 32.4971 26.1394C32.4443 25.7175 32.3799 25.4596 32.4443 24.9557C32.5087 24.4517 32.8017 23.7368 32.8017 23.6782C32.7958 23.6254 32.7372 23.3676 32.1337 23.3617C31.5302 23.3559 31.0086 23.4789 30.95 23.6371C30.8914 23.7953 30.7742 24.1587 30.698 24.5337C30.5926 25.0845 29.4909 27.0359 28.8639 28.0613C28.6588 27.6629 28.483 27.3113 28.4478 27.0299C28.3951 26.6081 28.3306 26.3502 28.3951 25.8463C28.4596 25.3423 28.7526 24.6275 28.7526 24.5689C28.7467 24.5161 28.6881 24.2583 28.0846 24.2524C27.481 24.2466 26.9595 24.3696 26.9009 24.5278C26.8423 24.6861 26.7778 25.0611 26.6489 25.4244C26.5258 25.7877 25.0608 29.0458 24.6799 29.8955C24.4866 30.3291 24.3167 30.6749 24.1936 30.9093C24.0705 31.1436 24.1877 30.9268 24.176 30.9503C24.0705 31.1495 24.0119 31.2608 24.0119 31.2608V31.2668C23.9299 31.4133 23.842 31.5538 23.8009 31.5538C23.7716 31.5538 23.713 31.1612 23.8126 30.6222C24.0294 29.4912 24.5568 27.7274 24.551 27.6629C24.551 27.6336 24.6506 27.323 24.2111 27.1648C23.7833 27.0066 23.631 27.2703 23.5958 27.2703C23.5606 27.2703 23.5313 27.3641 23.5313 27.3641C23.5313 27.3641 24.006 25.3776 22.6231 25.3776C21.7558 25.3776 20.5604 26.3211 19.9685 27.1825C19.5935 27.3876 18.7965 27.8211 17.9527 28.2841C17.6304 28.4599 17.2964 28.6475 16.98 28.8174L16.9156 28.747C15.2397 26.9597 12.1398 25.694 12.2687 23.2914C12.3156 22.4183 12.6203 20.1153 18.2224 17.326C22.8107 15.0407 26.4848 15.6677 27.1235 17.0623C28.0318 19.0547 25.1604 22.7582 20.3906 23.2914C18.574 23.4965 17.6188 22.7933 17.3786 22.5296C17.1266 22.2542 17.0914 22.2425 16.9977 22.2952C16.8453 22.3773 16.9391 22.6234 16.9977 22.7699C17.1383 23.139 17.7243 23.7953 18.7205 24.1235C19.5936 24.4106 21.7266 24.5689 24.305 23.5727C27.1939 22.4534 29.4499 19.3477 28.7878 16.7518C28.1139 14.109 23.7307 13.2417 19.5878 14.7125C17.1207 15.5915 14.4486 16.9627 12.5265 18.7617C10.2412 20.8947 9.87786 22.7581 10.0302 23.5317C10.5635 26.2917 14.3665 28.0906 15.8901 29.4208C15.8139 29.4618 15.7436 29.5028 15.6791 29.538C14.9174 29.913 12.0167 31.4308 11.2901 33.0363C10.4697 34.8529 11.419 36.1597 12.0519 36.3355C14.0091 36.8805 16.0132 35.9019 17.0972 34.2904C18.1754 32.6789 18.0465 30.587 17.5485 29.6318L17.5308 29.5966L18.1285 29.245C18.5153 29.0165 18.8962 28.8056 19.2302 28.6238C19.0427 29.1336 18.9079 29.7372 18.8376 30.6162C18.7556 31.6476 19.1775 32.9836 19.7342 33.511C19.9803 33.7395 20.2733 33.7454 20.455 33.7454C21.0995 33.7454 21.3925 33.2121 21.7148 32.5734C22.1133 31.794 22.4649 30.8916 22.4649 30.8916C22.4649 30.8916 22.0254 33.3352 23.2267 33.3352C23.6662 33.3352 24.1057 32.7668 24.3049 32.4738V32.4796C24.3049 32.4796 24.3166 32.4621 24.3401 32.421C24.3646 32.3847 24.3881 32.3476 24.4104 32.3098V32.298C24.5862 31.9933 24.9788 31.296 25.5648 30.1416C26.3206 28.6532 27.0473 26.7898 27.0473 26.7898C27.0473 26.7898 27.1176 27.2468 27.3345 27.9969C27.4633 28.4423 27.7446 28.9286 27.9614 29.4033C27.7856 29.6494 27.6801 29.7901 27.6801 29.7901L27.686 29.7959C27.5454 29.9834 27.3871 30.1827 27.2231 30.3819C26.6254 31.0968 25.9105 31.9114 25.8168 32.1458C25.7054 32.4212 25.7289 32.6263 25.9457 32.7904C26.1039 32.9076 26.3852 32.931 26.684 32.9076C27.2231 32.8724 27.5982 32.7377 27.7857 32.6556C28.0787 32.5501 28.4127 32.3919 28.735 32.1575C29.321 31.7239 29.6784 31.1086 29.6433 30.2882C29.6257 29.837 29.4792 29.3917 29.2975 28.9697C29.3503 28.8936 29.4031 28.8173 29.4557 28.7354C30.3816 27.3817 31.0965 25.8933 31.0965 25.8933C31.0965 25.8933 31.1668 26.3504 31.3836 27.1004C31.4949 27.4813 31.7177 27.8974 31.9169 28.3076C31.0496 29.0167 30.5047 29.8371 30.3171 30.3762C29.9714 31.3724 30.241 31.8236 30.7508 31.929C30.9793 31.9759 31.3075 31.8705 31.5535 31.765C31.8582 31.6654 32.2274 31.4954 32.5673 31.2434C33.1533 30.8098 33.7159 30.2062 33.6866 29.3917C33.669 29.0167 33.5694 28.6475 33.4346 28.2959C34.173 27.9912 35.1281 27.8154 36.3411 27.9619C38.9488 28.2666 39.4644 29.8957 39.3649 30.5754C39.2653 31.2552 38.7203 31.6302 38.5386 31.7474C38.3569 31.8587 38.2983 31.8998 38.3159 31.9818C38.3393 32.1049 38.4214 32.099 38.5796 32.0756C38.7964 32.0404 39.9508 31.5189 39.9977 30.265C40.068 28.6533 38.5386 26.8953 35.8254 26.9128ZM15.7143 33.6927C14.8529 34.6361 13.6399 34.9936 13.1242 34.6889C12.5675 34.3666 12.7843 32.9778 13.845 31.9758C14.4896 31.3663 15.3276 30.8038 15.8784 30.458C16.0014 30.3819 16.189 30.2706 16.4116 30.1357C16.4468 30.1124 16.4702 30.1006 16.4702 30.1006C16.5113 30.0771 16.5581 30.0478 16.605 30.0185C16.9976 31.4484 16.6226 32.7024 15.7143 33.6927ZM22.0137 29.4091C21.7148 30.1416 21.082 32.0226 20.7011 31.9172C20.3729 31.8293 20.1737 30.4053 20.6366 28.9989C20.8709 28.2898 21.369 27.4461 21.662 27.1178C22.1367 26.5905 22.6524 26.4147 22.7813 26.6315C22.9337 26.9128 22.2012 28.9521 22.0137 29.4091ZM27.2114 31.8937C27.0825 31.9582 26.9653 32.0051 26.9126 31.9699C26.8715 31.9465 26.9652 31.8586 26.9652 31.8586C26.9652 31.8586 27.6157 31.1613 27.8735 30.839C28.02 30.6515 28.1958 30.4347 28.3833 30.1885V30.2589C28.3834 31.1026 27.5747 31.6652 27.2114 31.8937ZM31.2195 30.9796C31.1258 30.9093 31.1375 30.6924 31.4539 30.0127C31.577 29.7431 31.8582 29.2919 32.3446 28.8642C32.4032 29.0399 32.4384 29.2098 32.4325 29.3681C32.4267 30.4229 31.6766 30.8155 31.2195 30.9796Z" fill="white"/>
</svg>
