<svg width="50" height="50" viewBox="0 0 50 50" fill="none" xmlns="http://www.w3.org/2000/svg">
<rect width="50" height="50" rx="6" fill="white"/>
<path d="M37.466 30.9051C33.8653 35.7016 26.177 34.0828 21.2464 34.3147C21.2464 34.3147 20.3728 34.3643 19.4949 34.5087C19.4949 34.5087 19.8274 34.3672 20.2518 34.2199C23.7139 33.0226 25.3501 32.782 27.4545 31.7014C31.4066 29.6772 35.3412 25.2658 36.1418 20.6837C34.6368 25.0908 30.0605 28.8839 25.8941 30.4239C23.043 31.4768 17.8849 32.5006 17.8835 32.5006C17.8134 32.4647 17.7439 32.4277 17.6749 32.3897C14.1676 30.6835 14.0655 23.0856 20.437 20.637C23.2312 19.5637 25.9014 20.1528 28.9216 19.4339C32.1416 18.6683 35.872 16.2547 37.3872 13.0989C39.0862 18.1418 41.1278 26.0285 37.466 30.9051ZM37.5272 11.5385C37.1199 12.5152 36.5985 13.4403 35.9741 14.2947C34.6166 12.8957 32.992 11.7835 31.1966 11.0242C29.4012 10.2649 27.4716 9.87394 25.5222 9.87451C17.4678 9.87451 10.917 16.4253 10.917 24.4783C10.9161 26.487 11.3308 28.4742 12.1352 30.3149C12.9396 32.1555 14.1162 33.8098 15.591 35.1737L15.9118 35.4566C15.6779 35.2224 15.5467 34.9048 15.5469 34.5738C15.5471 34.2429 15.6787 33.9255 15.9129 33.6916C16.147 33.4576 16.4645 33.3262 16.7955 33.3263C17.1265 33.3264 17.4439 33.4579 17.6779 33.6919C17.912 33.926 18.0435 34.2434 18.0436 34.5744C18.0436 34.9054 17.9122 35.2228 17.6783 35.457C17.4443 35.6911 17.127 35.8228 16.796 35.823C16.465 35.8232 16.1475 35.6919 15.9132 35.4581L16.1305 35.6506C18.7561 37.8703 22.084 39.0868 25.5222 39.0835C33.2193 39.0835 39.5412 33.0926 40.0822 25.5326C40.4818 21.8299 39.388 17.1283 37.5272 11.5385Z" fill="#6DB33F"/>
</svg>
