<svg width="50" height="50" viewBox="0 0 50 50" fill="none" xmlns="http://www.w3.org/2000/svg">
<rect width="50" height="50" rx="6" fill="#0ED3CF"/>
<path d="M33.125 21.8875C32.1876 21.5646 31.3601 20.9841 30.7375 20.2125C30.0513 19.3528 29.1776 18.6614 28.1831 18.1913C27.1887 17.7211 26.0999 17.4847 25 17.5C23.5205 17.3952 22.0557 17.8515 20.8975 18.7781C19.7393 19.7047 18.9726 21.0335 18.75 22.5C19.1883 21.7665 19.8481 21.1911 20.6342 20.8564C21.4204 20.5217 22.2925 20.445 23.125 20.6375C24.0609 20.9697 24.887 21.5536 25.5125 22.325C26.2025 23.1778 27.0779 23.862 28.0721 24.3256C29.0663 24.7891 30.1532 25.0198 31.25 25C32.7295 25.1048 34.1943 24.6484 35.3525 23.7218C36.5107 22.7953 37.2775 21.4664 37.5 20C37.0696 20.7422 36.412 21.3264 35.6242 21.6662C34.8364 22.0061 33.9602 22.0837 33.125 21.8875ZM16.875 28.1125C17.8124 28.4353 18.6399 29.0159 19.2625 29.7875C19.9487 30.6472 20.8224 31.3386 21.8169 31.8087C22.8113 32.2788 23.9001 32.5153 25 32.5C26.4795 32.6048 27.9443 32.1484 29.1025 31.2218C30.2607 30.2953 31.0274 28.9664 31.25 27.5C30.8117 28.2334 30.1519 28.8089 29.3658 29.1436C28.5796 29.4783 27.7075 29.5549 26.875 29.3625C25.9391 29.0302 25.113 28.4463 24.4875 27.675C23.7957 26.8243 22.9199 26.1415 21.9261 25.6782C20.9323 25.2148 19.8464 24.983 18.75 25C17.2705 24.8952 15.8057 25.3515 14.6475 26.2781C13.4893 27.2047 12.7226 28.5335 12.5 30C12.9304 29.2578 13.588 28.6736 14.3758 28.3337C15.1636 27.9939 16.0398 27.9163 16.875 28.1125Z" fill="white"/>
</svg>
