<svg width="50" height="50" viewBox="0 0 50 50" fill="none" xmlns="http://www.w3.org/2000/svg">
<rect width="50" height="50" rx="6" fill="#0ED3CF"/>
<path d="M33.125 21.8876C32.1876 21.5647 31.3601 20.9842 30.7375 20.2126C30.0513 19.3529 29.1776 18.6615 28.1831 18.1914C27.1887 17.7212 26.0999 17.4848 25 17.5001C23.5205 17.3953 22.0557 17.8517 20.8975 18.7782C19.7393 19.7048 18.9726 21.0336 18.75 22.5001C19.1883 21.7667 19.8481 21.1912 20.6342 20.8565C21.4204 20.5218 22.2925 20.4452 23.125 20.6376C24.0609 20.9699 24.887 21.5538 25.5125 22.3251C26.2025 23.1779 27.0779 23.8622 28.0721 24.3257C29.0663 24.7893 30.1532 25.0199 31.25 25.0001C32.7295 25.1049 34.1943 24.6485 35.3525 23.722C36.5107 22.7954 37.2775 21.4666 37.5 20.0001C37.0696 20.7423 36.412 21.3265 35.6242 21.6664C34.8364 22.0062 33.9602 22.0838 33.125 21.8876ZM16.875 28.1126C17.8124 28.4355 18.6399 29.016 19.2625 29.7876C19.9487 30.6473 20.8224 31.3387 21.8169 31.8088C22.8113 32.279 23.9001 32.5154 25 32.5001C26.4795 32.6049 27.9443 32.1485 29.1025 31.222C30.2607 30.2954 31.0274 28.9666 31.25 27.5001C30.8117 28.2335 30.1519 28.809 29.3658 29.1437C28.5796 29.4784 27.7075 29.555 26.875 29.3626C25.9391 29.0303 25.113 28.4464 24.4875 27.6751C23.7957 26.8244 22.9199 26.1416 21.9261 25.6783C20.9323 25.215 19.8464 24.9831 18.75 25.0001C17.2705 24.8953 15.8057 25.3517 14.6475 26.2782C13.4893 27.2048 12.7226 28.5336 12.5 30.0001C12.9304 29.2579 13.588 28.6737 14.3758 28.3338C15.1636 27.994 16.0398 27.9164 16.875 28.1126Z" fill="white"/>
</svg>
