<svg width="50" height="50" viewBox="0 0 50 50" fill="none" xmlns="http://www.w3.org/2000/svg">
<g clip-path="url(#clip0_612_32)">
<rect width="50" height="50" rx="6" fill="white"/>
<g clip-path="url(#clip1_612_32)">
<path d="M0 25V50H50V0H0V25ZM30.3396 40.8875C30.5646 40.7604 31.4042 40.275 32.1979 39.8146L33.6354 38.9813L33.9375 39.4271C34.3583 40.0687 35.2771 40.95 35.8333 41.2438C37.4292 42.0854 39.6187 41.9667 40.6979 40.9979C40.9031 40.8256 41.068 40.6103 41.181 40.3674C41.294 40.1244 41.3524 39.8596 41.3521 39.5917L41.35 39.4938V39.4979C41.35 38.9187 41.2771 38.6646 40.975 38.2271C40.5875 37.6729 39.7937 37.2062 37.5396 36.2271C34.9604 35.1167 33.85 34.4271 32.8333 33.3312C32.2083 32.6208 31.7443 31.7836 31.4729 30.8771L31.4604 30.8312C31.2708 30.125 31.2229 28.3542 31.3729 27.6417C31.9042 25.1479 33.7854 23.4125 36.5 22.8958C37.3812 22.7292 39.4292 22.7917 40.2937 23.0063C41.5646 23.3229 42.5312 23.8896 43.4208 24.8104C43.8812 25.3021 44.5646 26.1979 44.6187 26.4146C44.6354 26.4771 42.4604 27.9354 41.1437 28.7542C41.0958 28.7854 40.9042 28.5792 40.6917 28.2625C40.0458 27.325 39.3729 26.9208 38.3417 26.85C36.825 26.7458 35.85 27.5396 35.8583 28.8646L35.8563 28.9417C35.8563 29.2562 35.9354 29.5521 36.075 29.8104L36.0708 29.8C36.4042 30.4896 37.025 30.9042 38.9667 31.7437C42.5479 33.2854 44.0792 34.3 45.0312 35.7437C46.0937 37.3542 46.3333 39.9271 45.6104 41.8396C44.8187 43.9187 42.85 45.3312 40.0792 45.7979C39.2229 45.95 37.1917 45.9271 36.2708 45.7604C34.2625 45.4021 32.3583 44.4104 31.1833 43.1083C30.7229 42.6021 29.825 41.275 29.8813 41.1812C30.0257 41.0708 30.179 40.9726 30.3396 40.8875ZM10.9542 25.1354C10.9542 24.0229 10.9771 23.0937 11.0083 23.0729C11.0333 23.0396 14.9938 23.0229 19.7938 23.0312L28.5333 23.0562L28.5562 25.0958L28.5729 27.1437H22.0625V45.6354H17.4583V27.1437H10.9542V25.1354Z" fill="#1677C7"/>
</g>
</g>
<defs>
<clipPath id="clip0_612_32">
<rect width="50" height="50" rx="6" fill="white"/>
</clipPath>
<clipPath id="clip1_612_32">
<rect width="50" height="50" rx="4" fill="white"/>
</clipPath>
</defs>
</svg>
