<svg width="50" height="50" viewBox="0 0 50 50" fill="none" xmlns="http://www.w3.org/2000/svg">
<rect width="50" height="50" rx="6" fill="#7F54B3"/>
<path fill-rule="evenodd" clip-rule="evenodd" d="M41.2715 13H8.7124C6.6519 13 4.98388 14.6844 5.00012 16.7285V29.1569C5.00012 31.2174 6.66826 32.8854 8.72876 32.8854H24.1497L31.198 36.8102L29.5954 32.8854H41.2715C43.3321 32.8854 45 31.2174 45 29.1569V16.7285C45 14.668 43.3321 13 41.2715 13ZM8.02564 15.8781C7.56775 15.9109 7.22433 16.0744 6.99539 16.3851C6.76645 16.6795 6.68469 17.0556 6.73374 17.4808C7.69858 23.6132 8.598 27.7505 9.43201 29.8928C9.75908 30.6777 10.1352 31.0539 10.5767 31.0212C11.2636 30.9721 12.0812 30.0236 13.0461 28.1758C13.553 27.1291 14.338 25.5593 15.4009 23.466C16.2839 26.5567 17.4941 28.8789 19.015 30.4325C19.4402 30.874 19.8817 31.0702 20.3068 31.0375C20.683 31.0048 20.9773 30.8086 21.1735 30.4488C21.3371 30.1381 21.4025 29.7783 21.3698 29.3695C21.2717 27.8814 21.4189 25.8045 21.8277 23.1389C22.2528 20.3916 22.7762 18.4129 23.4139 17.2355C23.5448 16.9902 23.5938 16.7449 23.5775 16.4505C23.5448 16.0744 23.3812 15.7637 23.0706 15.5184C22.7599 15.2731 22.4164 15.1586 22.0403 15.1913C21.566 15.224 21.2063 15.453 20.961 15.9109C19.9471 17.7588 19.2275 20.7514 18.8024 24.9051C18.1809 23.3352 17.6576 21.4873 17.2488 19.3123C17.0689 18.3475 16.6274 17.8896 15.9078 17.9386C15.4173 17.9713 15.0084 18.2984 14.6814 18.9198L11.1 25.7391C10.5113 23.3679 9.95531 20.4734 9.44836 17.0556C9.33389 16.2052 8.85965 15.8127 8.02564 15.8781ZM39.5381 17.0556C40.6993 17.3009 41.566 17.9223 42.1546 18.9526C42.678 19.8357 42.9396 20.8986 42.9396 22.1742C42.9396 23.8585 42.5144 25.3957 41.664 26.8021C40.6828 28.4374 39.4073 29.255 37.8211 29.255C37.5431 29.255 37.2487 29.2223 36.938 29.1569C35.7769 28.9116 34.9102 28.2903 34.3215 27.26C33.7982 26.3606 33.5365 25.2813 33.5365 24.022C33.5365 22.3377 33.9618 20.8005 34.8121 19.4105C35.8097 17.7752 37.0852 16.9575 38.6551 16.9575C38.9331 16.9575 39.2275 16.9902 39.5381 17.0556ZM38.8514 25.9026C39.4564 25.363 39.8652 24.5617 40.0942 23.4824C40.1596 23.1063 40.2086 22.6975 40.2086 22.2723C40.2086 21.798 40.1105 21.2911 39.9142 20.7841C39.669 20.1464 39.3419 19.803 38.9494 19.7212C38.3607 19.6067 37.7884 19.9338 37.2487 20.7351C36.8072 21.3565 36.5291 22.0106 36.382 22.6811C36.3002 23.0572 36.2675 23.4661 36.2675 23.8749C36.2675 24.3491 36.3656 24.8561 36.5618 25.363C36.8072 26.0008 37.1342 26.3442 37.5267 26.426C37.9355 26.5077 38.377 26.3279 38.8514 25.9026ZM31.9012 18.9526C31.3124 17.9223 30.4294 17.3009 29.2847 17.0556C28.9739 16.9902 28.6796 16.9575 28.4016 16.9575C26.8318 16.9575 25.5562 17.7752 24.5586 19.4105C23.7082 20.8005 23.2831 22.3377 23.2831 24.022C23.2831 25.2813 23.5448 26.3606 24.068 27.26C24.6568 28.2903 25.5235 28.9116 26.6845 29.1569C26.9952 29.2223 27.2896 29.255 27.5676 29.255C29.1539 29.255 30.4294 28.4374 31.4106 26.8021C32.261 25.3957 32.6861 23.8585 32.6861 22.1742C32.6861 20.8986 32.4244 19.8357 31.9012 18.9526ZM29.8407 23.4824C29.6118 24.5617 29.2029 25.363 28.5978 25.9026C28.1236 26.3279 27.6821 26.5077 27.2733 26.426C26.8808 26.3442 26.5537 26.0008 26.3084 25.363C26.1122 24.8561 26.014 24.3491 26.014 23.8749C26.014 23.4661 26.0467 23.0572 26.1286 22.6811C26.2757 22.0106 26.5537 21.3565 26.9952 20.7351C27.5349 19.9338 28.1073 19.6067 28.6959 19.7212C29.0885 19.803 29.4155 20.1464 29.6608 20.7841C29.8571 21.2911 29.9552 21.798 29.9552 22.2723C29.9552 22.6975 29.9225 23.1063 29.8407 23.4824Z" fill="white"/>
</svg>
