<svg width="50" height="50" viewBox="0 0 50 50" fill="none" xmlns="http://www.w3.org/2000/svg">
<rect width="50" height="50" rx="6" fill="#00759D"/>
<g clip-path="url(#clip0_620_88)">
<rect x="5" y="5" width="40" height="40" rx="20" fill="#00759D"/>
<path fill-rule="evenodd" clip-rule="evenodd" d="M8 24.9995C8 31.7285 11.9101 37.5438 17.5809 40.2989L9.47162 18.0813C8.52915 20.1947 8 22.5344 8 24.9995ZM36.4761 24.142C36.4761 22.0403 35.7206 20.5857 35.0746 19.4541C34.2129 18.0526 33.4043 16.8668 33.4043 15.4664C33.4043 13.9034 34.589 12.4488 36.2593 12.4488C36.3348 12.4488 36.406 12.4584 36.4793 12.4626C33.4553 9.69153 29.4251 8 24.9997 8C19.0601 8 13.8356 11.0473 10.7957 15.6619C11.1953 15.6747 11.5714 15.6821 11.8901 15.6821C13.6678 15.6821 16.4208 15.4664 16.4208 15.4664C17.3367 15.4122 17.4451 16.7595 16.5292 16.8668C16.5292 16.8668 15.6079 16.9752 14.5837 17.0294L20.774 35.4431L24.495 24.2854L21.8472 17.0294C20.9312 16.9752 20.0632 16.8668 20.0632 16.8668C19.1473 16.8126 19.2546 15.4122 20.1715 15.4664C20.1715 15.4664 22.9788 15.6821 24.6491 15.6821C26.4267 15.6821 29.1797 15.4664 29.1797 15.4664C30.0966 15.4122 30.204 16.7595 29.2881 16.8668C29.2881 16.8668 28.3658 16.9752 27.3426 17.0294L33.4861 35.3029L35.183 29.6374C35.9162 27.285 36.4761 25.5966 36.4761 24.142ZM39.9174 16.8438C39.9907 17.3857 40.0322 17.9658 40.0322 18.5917C40.0322 20.3162 39.7092 22.2553 38.7391 24.681L33.5465 39.6936C38.6009 36.7471 42 31.2709 42 24.9998C42 22.0438 41.2445 19.2653 39.9174 16.8438ZM25.2982 26.4866L20.197 41.3079C21.7207 41.7563 23.3315 42.0006 24.9997 42.0006C26.9792 42.0006 28.8779 41.6585 30.6449 41.0369C30.6003 40.9636 30.5578 40.8871 30.5238 40.8032L25.2982 26.4866Z" fill="white"/>
<rect x="5.5" y="5.5" width="39" height="39" rx="19.5" stroke="white"/>
</g>
<defs>
<clipPath id="clip0_620_88">
<rect x="5" y="5" width="40" height="40" rx="20" fill="white"/>
</clipPath>
</defs>
</svg>
