<svg width="50" height="50" viewBox="0 0 50 50" fill="none" xmlns="http://www.w3.org/2000/svg">
<rect width="50" height="50" rx="6" fill="#028CB0"/>
<path d="M25 46.875C37.0812 46.875 46.875 37.0812 46.875 25C46.875 12.9188 37.0812 3.125 25 3.125C12.9188 3.125 3.125 12.9188 3.125 25C3.125 37.0812 12.9188 46.875 25 46.875Z" fill="#028CB0"/>
<path d="M10.0865 25C10.0865 30.9098 13.524 36 18.4952 38.4195L11.3822 18.9316C10.5281 20.8406 10.0866 22.9086 10.0865 25ZM25 39.9134C26.732 39.9134 28.3978 39.6094 29.958 39.0673L29.8522 38.8691L25.2644 26.3089L20.7956 39.3053C22.1178 39.7019 23.5325 39.9134 25 39.9134ZM27.0492 18.0059L32.4434 34.0433L33.9375 29.0722C34.5722 27.0097 35.0612 25.5289 35.0612 24.2464C35.0612 22.3955 34.4003 21.1263 33.845 20.1478C33.0781 18.905 32.3773 17.8606 32.3773 16.6442C32.3773 15.2692 33.4086 14 34.8894 14H35.0745C32.3266 11.4773 28.7303 10.0803 25 10.0865C22.53 10.0861 20.0988 10.6996 17.9247 11.872C15.7508 13.0444 13.9023 14.7388 12.5457 16.8028L13.4976 16.8294C15.0577 16.8294 17.4639 16.6309 17.4639 16.6309C18.2836 16.5914 18.3763 17.768 17.5697 17.8606C17.5697 17.8606 16.7633 17.9664 15.8509 18.0059L21.2981 34.1622L24.5638 24.3786L22.2367 18.0059C21.7156 17.9772 21.1953 17.9331 20.6767 17.8738C19.8702 17.8209 19.9628 16.5914 20.7692 16.6309C20.7692 16.6309 23.2284 16.8294 24.6959 16.8294C26.2559 16.8294 28.6622 16.6309 28.6622 16.6309C29.4688 16.5914 29.5745 17.768 28.768 17.8606C28.768 17.8606 27.9616 17.9531 27.0492 18.0059ZM32.4964 37.8906C34.7525 36.5788 36.6248 34.6978 37.9264 32.4358C39.228 30.1737 39.9131 27.6098 39.9134 25C39.9134 22.4086 39.2523 19.9759 38.0889 17.8473C38.3252 20.1892 37.9706 22.553 37.0577 24.7223L32.4964 37.8906ZM25 42.1875C20.4416 42.1875 16.0698 40.3767 12.8466 37.1534C9.62333 33.9302 7.8125 29.5584 7.8125 25C7.8125 20.4416 9.62333 16.0698 12.8466 12.8466C16.0698 9.62333 20.4416 7.8125 25 7.8125C29.5584 7.8125 33.9302 9.62333 37.1534 12.8466C40.3767 16.0698 42.1875 20.4416 42.1875 25C42.1875 29.5584 40.3767 33.9302 37.1534 37.1534C33.9302 40.3767 29.5584 42.1875 25 42.1875Z" fill="white"/>
</svg>
