<svg width="300" height="138" viewBox="0 0 300 138" fill="none" xmlns="http://www.w3.org/2000/svg">
<rect y="0.818237" width="300" height="136.364" rx="15" fill="white"/>
<path d="M109.858 108.208C109.952 108.077 110.103 108 110.264 108H120.464C120.74 108 120.964 108.224 120.964 108.5V113.058C120.964 113.334 120.74 113.558 120.464 113.558H106.977C106.569 113.558 106.333 113.096 106.571 112.765L109.858 108.208Z" fill="#3FD0C9"/>
<path d="M130.404 106.72C130.522 106.779 130.588 106.869 130.604 106.992C130.626 107.115 130.596 107.227 130.516 107.328C130.458 107.408 130.38 107.453 130.284 107.464C130.194 107.475 130.103 107.456 130.012 107.408C129.858 107.328 129.695 107.264 129.524 107.216C129.354 107.168 129.172 107.144 128.98 107.144C128.676 107.144 128.402 107.195 128.156 107.296C127.916 107.392 127.708 107.533 127.532 107.72C127.356 107.901 127.22 108.117 127.124 108.368C127.034 108.619 126.988 108.896 126.988 109.2C126.988 109.536 127.039 109.835 127.14 110.096C127.242 110.352 127.38 110.571 127.556 110.752C127.738 110.928 127.948 111.061 128.188 111.152C128.434 111.237 128.698 111.28 128.98 111.28C129.162 111.28 129.338 111.259 129.508 111.216C129.684 111.173 129.85 111.109 130.004 111.024C130.1 110.976 130.194 110.96 130.284 110.976C130.38 110.987 130.458 111.032 130.516 111.112C130.607 111.224 130.639 111.339 130.612 111.456C130.591 111.568 130.524 111.653 130.412 111.712C130.279 111.787 130.132 111.851 129.972 111.904C129.812 111.957 129.65 112 129.484 112.032C129.319 112.064 129.151 112.08 128.98 112.08C128.596 112.08 128.234 112.016 127.892 111.888C127.551 111.76 127.247 111.573 126.98 111.328C126.714 111.083 126.503 110.781 126.348 110.424C126.199 110.067 126.124 109.659 126.124 109.2C126.124 108.789 126.194 108.411 126.332 108.064C126.476 107.712 126.676 107.411 126.932 107.16C127.194 106.904 127.498 106.707 127.844 106.568C128.191 106.424 128.57 106.352 128.98 106.352C129.236 106.352 129.484 106.384 129.724 106.448C129.97 106.512 130.196 106.603 130.404 106.72ZM136.618 109.2C136.618 109.605 136.551 109.984 136.418 110.336C136.285 110.683 136.095 110.987 135.85 111.248C135.61 111.509 135.325 111.715 134.994 111.864C134.663 112.008 134.301 112.08 133.906 112.08C133.517 112.08 133.157 112.008 132.826 111.864C132.495 111.715 132.207 111.509 131.962 111.248C131.722 110.987 131.535 110.683 131.402 110.336C131.274 109.984 131.21 109.605 131.21 109.2C131.21 108.795 131.274 108.419 131.402 108.072C131.535 107.72 131.722 107.413 131.962 107.152C132.207 106.891 132.495 106.688 132.826 106.544C133.157 106.395 133.517 106.32 133.906 106.32C134.301 106.32 134.663 106.395 134.994 106.544C135.325 106.688 135.61 106.891 135.85 107.152C136.095 107.413 136.285 107.72 136.418 108.072C136.551 108.419 136.618 108.795 136.618 109.2ZM135.754 109.2C135.754 108.805 135.674 108.451 135.514 108.136C135.359 107.821 135.143 107.573 134.866 107.392C134.589 107.211 134.269 107.12 133.906 107.12C133.549 107.12 133.231 107.211 132.954 107.392C132.677 107.573 132.461 107.821 132.306 108.136C132.151 108.445 132.074 108.8 132.074 109.2C132.074 109.595 132.151 109.949 132.306 110.264C132.461 110.579 132.677 110.827 132.954 111.008C133.231 111.189 133.549 111.28 133.906 111.28C134.269 111.28 134.589 111.189 134.866 111.008C135.143 110.827 135.359 110.579 135.514 110.264C135.674 109.949 135.754 109.595 135.754 109.2ZM141.8 106.4C141.907 106.4 141.992 106.437 142.056 106.512C142.125 106.581 142.16 106.669 142.16 106.776V111.592C142.16 111.709 142.12 111.808 142.04 111.888C141.965 111.963 141.869 112 141.752 112C141.699 112 141.64 111.989 141.576 111.968C141.517 111.947 141.472 111.917 141.44 111.88L138.152 107.616L138.336 107.512V111.632C138.336 111.733 138.301 111.821 138.232 111.896C138.163 111.965 138.075 112 137.968 112C137.856 112 137.765 111.965 137.696 111.896C137.632 111.821 137.6 111.733 137.6 111.632V106.808C137.6 106.685 137.64 106.587 137.72 106.512C137.8 106.437 137.896 106.4 138.008 106.4C138.067 106.4 138.128 106.413 138.192 106.44C138.261 106.461 138.312 106.496 138.344 106.544L141.552 110.72L141.432 110.832V106.776C141.432 106.669 141.467 106.581 141.536 106.512C141.605 106.437 141.693 106.4 141.8 106.4ZM145.187 112.08C144.803 112.08 144.462 112.027 144.163 111.92C143.865 111.813 143.579 111.637 143.307 111.392C143.249 111.349 143.203 111.299 143.171 111.24C143.145 111.176 143.131 111.112 143.131 111.048C143.131 110.947 143.169 110.856 143.243 110.776C143.318 110.696 143.411 110.656 143.523 110.656C143.609 110.656 143.689 110.685 143.763 110.744C143.966 110.931 144.177 111.072 144.395 111.168C144.619 111.264 144.881 111.312 145.179 111.312C145.393 111.312 145.587 111.277 145.763 111.208C145.945 111.139 146.089 111.045 146.195 110.928C146.302 110.811 146.355 110.675 146.355 110.52C146.355 110.328 146.299 110.171 146.187 110.048C146.081 109.92 145.923 109.816 145.715 109.736C145.513 109.651 145.267 109.579 144.979 109.52C144.713 109.472 144.473 109.405 144.259 109.32C144.051 109.235 143.873 109.128 143.723 109C143.574 108.867 143.459 108.709 143.379 108.528C143.299 108.347 143.259 108.136 143.259 107.896C143.259 107.571 143.345 107.291 143.515 107.056C143.686 106.821 143.918 106.64 144.211 106.512C144.505 106.384 144.835 106.32 145.203 106.32C145.539 106.32 145.854 106.373 146.147 106.48C146.441 106.581 146.678 106.72 146.859 106.896C146.987 107.008 147.051 107.128 147.051 107.256C147.051 107.352 147.011 107.443 146.931 107.528C146.857 107.608 146.769 107.648 146.667 107.648C146.593 107.648 146.529 107.627 146.475 107.584C146.39 107.493 146.275 107.413 146.131 107.344C145.987 107.269 145.833 107.208 145.667 107.16C145.507 107.112 145.353 107.088 145.203 107.088C144.963 107.088 144.758 107.123 144.587 107.192C144.417 107.256 144.286 107.347 144.195 107.464C144.105 107.576 144.059 107.709 144.059 107.864C144.059 108.045 144.11 108.195 144.211 108.312C144.318 108.429 144.465 108.525 144.651 108.6C144.838 108.669 145.051 108.733 145.291 108.792C145.585 108.856 145.846 108.928 146.075 109.008C146.31 109.088 146.507 109.192 146.667 109.32C146.827 109.443 146.95 109.597 147.035 109.784C147.121 109.971 147.163 110.203 147.163 110.48C147.163 110.8 147.073 111.08 146.891 111.32C146.71 111.56 146.47 111.747 146.171 111.88C145.878 112.013 145.55 112.08 145.187 112.08ZM152.123 106.392C152.24 106.392 152.334 106.432 152.403 106.512C152.472 106.587 152.507 106.683 152.507 106.8V109.832C152.507 110.259 152.414 110.64 152.227 110.976C152.04 111.312 151.784 111.576 151.459 111.768C151.134 111.955 150.758 112.048 150.331 112.048C149.91 112.048 149.534 111.955 149.203 111.768C148.878 111.576 148.619 111.312 148.427 110.976C148.24 110.64 148.147 110.259 148.147 109.832V106.8C148.147 106.683 148.187 106.587 148.267 106.512C148.347 106.432 148.451 106.392 148.579 106.392C148.68 106.392 148.771 106.432 148.851 106.512C148.936 106.587 148.979 106.683 148.979 106.8V109.832C148.979 110.115 149.04 110.363 149.163 110.576C149.291 110.784 149.459 110.949 149.667 111.072C149.875 111.189 150.096 111.248 150.331 111.248C150.587 111.248 150.822 111.189 151.035 111.072C151.248 110.949 151.419 110.784 151.547 110.576C151.68 110.363 151.747 110.115 151.747 109.832V106.8C151.747 106.683 151.779 106.587 151.843 106.512C151.912 106.432 152.006 106.392 152.123 106.392ZM156.907 111.216C157.019 111.216 157.112 111.253 157.187 111.328C157.267 111.403 157.307 111.496 157.307 111.608C157.307 111.72 157.267 111.813 157.187 111.888C157.112 111.963 157.019 112 156.907 112H154.219C154.102 112 154.003 111.963 153.923 111.888C153.848 111.808 153.811 111.709 153.811 111.592V106.808C153.811 106.691 153.851 106.595 153.931 106.52C154.011 106.44 154.115 106.4 154.243 106.4C154.35 106.4 154.443 106.44 154.523 106.52C154.608 106.595 154.651 106.691 154.651 106.808V111.352L154.483 111.216H156.907ZM159.362 112C159.234 112 159.13 111.963 159.05 111.888C158.975 111.808 158.938 111.709 158.938 111.592V106.8H159.794V111.592C159.794 111.709 159.751 111.808 159.666 111.888C159.586 111.963 159.484 112 159.362 112ZM157.546 107.168C157.434 107.168 157.338 107.133 157.258 107.064C157.178 106.989 157.138 106.893 157.138 106.776C157.138 106.664 157.178 106.573 157.258 106.504C157.338 106.435 157.434 106.4 157.546 106.4H161.186C161.298 106.4 161.391 106.437 161.466 106.512C161.546 106.581 161.586 106.672 161.586 106.784C161.586 106.901 161.546 106.995 161.466 107.064C161.391 107.133 161.298 107.168 161.186 107.168H157.546ZM163.331 111.592C163.325 111.709 163.28 111.808 163.195 111.888C163.115 111.963 163.019 112 162.907 112C162.784 112 162.683 111.963 162.603 111.888C162.528 111.808 162.491 111.709 162.491 111.592V106.808C162.491 106.691 162.531 106.595 162.611 106.52C162.691 106.44 162.795 106.4 162.923 106.4C163.029 106.4 163.123 106.44 163.203 106.52C163.288 106.595 163.331 106.691 163.331 106.808V111.592ZM168.824 106.4C168.93 106.4 169.016 106.437 169.08 106.512C169.149 106.581 169.184 106.669 169.184 106.776V111.592C169.184 111.709 169.144 111.808 169.064 111.888C168.989 111.963 168.893 112 168.776 112C168.722 112 168.664 111.989 168.6 111.968C168.541 111.947 168.496 111.917 168.464 111.88L165.176 107.616L165.36 107.512V111.632C165.36 111.733 165.325 111.821 165.256 111.896C165.186 111.965 165.098 112 164.992 112C164.88 112 164.789 111.965 164.72 111.896C164.656 111.821 164.624 111.733 164.624 111.632V106.808C164.624 106.685 164.664 106.587 164.744 106.512C164.824 106.437 164.92 106.4 165.032 106.4C165.09 106.4 165.152 106.413 165.216 106.44C165.285 106.461 165.336 106.496 165.368 106.544L168.576 110.72L168.456 110.832V106.776C168.456 106.669 168.49 106.581 168.56 106.512C168.629 106.437 168.717 106.4 168.824 106.4ZM173.091 112.08C172.685 112.08 172.307 112.008 171.955 111.864C171.603 111.715 171.293 111.509 171.027 111.248C170.765 110.981 170.56 110.675 170.411 110.328C170.261 109.981 170.187 109.605 170.187 109.2C170.187 108.795 170.261 108.419 170.411 108.072C170.56 107.725 170.765 107.421 171.027 107.16C171.293 106.893 171.603 106.688 171.955 106.544C172.307 106.395 172.685 106.32 173.091 106.32C173.352 106.32 173.605 106.349 173.851 106.408C174.096 106.467 174.317 106.552 174.515 106.664C174.584 106.701 174.635 106.752 174.667 106.816C174.699 106.875 174.715 106.933 174.715 106.992C174.715 107.104 174.677 107.203 174.603 107.288C174.533 107.368 174.445 107.408 174.339 107.408C174.301 107.408 174.261 107.403 174.219 107.392C174.181 107.381 174.147 107.368 174.115 107.352C173.965 107.277 173.805 107.221 173.635 107.184C173.464 107.141 173.283 107.12 173.091 107.12C172.707 107.12 172.36 107.213 172.051 107.4C171.741 107.581 171.496 107.829 171.315 108.144C171.139 108.459 171.051 108.811 171.051 109.2C171.051 109.584 171.139 109.936 171.315 110.256C171.496 110.571 171.741 110.821 172.051 111.008C172.36 111.189 172.707 111.28 173.091 111.28C173.277 111.28 173.475 111.259 173.683 111.216C173.891 111.168 174.067 111.107 174.211 111.032L174.147 111.248V109.728L174.275 109.84H173.227C173.109 109.84 173.011 109.803 172.931 109.728C172.856 109.653 172.819 109.557 172.819 109.44C172.819 109.323 172.856 109.227 172.931 109.152C173.011 109.077 173.109 109.04 173.227 109.04H174.611C174.723 109.04 174.816 109.08 174.891 109.16C174.971 109.235 175.011 109.331 175.011 109.448V111.224C175.011 111.309 174.989 111.381 174.947 111.44C174.904 111.499 174.856 111.547 174.803 111.584C174.563 111.733 174.296 111.853 174.003 111.944C173.715 112.035 173.411 112.08 173.091 112.08Z" fill="#00619A"/>
<path d="M191.105 108.208C191.011 108.077 190.86 108 190.7 108H180.5C180.224 108 180 108.224 180 108.5V113.058C180 113.334 180.224 113.558 180.5 113.558H193.987C194.394 113.558 194.631 113.096 194.392 112.765L191.105 108.208Z" fill="#3FD0C9"/>
<path d="M125.113 88.35C125.689 88.35 126.201 88.458 126.649 88.674C127.097 88.89 127.473 89.194 127.777 89.586C128.089 89.97 128.321 90.418 128.473 90.93C128.633 91.434 128.713 91.974 128.713 92.55C128.713 93.326 128.573 94.034 128.293 94.674C128.013 95.306 127.605 95.81 127.069 96.186C126.541 96.562 125.889 96.75 125.113 96.75H122.245C122.037 96.75 121.861 96.682 121.717 96.546C121.581 96.402 121.513 96.226 121.513 96.018V89.082C121.513 88.874 121.581 88.702 121.717 88.566C121.861 88.422 122.037 88.35 122.245 88.35H125.113ZM124.993 95.37C125.497 95.37 125.909 95.242 126.229 94.986C126.549 94.722 126.781 94.378 126.925 93.954C127.077 93.522 127.153 93.054 127.153 92.55C127.153 92.174 127.109 91.818 127.021 91.482C126.941 91.138 126.813 90.838 126.637 90.582C126.461 90.318 126.237 90.11 125.965 89.958C125.693 89.806 125.369 89.73 124.993 89.73H122.893L123.013 89.622V95.502L122.941 95.37H124.993ZM130.823 88.35H134.843C135.051 88.35 135.223 88.418 135.359 88.554C135.503 88.682 135.575 88.85 135.575 89.058C135.575 89.258 135.503 89.422 135.359 89.55C135.223 89.67 135.051 89.73 134.843 89.73H131.483L131.591 89.526V91.866L131.495 91.77H134.303C134.511 91.77 134.683 91.838 134.819 91.974C134.963 92.102 135.035 92.27 135.035 92.478C135.035 92.678 134.963 92.842 134.819 92.97C134.683 93.09 134.511 93.15 134.303 93.15H131.531L131.591 93.054V95.478L131.495 95.37H134.843C135.051 95.37 135.223 95.442 135.359 95.586C135.503 95.722 135.575 95.882 135.575 96.066C135.575 96.266 135.503 96.43 135.359 96.558C135.223 96.686 135.051 96.75 134.843 96.75H130.823C130.615 96.75 130.439 96.682 130.295 96.546C130.159 96.402 130.091 96.226 130.091 96.018V89.082C130.091 88.874 130.159 88.702 130.295 88.566C130.439 88.422 130.615 88.35 130.823 88.35ZM143.091 88.326C143.291 88.326 143.463 88.394 143.607 88.53C143.759 88.658 143.835 88.822 143.835 89.022C143.835 89.126 143.811 89.234 143.763 89.346L140.799 96.282C140.727 96.442 140.623 96.562 140.487 96.642C140.359 96.714 140.227 96.75 140.091 96.75C139.963 96.742 139.839 96.702 139.719 96.63C139.599 96.55 139.507 96.438 139.443 96.294L136.479 89.334C136.455 89.286 136.439 89.238 136.431 89.19C136.423 89.134 136.419 89.082 136.419 89.034C136.419 88.802 136.503 88.626 136.671 88.506C136.839 88.378 136.999 88.314 137.151 88.314C137.455 88.314 137.675 88.47 137.811 88.782L140.439 94.962L140.019 94.974L142.431 88.782C142.567 88.478 142.787 88.326 143.091 88.326ZM148.691 88.35C149.267 88.35 149.779 88.458 150.227 88.674C150.675 88.89 151.051 89.194 151.355 89.586C151.667 89.97 151.899 90.418 152.051 90.93C152.211 91.434 152.291 91.974 152.291 92.55C152.291 93.326 152.151 94.034 151.871 94.674C151.591 95.306 151.183 95.81 150.647 96.186C150.119 96.562 149.467 96.75 148.691 96.75H145.823C145.615 96.75 145.439 96.682 145.295 96.546C145.159 96.402 145.091 96.226 145.091 96.018V89.082C145.091 88.874 145.159 88.702 145.295 88.566C145.439 88.422 145.615 88.35 145.823 88.35H148.691ZM148.571 95.37C149.075 95.37 149.487 95.242 149.807 94.986C150.127 94.722 150.359 94.378 150.503 93.954C150.655 93.522 150.731 93.054 150.731 92.55C150.731 92.174 150.687 91.818 150.599 91.482C150.519 91.138 150.391 90.838 150.215 90.582C150.039 90.318 149.815 90.11 149.543 89.958C149.271 89.806 148.947 89.73 148.571 89.73H146.471L146.591 89.622V95.502L146.519 95.37H148.571ZM156.695 90.234L154.103 96.33C154.047 96.482 153.959 96.602 153.839 96.69C153.727 96.77 153.603 96.81 153.467 96.81C153.251 96.81 153.091 96.75 152.987 96.63C152.883 96.51 152.831 96.362 152.831 96.186C152.831 96.114 152.843 96.038 152.867 95.958L155.855 88.782C155.919 88.622 156.015 88.498 156.143 88.41C156.279 88.322 156.423 88.286 156.575 88.302C156.719 88.302 156.851 88.346 156.971 88.434C157.099 88.514 157.191 88.63 157.247 88.782L160.199 95.814C160.239 95.918 160.259 96.014 160.259 96.102C160.259 96.318 160.187 96.49 160.043 96.618C159.907 96.746 159.755 96.81 159.587 96.81C159.443 96.81 159.311 96.766 159.191 96.678C159.079 96.59 158.991 96.47 158.927 96.318L156.347 90.306L156.695 90.234ZM154.475 94.866L155.135 93.486H158.375L158.603 94.866H154.475ZM163.521 96.75C163.297 96.75 163.113 96.682 162.969 96.546C162.825 96.402 162.753 96.226 162.753 96.018V89.058H164.313V96.018C164.313 96.226 164.237 96.402 164.085 96.546C163.941 96.682 163.753 96.75 163.521 96.75ZM160.869 89.73C160.661 89.73 160.485 89.666 160.341 89.538C160.205 89.41 160.137 89.242 160.137 89.034C160.137 88.826 160.205 88.662 160.341 88.542C160.485 88.414 160.661 88.35 160.869 88.35H166.197C166.405 88.35 166.577 88.414 166.713 88.542C166.857 88.67 166.929 88.838 166.929 89.046C166.929 89.254 166.857 89.422 166.713 89.55C166.577 89.67 166.405 89.73 166.197 89.73H160.869ZM168.921 88.35H172.941C173.149 88.35 173.321 88.418 173.457 88.554C173.601 88.682 173.673 88.85 173.673 89.058C173.673 89.258 173.601 89.422 173.457 89.55C173.321 89.67 173.149 89.73 172.941 89.73H169.581L169.689 89.526V91.866L169.593 91.77H172.401C172.609 91.77 172.781 91.838 172.917 91.974C173.061 92.102 173.133 92.27 173.133 92.478C173.133 92.678 173.061 92.842 172.917 92.97C172.781 93.09 172.609 93.15 172.401 93.15H169.629L169.689 93.054V95.478L169.593 95.37H172.941C173.149 95.37 173.321 95.442 173.457 95.586C173.601 95.722 173.673 95.882 173.673 96.066C173.673 96.266 173.601 96.43 173.457 96.558C173.321 96.686 173.149 96.75 172.941 96.75H168.921C168.713 96.75 168.537 96.682 168.393 96.546C168.257 96.402 168.189 96.226 168.189 96.018V89.082C168.189 88.874 168.257 88.702 168.393 88.566C168.537 88.422 168.713 88.35 168.921 88.35ZM178.524 88.35C178.94 88.35 179.328 88.47 179.688 88.71C180.056 88.95 180.352 89.274 180.576 89.682C180.8 90.09 180.912 90.546 180.912 91.05C180.912 91.546 180.8 91.998 180.576 92.406C180.352 92.814 180.056 93.142 179.688 93.39C179.328 93.63 178.94 93.75 178.524 93.75H176.316L176.436 93.534V96.018C176.436 96.226 176.372 96.402 176.244 96.546C176.116 96.682 175.948 96.75 175.74 96.75C175.54 96.75 175.376 96.682 175.248 96.546C175.12 96.402 175.056 96.226 175.056 96.018V89.082C175.056 88.874 175.124 88.702 175.26 88.566C175.404 88.422 175.58 88.35 175.788 88.35H178.524ZM178.524 92.382C178.676 92.382 178.824 92.318 178.968 92.19C179.112 92.062 179.232 91.898 179.328 91.698C179.424 91.49 179.472 91.274 179.472 91.05C179.472 90.818 179.424 90.602 179.328 90.402C179.232 90.202 179.112 90.042 178.968 89.922C178.824 89.794 178.676 89.73 178.524 89.73H176.292L176.436 89.514V92.574L176.304 92.382H178.524Z" fill="#00619A"/>
<path d="M151 24.811L151.456 23.0694C151.158 22.9769 150.842 22.9769 150.543 23.0694L151 24.811ZM127.666 32.0677L127.21 30.3261C126.831 30.4435 126.504 30.7027 126.284 31.058C126.064 31.4132 125.967 31.8416 126.01 32.2673L127.666 32.0677ZM131 64.7227L129.343 64.9222C129.374 65.2231 129.473 65.5109 129.632 65.7593C129.791 66.0078 130.004 66.2089 130.253 66.3445L131 64.7227ZM151 75.6077L150.253 77.2295C150.485 77.356 150.741 77.4218 151 77.4218C151.259 77.4218 151.515 77.356 151.746 77.2295L151 75.6077ZM171 64.7227L171.747 66.3445C171.995 66.2089 172.209 66.0078 172.368 65.7593C172.527 65.5109 172.626 65.2231 172.657 64.9222L171 64.7227ZM174.333 32.0677L175.99 32.2673C176.033 31.841 175.937 31.4118 175.717 31.0558C175.497 30.6997 175.169 30.4399 174.79 30.3225L174.333 32.0677ZM150.543 23.0694L127.21 30.3261L128.123 33.8093L151.456 26.5526L150.543 23.0694ZM126.01 32.2636L129.343 64.9186L132.656 64.5195L129.323 31.8645L126.01 32.2636ZM130.253 66.3445L150.253 77.2295L151.746 73.9822L131.746 63.0972L130.253 66.3445ZM151.746 77.2295L171.747 66.3445L170.253 63.0972L150.253 73.9822L151.746 77.2295ZM172.657 64.9186L175.99 32.2636L172.677 31.8645L169.343 64.5195L172.657 64.9186ZM174.79 30.3188L151.456 23.0622L150.543 26.5526L173.877 33.8093L174.79 30.3188Z" fill="url(#paint0_linear_484_6)"/>
<rect x="148.384" y="37.6145" width="16.2" height="3.15892" rx="1.57946" fill="url(#paint1_linear_484_6)"/>
<rect x="137.416" y="37.6145" width="10.0621" height="3.15892" rx="1.57946" fill="url(#paint2_linear_484_6)"/>
<rect x="137.416" y="45.022" width="6.54036" height="3.26785" rx="1.63392" fill="url(#paint3_linear_484_6)"/>
<rect x="148.384" y="45.022" width="6.43973" height="3.26785" rx="1.63392" fill="url(#paint4_linear_484_6)"/>
<rect x="137.416" y="52.2112" width="8.25091" height="3.26785" rx="1.63392" fill="url(#paint5_linear_484_6)"/>
<rect x="148.384" y="52.2112" width="16.2" height="3.15892" rx="1.57946" fill="url(#paint6_linear_484_6)"/>
<rect x="144.963" y="59.5088" width="8.55277" height="3.15892" rx="1.57946" fill="url(#paint7_linear_484_6)"/>
<rect x="137.416" y="59.5088" width="5.73539" height="3.15892" rx="1.57946" fill="url(#paint8_linear_484_6)"/>
<defs>
<linearGradient id="paint0_linear_484_6" x1="122.599" y1="52.2517" x2="178.891" y2="50.7211" gradientUnits="userSpaceOnUse">
<stop stop-color="#08955E"/>
<stop offset="1" stop-color="#004BBB" stop-opacity="0.5"/>
</linearGradient>
<linearGradient id="paint1_linear_484_6" x1="147.282" y1="39.3124" x2="165.123" y2="36.6046" gradientUnits="userSpaceOnUse">
<stop stop-color="#08955E"/>
<stop offset="1" stop-color="#004BBB" stop-opacity="0.5"/>
</linearGradient>
<linearGradient id="paint2_linear_484_6" x1="136.731" y1="39.3124" x2="147.968" y2="38.2531" gradientUnits="userSpaceOnUse">
<stop stop-color="#08955E"/>
<stop offset="1" stop-color="#004BBB" stop-opacity="0.5"/>
</linearGradient>
<linearGradient id="paint3_linear_484_6" x1="136.971" y1="46.7784" x2="144.314" y2="46.3435" gradientUnits="userSpaceOnUse">
<stop stop-color="#08955E"/>
<stop offset="1" stop-color="#004BBB" stop-opacity="0.5"/>
</linearGradient>
<linearGradient id="paint4_linear_484_6" x1="147.946" y1="46.7784" x2="155.177" y2="46.3567" gradientUnits="userSpaceOnUse">
<stop stop-color="#08955E"/>
<stop offset="1" stop-color="#004BBB" stop-opacity="0.5"/>
</linearGradient>
<linearGradient id="paint5_linear_484_6" x1="136.855" y1="53.9676" x2="146.099" y2="53.2769" gradientUnits="userSpaceOnUse">
<stop stop-color="#08955E"/>
<stop offset="1" stop-color="#004BBB" stop-opacity="0.5"/>
</linearGradient>
<linearGradient id="paint6_linear_484_6" x1="147.282" y1="53.9091" x2="165.123" y2="51.2013" gradientUnits="userSpaceOnUse">
<stop stop-color="#08955E"/>
<stop offset="1" stop-color="#004BBB" stop-opacity="0.5"/>
</linearGradient>
<linearGradient id="paint7_linear_484_6" x1="144.381" y1="61.2067" x2="153.956" y2="60.4395" gradientUnits="userSpaceOnUse">
<stop stop-color="#08955E"/>
<stop offset="1" stop-color="#004BBB" stop-opacity="0.5"/>
</linearGradient>
<linearGradient id="paint8_linear_484_6" x1="137.026" y1="61.2067" x2="143.469" y2="60.8605" gradientUnits="userSpaceOnUse">
<stop stop-color="#08955E"/>
<stop offset="1" stop-color="#004BBB" stop-opacity="0.5"/>
</linearGradient>
</defs>
</svg>
