<svg width="228" height="108" viewBox="0 0 228 108" fill="none" xmlns="http://www.w3.org/2000/svg">
<g filter="url(#filter0_d_459_348)">
<rect x="4" width="220" height="100" rx="15" fill="white"/>
<path d="M84.4556 80.4225C84.5496 80.2922 84.7005 80.2149 84.8612 80.2149H91.2264C91.5025 80.2149 91.7264 80.4388 91.7264 80.7149V83.3276C91.7264 83.6037 91.5025 83.8276 91.2264 83.8276H82.977C82.5693 83.8276 82.333 83.3658 82.5715 83.0351L84.4556 80.4225Z" fill="#3FD0C9"/>
<path d="M99.0936 78.7067C99.1816 78.7507 99.2316 78.8187 99.2436 78.9107C99.2596 79.0027 99.2376 79.0867 99.1776 79.1627C99.1336 79.2227 99.0756 79.2567 99.0036 79.2647C98.9356 79.2727 98.8676 79.2587 98.7996 79.2227C98.6836 79.1627 98.5616 79.1147 98.4336 79.0787C98.3056 79.0427 98.1696 79.0247 98.0256 79.0247C97.7976 79.0247 97.5916 79.0627 97.4076 79.1387C97.2276 79.2107 97.0716 79.3167 96.9396 79.4567C96.8076 79.5927 96.7056 79.7547 96.6336 79.9427C96.5656 80.1307 96.5316 80.3387 96.5316 80.5667C96.5316 80.8187 96.5696 81.0427 96.6456 81.2387C96.7216 81.4307 96.8256 81.5947 96.9576 81.7307C97.0936 81.8627 97.2516 81.9627 97.4316 82.0307C97.6156 82.0947 97.8136 82.1267 98.0256 82.1267C98.1616 82.1267 98.2936 82.1107 98.4216 82.0787C98.5536 82.0467 98.6776 81.9987 98.7936 81.9347C98.8656 81.8987 98.9356 81.8867 99.0036 81.8987C99.0756 81.9067 99.1336 81.9407 99.1776 82.0007C99.2456 82.0847 99.2696 82.1707 99.2496 82.2587C99.2336 82.3427 99.1836 82.4067 99.0996 82.4507C98.9996 82.5067 98.8896 82.5547 98.7696 82.5947C98.6496 82.6347 98.5276 82.6667 98.4036 82.6907C98.2796 82.7147 98.1536 82.7267 98.0256 82.7267C97.7376 82.7267 97.4656 82.6787 97.2096 82.5827C96.9536 82.4867 96.7256 82.3467 96.5256 82.1627C96.3256 81.9787 96.1676 81.7527 96.0516 81.4847C95.9396 81.2167 95.8836 80.9107 95.8836 80.5667C95.8836 80.2587 95.9356 79.9747 96.0396 79.7147C96.1476 79.4507 96.2976 79.2247 96.4896 79.0367C96.6856 78.8447 96.9136 78.6967 97.1736 78.5927C97.4336 78.4847 97.7176 78.4307 98.0256 78.4307C98.2176 78.4307 98.4036 78.4547 98.5836 78.5027C98.7676 78.5507 98.9376 78.6187 99.0936 78.7067ZM103.754 80.5667C103.754 80.8707 103.704 81.1547 103.604 81.4187C103.504 81.6787 103.362 81.9067 103.178 82.1027C102.998 82.2987 102.784 82.4527 102.536 82.5647C102.288 82.6727 102.016 82.7267 101.72 82.7267C101.428 82.7267 101.158 82.6727 100.91 82.5647C100.662 82.4527 100.446 82.2987 100.262 82.1027C100.082 81.9067 99.9421 81.6787 99.8421 81.4187C99.7461 81.1547 99.6981 80.8707 99.6981 80.5667C99.6981 80.2627 99.7461 79.9807 99.8421 79.7207C99.9421 79.4567 100.082 79.2267 100.262 79.0307C100.446 78.8347 100.662 78.6827 100.91 78.5747C101.158 78.4627 101.428 78.4067 101.72 78.4067C102.016 78.4067 102.288 78.4627 102.536 78.5747C102.784 78.6827 102.998 78.8347 103.178 79.0307C103.362 79.2267 103.504 79.4567 103.604 79.7207C103.704 79.9807 103.754 80.2627 103.754 80.5667ZM103.106 80.5667C103.106 80.2707 103.046 80.0047 102.926 79.7687C102.81 79.5327 102.648 79.3467 102.44 79.2107C102.232 79.0747 101.992 79.0067 101.72 79.0067C101.452 79.0067 101.214 79.0747 101.006 79.2107C100.798 79.3467 100.636 79.5327 100.52 79.7687C100.404 80.0007 100.346 80.2667 100.346 80.5667C100.346 80.8627 100.404 81.1287 100.52 81.3647C100.636 81.6007 100.798 81.7867 101.006 81.9227C101.214 82.0587 101.452 82.1267 101.72 82.1267C101.992 82.1267 102.232 82.0587 102.44 81.9227C102.648 81.7867 102.81 81.6007 102.926 81.3647C103.046 81.1287 103.106 80.8627 103.106 80.5667ZM107.641 78.4667C107.721 78.4667 107.785 78.4947 107.833 78.5507C107.885 78.6027 107.911 78.6687 107.911 78.7487V82.3607C107.911 82.4487 107.881 82.5227 107.821 82.5827C107.765 82.6387 107.693 82.6667 107.605 82.6667C107.565 82.6667 107.521 82.6587 107.473 82.6427C107.429 82.6267 107.395 82.6047 107.371 82.5767L104.905 79.3787L105.043 79.3007V82.3907C105.043 82.4667 105.017 82.5327 104.965 82.5887C104.913 82.6407 104.847 82.6667 104.767 82.6667C104.683 82.6667 104.615 82.6407 104.563 82.5887C104.515 82.5327 104.491 82.4667 104.491 82.3907V78.7727C104.491 78.6807 104.521 78.6067 104.581 78.5507C104.641 78.4947 104.713 78.4667 104.797 78.4667C104.841 78.4667 104.887 78.4767 104.935 78.4967C104.987 78.5127 105.025 78.5387 105.049 78.5747L107.455 81.7067L107.365 81.7907V78.7487C107.365 78.6687 107.391 78.6027 107.443 78.5507C107.495 78.4947 107.561 78.4667 107.641 78.4667ZM110.181 82.7267C109.893 82.7267 109.637 82.6867 109.413 82.6067C109.189 82.5267 108.975 82.3947 108.771 82.2107C108.727 82.1787 108.693 82.1407 108.669 82.0967C108.649 82.0487 108.639 82.0007 108.639 81.9527C108.639 81.8767 108.667 81.8087 108.723 81.7487C108.779 81.6887 108.849 81.6587 108.933 81.6587C108.997 81.6587 109.057 81.6807 109.113 81.7247C109.265 81.8647 109.423 81.9707 109.587 82.0427C109.755 82.1147 109.951 82.1507 110.175 82.1507C110.335 82.1507 110.481 82.1247 110.613 82.0727C110.749 82.0207 110.857 81.9507 110.937 81.8627C111.017 81.7747 111.057 81.6727 111.057 81.5567C111.057 81.4127 111.015 81.2947 110.931 81.2027C110.851 81.1067 110.733 81.0287 110.577 80.9687C110.425 80.9047 110.241 80.8507 110.025 80.8067C109.825 80.7707 109.645 80.7207 109.485 80.6567C109.329 80.5927 109.195 80.5127 109.083 80.4167C108.971 80.3167 108.885 80.1987 108.825 80.0627C108.765 79.9267 108.735 79.7687 108.735 79.5887C108.735 79.3447 108.799 79.1347 108.927 78.9587C109.055 78.7827 109.229 78.6467 109.449 78.5507C109.669 78.4547 109.917 78.4067 110.193 78.4067C110.445 78.4067 110.681 78.4467 110.901 78.5267C111.121 78.6027 111.299 78.7067 111.435 78.8387C111.531 78.9227 111.579 79.0127 111.579 79.1087C111.579 79.1807 111.549 79.2487 111.489 79.3127C111.433 79.3727 111.367 79.4027 111.291 79.4027C111.235 79.4027 111.187 79.3867 111.147 79.3547C111.083 79.2867 110.997 79.2267 110.889 79.1747C110.781 79.1187 110.665 79.0727 110.541 79.0367C110.421 79.0007 110.305 78.9827 110.193 78.9827C110.013 78.9827 109.859 79.0087 109.731 79.0607C109.603 79.1087 109.505 79.1767 109.437 79.2647C109.369 79.3487 109.335 79.4487 109.335 79.5647C109.335 79.7007 109.373 79.8127 109.449 79.9007C109.529 79.9887 109.639 80.0607 109.779 80.1167C109.919 80.1687 110.079 80.2167 110.259 80.2607C110.479 80.3087 110.675 80.3627 110.847 80.4227C111.023 80.4827 111.171 80.5607 111.291 80.6567C111.411 80.7487 111.503 80.8647 111.567 81.0047C111.631 81.1447 111.663 81.3187 111.663 81.5267C111.663 81.7667 111.595 81.9767 111.459 82.1567C111.323 82.3367 111.143 82.4767 110.919 82.5767C110.699 82.6767 110.453 82.7267 110.181 82.7267ZM115.383 78.4607C115.471 78.4607 115.541 78.4907 115.593 78.5507C115.645 78.6067 115.671 78.6787 115.671 78.7667V81.0407C115.671 81.3607 115.601 81.6467 115.461 81.8987C115.321 82.1507 115.129 82.3487 114.885 82.4927C114.641 82.6327 114.359 82.7027 114.039 82.7027C113.723 82.7027 113.441 82.6327 113.193 82.4927C112.949 82.3487 112.755 82.1507 112.611 81.8987C112.471 81.6467 112.401 81.3607 112.401 81.0407V78.7667C112.401 78.6787 112.431 78.6067 112.491 78.5507C112.551 78.4907 112.629 78.4607 112.725 78.4607C112.801 78.4607 112.869 78.4907 112.929 78.5507C112.993 78.6067 113.025 78.6787 113.025 78.7667V81.0407C113.025 81.2527 113.071 81.4387 113.163 81.5987C113.259 81.7547 113.385 81.8787 113.541 81.9707C113.697 82.0587 113.863 82.1027 114.039 82.1027C114.231 82.1027 114.407 82.0587 114.567 81.9707C114.727 81.8787 114.855 81.7547 114.951 81.5987C115.051 81.4387 115.101 81.2527 115.101 81.0407V78.7667C115.101 78.6787 115.125 78.6067 115.173 78.5507C115.225 78.4907 115.295 78.4607 115.383 78.4607ZM118.971 82.0787C119.055 82.0787 119.125 82.1067 119.181 82.1627C119.241 82.2187 119.271 82.2887 119.271 82.3727C119.271 82.4567 119.241 82.5267 119.181 82.5827C119.125 82.6387 119.055 82.6667 118.971 82.6667H116.955C116.867 82.6667 116.793 82.6387 116.733 82.5827C116.677 82.5227 116.649 82.4487 116.649 82.3607V78.7727C116.649 78.6847 116.679 78.6127 116.739 78.5567C116.799 78.4967 116.877 78.4667 116.973 78.4667C117.053 78.4667 117.123 78.4967 117.183 78.5567C117.247 78.6127 117.279 78.6847 117.279 78.7727V82.1807L117.153 82.0787H118.971ZM120.812 82.6667C120.716 82.6667 120.638 82.6387 120.578 82.5827C120.522 82.5227 120.494 82.4487 120.494 82.3607V78.7667H121.136V82.3607C121.136 82.4487 121.104 82.5227 121.04 82.5827C120.98 82.6387 120.904 82.6667 120.812 82.6667ZM119.45 79.0427C119.366 79.0427 119.294 79.0167 119.234 78.9647C119.174 78.9087 119.144 78.8367 119.144 78.7487C119.144 78.6647 119.174 78.5967 119.234 78.5447C119.294 78.4927 119.366 78.4667 119.45 78.4667H122.18C122.264 78.4667 122.334 78.4947 122.39 78.5507C122.45 78.6027 122.48 78.6707 122.48 78.7547C122.48 78.8427 122.45 78.9127 122.39 78.9647C122.334 79.0167 122.264 79.0427 122.18 79.0427H119.45ZM123.789 82.3607C123.785 82.4487 123.751 82.5227 123.687 82.5827C123.627 82.6387 123.555 82.6667 123.471 82.6667C123.379 82.6667 123.303 82.6387 123.243 82.5827C123.187 82.5227 123.159 82.4487 123.159 82.3607V78.7727C123.159 78.6847 123.189 78.6127 123.249 78.5567C123.309 78.4967 123.387 78.4667 123.483 78.4667C123.563 78.4667 123.633 78.4967 123.693 78.5567C123.757 78.6127 123.789 78.6847 123.789 78.7727V82.3607ZM127.908 78.4667C127.988 78.4667 128.052 78.4947 128.1 78.5507C128.152 78.6027 128.178 78.6687 128.178 78.7487V82.3607C128.178 82.4487 128.148 82.5227 128.088 82.5827C128.032 82.6387 127.96 82.6667 127.872 82.6667C127.832 82.6667 127.788 82.6587 127.74 82.6427C127.696 82.6267 127.662 82.6047 127.638 82.5767L125.172 79.3787L125.31 79.3007V82.3907C125.31 82.4667 125.284 82.5327 125.232 82.5887C125.18 82.6407 125.114 82.6667 125.034 82.6667C124.95 82.6667 124.882 82.6407 124.83 82.5887C124.782 82.5327 124.758 82.4667 124.758 82.3907V78.7727C124.758 78.6807 124.788 78.6067 124.848 78.5507C124.908 78.4947 124.98 78.4667 125.064 78.4667C125.108 78.4667 125.154 78.4767 125.202 78.4967C125.254 78.5127 125.292 78.5387 125.316 78.5747L127.722 81.7067L127.632 81.7907V78.7487C127.632 78.6687 127.658 78.6027 127.71 78.5507C127.762 78.4947 127.828 78.4667 127.908 78.4667ZM131.109 82.7267C130.805 82.7267 130.521 82.6727 130.257 82.5647C129.993 82.4527 129.761 82.2987 129.561 82.1027C129.365 81.9027 129.211 81.6727 129.099 81.4127C128.987 81.1527 128.931 80.8707 128.931 80.5667C128.931 80.2627 128.987 79.9807 129.099 79.7207C129.211 79.4607 129.365 79.2327 129.561 79.0367C129.761 78.8367 129.993 78.6827 130.257 78.5747C130.521 78.4627 130.805 78.4067 131.109 78.4067C131.305 78.4067 131.495 78.4287 131.679 78.4727C131.863 78.5167 132.029 78.5807 132.177 78.6647C132.229 78.6927 132.267 78.7307 132.291 78.7787C132.315 78.8227 132.327 78.8667 132.327 78.9107C132.327 78.9947 132.299 79.0687 132.243 79.1327C132.191 79.1927 132.125 79.2227 132.045 79.2227C132.017 79.2227 131.987 79.2187 131.955 79.2107C131.927 79.2027 131.901 79.1927 131.877 79.1807C131.765 79.1247 131.645 79.0827 131.517 79.0547C131.389 79.0227 131.253 79.0067 131.109 79.0067C130.821 79.0067 130.561 79.0767 130.329 79.2167C130.097 79.3527 129.913 79.5387 129.777 79.7747C129.645 80.0107 129.579 80.2747 129.579 80.5667C129.579 80.8547 129.645 81.1187 129.777 81.3587C129.913 81.5947 130.097 81.7827 130.329 81.9227C130.561 82.0587 130.821 82.1267 131.109 82.1267C131.249 82.1267 131.397 82.1107 131.553 82.0787C131.709 82.0427 131.841 81.9967 131.949 81.9407L131.901 82.1027V80.9627L131.997 81.0467H131.211C131.123 81.0467 131.049 81.0187 130.989 80.9627C130.933 80.9067 130.905 80.8347 130.905 80.7467C130.905 80.6587 130.933 80.5867 130.989 80.5307C131.049 80.4747 131.123 80.4467 131.211 80.4467H132.249C132.333 80.4467 132.403 80.4767 132.459 80.5367C132.519 80.5927 132.549 80.6647 132.549 80.7527V82.0847C132.549 82.1487 132.533 82.2027 132.501 82.2467C132.469 82.2907 132.433 82.3267 132.393 82.3547C132.213 82.4667 132.013 82.5567 131.793 82.6247C131.577 82.6927 131.349 82.7267 131.109 82.7267Z" fill="#00619A"/>
<path d="M144.544 80.4225C144.45 80.2922 144.3 80.2149 144.139 80.2149H137.774C137.497 80.2149 137.274 80.4388 137.274 80.7149V83.3276C137.274 83.6037 137.497 83.8276 137.774 83.8276H146.023C146.431 83.8276 146.667 83.3658 146.429 83.0351L144.544 80.4225Z" fill="#3FD0C9"/>
<path d="M92.9292 65.5194C93.4092 65.5194 93.8359 65.6094 94.2092 65.7894C94.5825 65.9694 94.8959 66.2228 95.1492 66.5494C95.4092 66.8694 95.6025 67.2428 95.7292 67.6694C95.8625 68.0894 95.9292 68.5394 95.9292 69.0194C95.9292 69.6661 95.8125 70.2561 95.5792 70.7894C95.3459 71.3161 95.0059 71.7361 94.5592 72.0494C94.1192 72.3628 93.5759 72.5194 92.9292 72.5194H90.5392C90.3659 72.5194 90.2192 72.4628 90.0992 72.3494C89.9859 72.2294 89.9292 72.0828 89.9292 71.9094V66.1294C89.9292 65.9561 89.9859 65.8128 90.0992 65.6994C90.2192 65.5794 90.3659 65.5194 90.5392 65.5194H92.9292ZM92.8292 71.3694C93.2492 71.3694 93.5925 71.2628 93.8592 71.0494C94.1259 70.8294 94.3192 70.5428 94.4392 70.1894C94.5659 69.8294 94.6292 69.4394 94.6292 69.0194C94.6292 68.7061 94.5925 68.4094 94.5192 68.1294C94.4525 67.8428 94.3459 67.5928 94.1992 67.3794C94.0525 67.1594 93.8659 66.9861 93.6392 66.8594C93.4125 66.7328 93.1425 66.6694 92.8292 66.6694H91.0792L91.1792 66.5794V71.4794L91.1192 71.3694H92.8292ZM97.6876 65.5194H101.038C101.211 65.5194 101.354 65.5761 101.468 65.6894C101.588 65.7961 101.648 65.9361 101.648 66.1094C101.648 66.2761 101.588 66.4128 101.468 66.5194C101.354 66.6194 101.211 66.6694 101.038 66.6694H98.2376L98.3276 66.4994V68.4494L98.2476 68.3694H100.588C100.761 68.3694 100.904 68.4261 101.018 68.5394C101.138 68.6461 101.198 68.7861 101.198 68.9594C101.198 69.1261 101.138 69.2628 101.018 69.3694C100.904 69.4694 100.761 69.5194 100.588 69.5194H98.2776L98.3276 69.4394V71.4594L98.2476 71.3694H101.038C101.211 71.3694 101.354 71.4294 101.468 71.5494C101.588 71.6628 101.648 71.7961 101.648 71.9494C101.648 72.1161 101.588 72.2528 101.468 72.3594C101.354 72.4661 101.211 72.5194 101.038 72.5194H97.6876C97.5143 72.5194 97.3676 72.4628 97.2476 72.3494C97.1343 72.2294 97.0776 72.0828 97.0776 71.9094V66.1294C97.0776 65.9561 97.1343 65.8128 97.2476 65.6994C97.3676 65.5794 97.5143 65.5194 97.6876 65.5194ZM107.91 65.4994C108.077 65.4994 108.22 65.5561 108.34 65.6694C108.467 65.7761 108.53 65.9128 108.53 66.0794C108.53 66.1661 108.51 66.2561 108.47 66.3494L106 72.1294C105.94 72.2628 105.854 72.3628 105.74 72.4294C105.634 72.4894 105.524 72.5194 105.41 72.5194C105.304 72.5128 105.2 72.4794 105.1 72.4194C105 72.3528 104.924 72.2594 104.87 72.1394L102.4 66.3394C102.38 66.2994 102.367 66.2594 102.36 66.2194C102.354 66.1728 102.35 66.1294 102.35 66.0894C102.35 65.8961 102.42 65.7494 102.56 65.6494C102.7 65.5428 102.834 65.4894 102.96 65.4894C103.214 65.4894 103.397 65.6194 103.51 65.8794L105.7 71.0294L105.35 71.0394L107.36 65.8794C107.474 65.6261 107.657 65.4994 107.91 65.4994ZM112.578 65.5194C113.058 65.5194 113.484 65.6094 113.858 65.7894C114.231 65.9694 114.544 66.2228 114.798 66.5494C115.058 66.8694 115.251 67.2428 115.378 67.6694C115.511 68.0894 115.578 68.5394 115.578 69.0194C115.578 69.6661 115.461 70.2561 115.228 70.7894C114.994 71.3161 114.654 71.7361 114.208 72.0494C113.768 72.3628 113.224 72.5194 112.578 72.5194H110.188C110.014 72.5194 109.868 72.4628 109.748 72.3494C109.634 72.2294 109.578 72.0828 109.578 71.9094V66.1294C109.578 65.9561 109.634 65.8128 109.748 65.6994C109.868 65.5794 110.014 65.5194 110.188 65.5194H112.578ZM112.478 71.3694C112.898 71.3694 113.241 71.2628 113.508 71.0494C113.774 70.8294 113.968 70.5428 114.088 70.1894C114.214 69.8294 114.278 69.4394 114.278 69.0194C114.278 68.7061 114.241 68.4094 114.168 68.1294C114.101 67.8428 113.994 67.5928 113.848 67.3794C113.701 67.1594 113.514 66.9861 113.288 66.8594C113.061 66.7328 112.791 66.6694 112.478 66.6694H110.728L110.828 66.5794V71.4794L110.768 71.3694H112.478ZM119.247 67.0894L117.087 72.1694C117.041 72.2961 116.967 72.3961 116.867 72.4694C116.774 72.5361 116.671 72.5694 116.557 72.5694C116.377 72.5694 116.244 72.5194 116.157 72.4194C116.071 72.3194 116.027 72.1961 116.027 72.0494C116.027 71.9894 116.037 71.9261 116.057 71.8594L118.547 65.8794C118.601 65.7461 118.681 65.6428 118.787 65.5694C118.901 65.4961 119.021 65.4661 119.147 65.4794C119.267 65.4794 119.377 65.5161 119.477 65.5894C119.584 65.6561 119.661 65.7528 119.707 65.8794L122.167 71.7394C122.201 71.8261 122.217 71.9061 122.217 71.9794C122.217 72.1594 122.157 72.3028 122.037 72.4094C121.924 72.5161 121.797 72.5694 121.657 72.5694C121.537 72.5694 121.427 72.5328 121.327 72.4594C121.234 72.3861 121.161 72.2861 121.107 72.1594L118.957 67.1494L119.247 67.0894ZM117.397 70.9494L117.947 69.7994H120.647L120.837 70.9494H117.397ZM124.936 72.5194C124.749 72.5194 124.596 72.4628 124.476 72.3494C124.356 72.2294 124.296 72.0828 124.296 71.9094V66.1094H125.596V71.9094C125.596 72.0828 125.533 72.2294 125.406 72.3494C125.286 72.4628 125.129 72.5194 124.936 72.5194ZM122.726 66.6694C122.553 66.6694 122.406 66.6161 122.286 66.5094C122.173 66.4028 122.116 66.2628 122.116 66.0894C122.116 65.9161 122.173 65.7794 122.286 65.6794C122.406 65.5728 122.553 65.5194 122.726 65.5194H127.166C127.339 65.5194 127.483 65.5728 127.596 65.6794C127.716 65.7861 127.776 65.9261 127.776 66.0994C127.776 66.2728 127.716 66.4128 127.596 66.5194C127.483 66.6194 127.339 66.6694 127.166 66.6694H122.726ZM129.436 65.5194H132.786C132.959 65.5194 133.102 65.5761 133.216 65.6894C133.336 65.7961 133.396 65.9361 133.396 66.1094C133.396 66.2761 133.336 66.4128 133.216 66.5194C133.102 66.6194 132.959 66.6694 132.786 66.6694H129.986L130.076 66.4994V68.4494L129.996 68.3694H132.336C132.509 68.3694 132.652 68.4261 132.766 68.5394C132.886 68.6461 132.946 68.7861 132.946 68.9594C132.946 69.1261 132.886 69.2628 132.766 69.3694C132.652 69.4694 132.509 69.5194 132.336 69.5194H130.026L130.076 69.4394V71.4594L129.996 71.3694H132.786C132.959 71.3694 133.102 71.4294 133.216 71.5494C133.336 71.6628 133.396 71.7961 133.396 71.9494C133.396 72.1161 133.336 72.2528 133.216 72.3594C133.102 72.4661 132.959 72.5194 132.786 72.5194H129.436C129.262 72.5194 129.116 72.4628 128.996 72.3494C128.882 72.2294 128.826 72.0828 128.826 71.9094V66.1294C128.826 65.9561 128.882 65.8128 128.996 65.6994C129.116 65.5794 129.262 65.5194 129.436 65.5194ZM137.438 65.5194C137.785 65.5194 138.108 65.6194 138.408 65.8194C138.715 66.0194 138.962 66.2894 139.148 66.6294C139.335 66.9694 139.428 67.3494 139.428 67.7694C139.428 68.1828 139.335 68.5594 139.148 68.8994C138.962 69.2394 138.715 69.5128 138.408 69.7194C138.108 69.9194 137.785 70.0194 137.438 70.0194H135.598L135.698 69.8394V71.9094C135.698 72.0828 135.645 72.2294 135.538 72.3494C135.432 72.4628 135.292 72.5194 135.118 72.5194C134.952 72.5194 134.815 72.4628 134.708 72.3494C134.602 72.2294 134.548 72.0828 134.548 71.9094V66.1294C134.548 65.9561 134.605 65.8128 134.718 65.6994C134.838 65.5794 134.985 65.5194 135.158 65.5194H137.438ZM137.438 68.8794C137.565 68.8794 137.688 68.8261 137.808 68.7194C137.928 68.6128 138.028 68.4761 138.108 68.3094C138.188 68.1361 138.228 67.9561 138.228 67.7694C138.228 67.5761 138.188 67.3961 138.108 67.2294C138.028 67.0628 137.928 66.9294 137.808 66.8294C137.688 66.7228 137.565 66.6694 137.438 66.6694H135.578L135.698 66.4894V69.0394L135.588 68.8794H137.438Z" fill="#00619A"/>
<path d="M114.342 17.4796L114.715 16.0567C114.471 15.9811 114.213 15.9811 113.969 16.0567L114.342 17.4796ZM95.2783 23.4084L94.9052 21.9855C94.5961 22.0814 94.3281 22.2932 94.1487 22.5835C93.9693 22.8737 93.89 23.2237 93.9248 23.5715L95.2783 23.4084ZM98.0017 50.0881L96.6481 50.2511C96.6732 50.497 96.7543 50.7321 96.8842 50.935C97.014 51.138 97.1885 51.3024 97.3916 51.4132L98.0017 50.0881ZM114.342 58.9813L113.732 60.3064C113.921 60.4097 114.13 60.4634 114.342 60.4634C114.554 60.4634 114.763 60.4097 114.952 60.3064L114.342 58.9813ZM130.682 50.0881L131.292 51.4132C131.496 51.3024 131.67 51.138 131.8 50.935C131.93 50.7321 132.011 50.497 132.036 50.2511L130.682 50.0881ZM133.406 23.4084L134.759 23.5715C134.795 23.2232 134.716 22.8726 134.536 22.5817C134.357 22.2908 134.088 22.0785 133.779 21.9826L133.406 23.4084ZM113.969 16.0567L94.9052 21.9855L95.6514 24.8314L114.715 18.9026L113.969 16.0567ZM93.9248 23.5685L96.6481 50.2482L99.3552 49.9221L96.6318 23.2424L93.9248 23.5685ZM97.3916 51.4132L113.732 60.3064L114.952 57.6532L98.6117 48.76L97.3916 51.4132ZM114.952 60.3064L131.292 51.4132L130.072 48.76L113.732 57.6532L114.952 60.3064ZM132.036 50.2482L134.759 23.5685L132.052 23.2424L129.329 49.9221L132.036 50.2482ZM133.779 21.9796L114.715 16.0508L113.969 18.9026L133.033 24.8314L133.779 21.9796Z" fill="url(#paint0_linear_459_348)"/>
<rect x="112.205" y="27.9404" width="13.2356" height="2.58089" rx="1.29044" fill="url(#paint1_linear_459_348)"/>
<rect x="103.244" y="27.9403" width="8.22088" height="2.58089" rx="1.29044" fill="url(#paint2_linear_459_348)"/>
<rect x="103.244" y="33.9922" width="5.34357" height="2.66988" rx="1.33494" fill="url(#paint3_linear_459_348)"/>
<rect x="112.205" y="33.9922" width="5.26136" height="2.66988" rx="1.33494" fill="url(#paint4_linear_459_348)"/>
<rect x="103.244" y="39.866" width="6.74112" height="2.66988" rx="1.33494" fill="url(#paint5_linear_459_348)"/>
<rect x="112.205" y="39.866" width="13.2356" height="2.58089" rx="1.29044" fill="url(#paint6_linear_459_348)"/>
<rect x="109.41" y="45.8283" width="6.98775" height="2.58089" rx="1.29044" fill="url(#paint7_linear_459_348)"/>
<rect x="103.244" y="45.8283" width="4.6859" height="2.58089" rx="1.29044" fill="url(#paint8_linear_459_348)"/>
</g>
<defs>
<filter id="filter0_d_459_348" x="0" y="0" width="228" height="108" filterUnits="userSpaceOnUse" color-interpolation-filters="sRGB">
<feFlood flood-opacity="0" result="BackgroundImageFix"/>
<feColorMatrix in="SourceAlpha" type="matrix" values="0 0 0 0 0 0 0 0 0 0 0 0 0 0 0 0 0 0 127 0" result="hardAlpha"/>
<feOffset dy="4"/>
<feGaussianBlur stdDeviation="2"/>
<feComposite in2="hardAlpha" operator="out"/>
<feColorMatrix type="matrix" values="0 0 0 0 0 0 0 0 0 0 0 0 0 0 0 0 0 0 0.25 0"/>
<feBlend mode="normal" in2="BackgroundImageFix" result="effect1_dropShadow_459_348"/>
<feBlend mode="normal" in="SourceGraphic" in2="effect1_dropShadow_459_348" result="shape"/>
</filter>
<linearGradient id="paint0_linear_459_348" x1="91.1378" y1="39.8991" x2="137.13" y2="38.6486" gradientUnits="userSpaceOnUse">
<stop stop-color="#08955E"/>
<stop offset="1" stop-color="#004BBB" stop-opacity="0.5"/>
</linearGradient>
<linearGradient id="paint1_linear_459_348" x1="111.304" y1="29.3276" x2="125.881" y2="27.1153" gradientUnits="userSpaceOnUse">
<stop stop-color="#08955E"/>
<stop offset="1" stop-color="#004BBB" stop-opacity="0.5"/>
</linearGradient>
<linearGradient id="paint2_linear_459_348" x1="102.684" y1="29.3275" x2="111.865" y2="28.4621" gradientUnits="userSpaceOnUse">
<stop stop-color="#08955E"/>
<stop offset="1" stop-color="#004BBB" stop-opacity="0.5"/>
</linearGradient>
<linearGradient id="paint3_linear_459_348" x1="102.88" y1="35.4272" x2="108.88" y2="35.0719" gradientUnits="userSpaceOnUse">
<stop stop-color="#08955E"/>
<stop offset="1" stop-color="#004BBB" stop-opacity="0.5"/>
</linearGradient>
<linearGradient id="paint4_linear_459_348" x1="111.847" y1="35.4272" x2="117.754" y2="35.0827" gradientUnits="userSpaceOnUse">
<stop stop-color="#08955E"/>
<stop offset="1" stop-color="#004BBB" stop-opacity="0.5"/>
</linearGradient>
<linearGradient id="paint5_linear_459_348" x1="102.785" y1="41.3011" x2="110.338" y2="40.7367" gradientUnits="userSpaceOnUse">
<stop stop-color="#08955E"/>
<stop offset="1" stop-color="#004BBB" stop-opacity="0.5"/>
</linearGradient>
<linearGradient id="paint6_linear_459_348" x1="111.304" y1="41.2533" x2="125.881" y2="39.0409" gradientUnits="userSpaceOnUse">
<stop stop-color="#08955E"/>
<stop offset="1" stop-color="#004BBB" stop-opacity="0.5"/>
</linearGradient>
<linearGradient id="paint7_linear_459_348" x1="108.934" y1="47.2155" x2="116.757" y2="46.5887" gradientUnits="userSpaceOnUse">
<stop stop-color="#08955E"/>
<stop offset="1" stop-color="#004BBB" stop-opacity="0.5"/>
</linearGradient>
<linearGradient id="paint8_linear_459_348" x1="102.925" y1="47.2155" x2="108.189" y2="46.9327" gradientUnits="userSpaceOnUse">
<stop stop-color="#08955E"/>
<stop offset="1" stop-color="#004BBB" stop-opacity="0.5"/>
</linearGradient>
</defs>
</svg>
