<svg width="25" height="24" viewBox="0 0 25 24" fill="none" xmlns="http://www.w3.org/2000/svg">
<path d="M10.7898 3.8602L2.31978 18.0002C2.14514 18.3026 2.05274 18.6455 2.05177 18.9947C2.05079 19.3439 2.14127 19.6873 2.3142 19.9907C2.48714 20.2941 2.7365 20.547 3.03748 20.7241C3.33847 20.9012 3.68058 20.9964 4.02978 21.0002H20.9698C21.319 20.9964 21.6611 20.9012 21.9621 20.7241C22.2631 20.547 22.5124 20.2941 22.6854 19.9907C22.8583 19.6873 22.9488 19.3439 22.9478 18.9947C22.9468 18.6455 22.8544 18.3026 22.6798 18.0002L14.2098 3.8602C14.0315 3.56631 13.7805 3.32332 13.481 3.15469C13.1814 2.98605 12.8435 2.89746 12.4998 2.89746C12.156 2.89746 11.8181 2.98605 11.5186 3.15469C11.2191 3.32332 10.968 3.56631 10.7898 3.8602Z" stroke="black" stroke-width="2" stroke-linecap="round" stroke-linejoin="round"/>
<path d="M12.5 9V13" stroke="black" stroke-width="2" stroke-linecap="round" stroke-linejoin="round"/>
<path d="M12.5 17H12.51" stroke="black" stroke-width="2" stroke-linecap="round" stroke-linejoin="round"/>
</svg>
