<svg width="25" height="24" viewBox="0 0 25 24" fill="none" xmlns="http://www.w3.org/2000/svg">
<path d="M12.5 16C14.7091 16 16.5 14.2091 16.5 12C16.5 9.79086 14.7091 8 12.5 8C10.2909 8 8.5 9.79086 8.5 12C8.5 14.2091 10.2909 16 12.5 16Z" stroke="black" stroke-width="2" stroke-linecap="round" stroke-linejoin="round"/>
<path d="M16.5 7.99987V12.9999C16.5 13.7955 16.8161 14.5586 17.3787 15.1212C17.9413 15.6838 18.7044 15.9999 19.5 15.9999C20.2957 15.9999 21.0587 15.6838 21.6213 15.1212C22.1839 14.5586 22.5 13.7955 22.5 12.9999V11.9999C22.4999 9.7429 21.7362 7.55235 20.3333 5.7844C18.9303 4.01645 16.9706 2.77509 14.7726 2.26217C12.5747 1.74924 10.2679 1.99491 8.22736 2.95923C6.18677 3.92356 4.53241 5.54982 3.53327 7.57359C2.53413 9.59736 2.24898 11.8996 2.72418 14.106C3.19938 16.3124 4.40699 18.2931 6.15064 19.7261C7.89429 21.1592 10.0714 21.9602 12.3281 21.999C14.5847 22.0378 16.7881 21.3121 18.58 19.9399" stroke="black" stroke-width="2" stroke-linecap="round" stroke-linejoin="round"/>
</svg>
