<svg width="40" height="41" viewBox="0 0 40 41" fill="none" xmlns="http://www.w3.org/2000/svg">
<path d="M12.3315 11.9101L31.4826 27.9797C31.7365 28.1928 31.8954 28.4981 31.9243 28.8284C31.9532 29.1586 31.8497 29.4868 31.6366 29.7408C31.4235 29.9947 31.1183 30.1536 30.788 30.1825C30.4578 30.2114 30.1296 30.108 29.8756 29.8949L10.7245 13.8252C10.4705 13.6121 10.3116 13.3068 10.2827 12.9766C10.2538 12.6463 10.3573 12.3181 10.5704 12.0641C10.7835 11.8102 11.0888 11.6513 11.419 11.6224C11.7493 11.5935 12.0775 11.697 12.3315 11.9101Z" fill="#2A2A2A"/>
<path d="M11.9245 13.2006L13.204 27.8047C13.2329 28.1354 13.1293 28.464 12.9159 28.7183C12.7025 28.9726 12.3969 29.1317 12.0662 29.1606C11.7355 29.1895 11.4069 29.0859 11.1526 28.8725C10.8984 28.6592 10.7393 28.3535 10.7103 28.0229L9.32369 12.1735C9.30915 12.0097 9.32706 11.8447 9.37641 11.6879C9.42575 11.531 9.50555 11.3855 9.61123 11.2595C9.71692 11.1336 9.84642 11.0297 9.9923 10.9539C10.1382 10.878 10.2976 10.8317 10.4614 10.8176L26.3108 9.43097C26.6415 9.40204 26.9701 9.50565 27.2244 9.71902C27.4786 9.93239 27.6377 10.238 27.6667 10.5687C27.6956 10.8994 27.592 11.228 27.3786 11.4823C27.1653 11.7366 26.8596 11.8957 26.5289 11.9246L11.9245 13.2006Z" fill="#2A2A2A"/>
</svg>
