<svg width="24" height="24" viewBox="0 0 24 24" fill="none" xmlns="http://www.w3.org/2000/svg">
<g clip-path="url(#clip0_960_718)">
<path d="M12 0C5.37188 0 0 5.37188 0 12C0 18.6281 5.37188 24 12 24C18.6281 24 24 18.6281 24 12C24 5.37188 18.6281 0 12 0ZM19.4906 19.4859C18.5156 20.4609 17.3859 21.225 16.125 21.7547C14.8219 22.3078 13.4344 22.5844 12 22.5844C10.5703 22.5844 9.18281 22.3031 7.875 21.7547C6.61406 21.2203 5.47969 20.4563 4.50937 19.4859C3.53437 18.5109 2.77031 17.3812 2.24062 16.1203C1.6875 14.8172 1.40625 13.4297 1.40625 12C1.40625 10.5703 1.6875 9.18281 2.23594 7.875C2.77031 6.61406 3.53437 5.47969 4.50469 4.50937C5.48437 3.53437 6.61406 2.77031 7.875 2.23594C9.18281 1.6875 10.5703 1.40625 12 1.40625C13.4297 1.40625 14.8172 1.6875 16.125 2.23594C17.3859 2.77031 18.5203 3.53437 19.4906 4.50469C20.4656 5.47969 21.2297 6.60937 21.7594 7.87031C22.3125 9.17344 22.5891 10.5609 22.5891 11.9953C22.5891 13.425 22.3078 14.8125 21.7594 16.1203C21.225 17.3812 20.4609 18.5156 19.4906 19.4859Z" fill="white"/>
<path d="M16.8471 8.54541H13.6689V9.46885H16.8471V8.54541Z" fill="white"/>
<path d="M17.5123 11.053C17.2639 10.6827 16.9498 10.4108 16.5654 10.2421C16.1857 10.0686 15.7545 9.98427 15.2717 9.98895C14.4701 9.98895 13.8186 10.2421 13.3123 10.7483C12.8107 11.2546 12.5576 11.9811 12.5576 12.9327C12.5576 13.9452 12.8389 14.6765 13.3967 15.1265C13.9545 15.5765 14.5967 15.8015 15.3279 15.8015C16.2139 15.8015 16.8982 15.5343 17.3904 14.9999C17.7045 14.6624 17.8826 14.3296 17.9201 14.0061H16.4576C16.3732 14.1702 16.2748 14.2968 16.1623 14.3858C15.9561 14.5546 15.6889 14.639 15.3654 14.639C15.0561 14.639 14.7936 14.5686 14.5732 14.4327C14.2123 14.2124 14.0248 13.8233 14.0014 13.2749H17.9951C18.0045 12.8015 17.9857 12.4405 17.9482 12.1874C17.8826 11.7561 17.7373 11.3765 17.5123 11.053ZM14.0389 12.328C14.0951 11.9718 14.2217 11.6905 14.4232 11.4796C14.6248 11.2733 14.9107 11.1655 15.2764 11.1655C15.6139 11.1655 15.8998 11.264 16.1295 11.4608C16.3545 11.6577 16.4811 11.9483 16.5092 12.328H14.0389Z" fill="white"/>
<path d="M10.9359 11.6391C11.1844 11.5125 11.3766 11.3719 11.5031 11.2172C11.7328 10.9407 11.8453 10.575 11.8453 10.125C11.8453 9.68442 11.7328 9.30474 11.5078 8.99067C11.1281 8.47505 10.4859 8.21255 9.58594 8.19849H6V15.6188H9.3375C9.71719 15.6188 10.0641 15.586 10.3875 15.5204C10.7109 15.45 10.9922 15.3282 11.2266 15.1454C11.4375 14.9907 11.6109 14.7938 11.7516 14.5641C11.9766 14.2172 12.0844 13.8235 12.0844 13.3829C12.0844 12.9563 11.9859 12.5954 11.7938 12.2954C11.6016 11.9954 11.3156 11.7797 10.9359 11.6391ZM7.47656 9.48755H9.08906C9.44531 9.48755 9.73594 9.52974 9.96563 9.60474C10.2328 9.71724 10.3641 9.94224 10.3641 10.2891C10.3641 10.5985 10.2656 10.8188 10.0641 10.9407C9.8625 11.0625 9.60469 11.1235 9.28125 11.1235H7.47656V9.48755ZM10.0312 14.1938C9.85313 14.2829 9.60469 14.325 9.28125 14.325H7.47656V12.3469H9.30469C9.62344 12.3516 9.86719 12.3938 10.0453 12.4735C10.3641 12.6188 10.5187 12.886 10.5187 13.2704C10.5187 13.725 10.3594 14.0297 10.0312 14.1938Z" fill="white"/>
</g>
<defs>
<clipPath id="clip0_960_718">
<rect width="24" height="24" fill="white"/>
</clipPath>
</defs>
</svg>
