<svg width="25" height="24" viewBox="0 0 25 24" fill="none" xmlns="http://www.w3.org/2000/svg">
<path d="M14.2295 21C14.0537 21.3031 13.8014 21.5547 13.4978 21.7295C13.1941 21.9044 12.8499 21.9965 12.4995 21.9965C12.1492 21.9965 11.8049 21.9044 11.5013 21.7295C11.1977 21.5547 10.9453 21.3031 10.7695 21" stroke="black" stroke-width="2" stroke-linecap="round" stroke-linejoin="round"/>
<path d="M19.1303 13C18.6855 11.3714 18.4734 9.68804 18.5003 8" stroke="black" stroke-width="2" stroke-linecap="round" stroke-linejoin="round"/>
<path d="M6.76 6.25977C6.58627 6.82338 6.49861 7.40999 6.5 7.99977C6.5 14.9998 3.5 16.9998 3.5 16.9998H17.5" stroke="black" stroke-width="2" stroke-linecap="round" stroke-linejoin="round"/>
<path d="M18.4999 8.00011C18.5015 6.91318 18.2079 5.84622 17.6503 4.91321C17.0927 3.98019 16.2921 3.21617 15.334 2.70275C14.376 2.18934 13.2965 1.94581 12.2108 1.99818C11.1251 2.05056 10.0741 2.39686 9.16992 3.00011" stroke="black" stroke-width="2" stroke-linecap="round" stroke-linejoin="round"/>
<path d="M1.5 1L23.5 23" stroke="black" stroke-width="2" stroke-linecap="round" stroke-linejoin="round"/>
</svg>
