<svg width="15" height="15" viewBox="0 0 15 15" fill="none" xmlns="http://www.w3.org/2000/svg">
<path d="M0 13.0659C0 14.1342 0.865957 15 1.93412 15H13.0658C14.1342 15 15 14.134 15 13.0659V1.93418C15 0.86584 14.134 0 13.0659 0H1.93418C0.86584 0 0 0.865957 0 1.93412V13.0659Z" fill="#563D7C"/>
<path d="M6.2202 6.63504V4.51084H8.08998C8.26811 4.51084 8.43979 4.52566 8.60514 4.55537C8.77049 4.58502 8.9168 4.63799 9.044 4.71434C9.17115 4.79068 9.27293 4.89668 9.34928 5.03232C9.42557 5.16803 9.46377 5.34188 9.46377 5.55381C9.46377 5.93543 9.34928 6.21105 9.12029 6.38063C8.89137 6.55025 8.59881 6.63504 8.24262 6.63504H6.2202ZM4.22314 2.95898V12.041H8.62424C9.03129 12.041 9.42773 11.9902 9.81357 11.8884C10.1994 11.7866 10.5428 11.6297 10.8439 11.4178C11.1449 11.2058 11.3845 10.9322 11.5625 10.5973C11.7407 10.2623 11.8297 9.8659 11.8297 9.40799C11.8297 8.83981 11.6919 8.35436 11.4163 7.95158C11.1407 7.54875 10.723 7.2668 10.1633 7.10566C10.5704 6.91066 10.8778 6.66047 11.0856 6.3552C11.2933 6.04992 11.3972 5.66836 11.3972 5.21039C11.3972 4.78641 11.3272 4.43027 11.1873 4.14193C11.0474 3.85365 10.8502 3.62256 10.5958 3.44871C10.3414 3.27486 10.0362 3.14977 9.67998 3.07348C9.32385 2.99713 8.92951 2.95898 8.49703 2.95898H4.22314ZM6.2202 10.4892V7.99605H8.39525C8.82774 7.99605 9.17543 8.09566 9.43834 8.295C9.70119 8.49428 9.83268 8.82709 9.83268 9.2935C9.83268 9.53098 9.79236 9.72598 9.7118 9.87861C9.63123 10.0312 9.52313 10.1521 9.38742 10.2411C9.25178 10.3302 9.09486 10.3938 8.9168 10.432C8.73867 10.4701 8.55217 10.4892 8.35711 10.4892H6.2202Z" fill="white"/>
</svg>
