<svg width="25" height="24" viewBox="0 0 25 24" fill="none" xmlns="http://www.w3.org/2000/svg">
<path d="M4 11.75V8.375C4 7.75367 4.50368 7.25 5.125 7.25H9.625M4 11.75V17.375C4 17.9963 4.50368 18.5 5.125 18.5H20.875C21.4963 18.5 22 17.9963 22 17.375V11.75M4 11.75L11.875 12.875H14.125L22 11.75M9.625 7.25V6.125C9.625 5.50368 10.1287 5 10.75 5H15.25C15.8713 5 16.375 5.50368 16.375 6.125V7.25M9.625 7.25H16.375M22 11.75V8.375C22 7.75367 21.4963 7.25 20.875 7.25H16.375M11.875 14.5625H14.125" stroke="black" stroke-width="1.5" stroke-linecap="round" stroke-linejoin="round"/>
</svg>
