<svg width="25" height="24" viewBox="0 0 25 24" fill="none" xmlns="http://www.w3.org/2000/svg">
<path d="M18.5001 10H17.2401C16.866 8.551 16.0929 7.23599 15.0088 6.2044C13.9246 5.1728 12.5728 4.46599 11.107 4.16428C9.64124 3.86256 8.1202 3.97804 6.71676 4.49759C5.31332 5.01714 4.08375 5.91993 3.16776 7.10338C2.25177 8.28683 1.6861 9.70348 1.53502 11.1924C1.38393 12.6812 1.6535 14.1826 2.31309 15.526C2.97267 16.8693 3.99583 18.0007 5.26629 18.7916C6.53676 19.5824 8.00359 20.0011 9.50011 20H18.5001C19.8262 20 21.098 19.4732 22.0356 18.5355C22.9733 17.5979 23.5001 16.3261 23.5001 15C23.5001 13.6739 22.9733 12.4021 22.0356 11.4645C21.098 10.5268 19.8262 10 18.5001 10Z" stroke="black" stroke-width="2" stroke-linecap="round" stroke-linejoin="round"/>
</svg>
