<svg width="40" height="41" viewBox="0 0 40 41" fill="none" xmlns="http://www.w3.org/2000/svg">
<path d="M33.3333 15.4C33.3159 15.2469 33.2824 15.0961 33.2333 14.95V14.8C33.1532 14.6287 33.0463 14.4711 32.9166 14.3334L22.9166 4.33337C22.7789 4.20373 22.6213 4.09684 22.45 4.01671H22.3L21.7666 3.83337H11.6666C10.3405 3.83337 9.06877 4.36016 8.13109 5.29784C7.19341 6.23552 6.66663 7.50729 6.66663 8.83337V32.1667C6.66663 33.4928 7.19341 34.7646 8.13109 35.7022C9.06877 36.6399 10.3405 37.1667 11.6666 37.1667H28.3333C29.6594 37.1667 30.9311 36.6399 31.8688 35.7022C32.8065 34.7646 33.3333 33.4928 33.3333 32.1667V15.5C33.3333 15.5 33.3333 15.5 33.3333 15.4ZM23.3333 9.51671L27.65 13.8334H23.3333V9.51671ZM30 32.1667C30 32.6087 29.8244 33.0327 29.5118 33.3452C29.1992 33.6578 28.7753 33.8334 28.3333 33.8334H11.6666C11.2246 33.8334 10.8007 33.6578 10.4881 33.3452C10.1756 33.0327 9.99996 32.6087 9.99996 32.1667V8.83337C9.99996 8.39135 10.1756 7.96742 10.4881 7.65486C10.8007 7.3423 11.2246 7.16671 11.6666 7.16671H20V15.5C20 15.9421 20.1756 16.366 20.4881 16.6786C20.8007 16.9911 21.2246 17.1667 21.6666 17.1667H30V32.1667Z" fill="#586269"/>
</svg>
