<svg width="25" height="24" viewBox="0 0 25 24" fill="none" xmlns="http://www.w3.org/2000/svg">
<path d="M8.5 17L12.5 21L16.5 17" stroke="black" stroke-width="2" stroke-linecap="round" stroke-linejoin="round"/>
<path d="M12.5 12V21" stroke="black" stroke-width="2" stroke-linecap="round" stroke-linejoin="round"/>
<path d="M21.3802 18.0899C22.2496 17.4786 22.9015 16.6061 23.2415 15.5991C23.5814 14.5921 23.5916 13.503 23.2706 12.4898C22.9496 11.4766 22.314 10.592 21.4562 9.96449C20.5985 9.33697 19.563 8.9991 18.5002 8.99993H17.2402C16.9394 7.82781 16.3767 6.73918 15.5943 5.81601C14.8119 4.89285 13.8303 4.15919 12.7234 3.67029C11.6164 3.18138 10.413 2.94996 9.2037 2.99345C7.99439 3.03694 6.81069 3.3542 5.74173 3.92136C4.67277 4.48851 3.7464 5.29078 3.03236 6.26776C2.31833 7.24474 1.83523 8.37098 1.61944 9.56168C1.40365 10.7524 1.46079 11.9765 1.78656 13.142C2.11233 14.3074 2.69824 15.3837 3.50018 16.2899" stroke="black" stroke-width="2" stroke-linecap="round" stroke-linejoin="round"/>
</svg>
