<svg width="25" height="24" viewBox="0 0 25 24" fill="none" xmlns="http://www.w3.org/2000/svg">
<path d="M17.5 2.99981C17.7626 2.73717 18.0744 2.52883 18.4176 2.38669C18.7608 2.24455 19.1286 2.17139 19.5 2.17139C19.8714 2.17139 20.2392 2.24455 20.5824 2.38669C20.9256 2.52883 21.2374 2.73717 21.5 2.99981C21.7626 3.26246 21.971 3.57426 22.1131 3.91742C22.2553 4.26058 22.3284 4.62838 22.3284 4.99981C22.3284 5.37125 22.2553 5.73905 22.1131 6.08221C21.971 6.42537 21.7626 6.73717 21.5 6.99981L8 20.4998L2.5 21.9998L4 16.4998L17.5 2.99981Z" stroke="black" stroke-width="2" stroke-linecap="round" stroke-linejoin="round"/>
</svg>
