<svg width="25" height="24" viewBox="0 0 25 24" fill="none" xmlns="http://www.w3.org/2000/svg">
<path d="M5.5 5.5C5.5 4.57174 5.86875 3.6815 6.52513 3.02513C7.1815 2.36875 8.07174 2 9 2H12.5V9H9C8.07174 9 7.1815 8.63125 6.52513 7.97487C5.86875 7.3185 5.5 6.42826 5.5 5.5Z" stroke="black" stroke-width="2" stroke-linecap="round" stroke-linejoin="round"/>
<path d="M12.5 2H16C16.4596 2 16.9148 2.09053 17.3394 2.26642C17.764 2.44231 18.1499 2.70012 18.4749 3.02513C18.7999 3.35013 19.0577 3.73597 19.2336 4.16061C19.4095 4.58525 19.5 5.04037 19.5 5.5C19.5 5.95963 19.4095 6.41475 19.2336 6.83939C19.0577 7.26403 18.7999 7.64987 18.4749 7.97487C18.1499 8.29988 17.764 8.55769 17.3394 8.73358C16.9148 8.90947 16.4596 9 16 9H12.5V2Z" stroke="black" stroke-width="2" stroke-linecap="round" stroke-linejoin="round"/>
<path d="M12.5 12.5C12.5 12.0404 12.5905 11.5852 12.7664 11.1606C12.9423 10.736 13.2001 10.3501 13.5251 10.0251C13.8501 9.70012 14.236 9.44231 14.6606 9.26642C15.0852 9.09053 15.5404 9 16 9C16.4596 9 16.9148 9.09053 17.3394 9.26642C17.764 9.44231 18.1499 9.70012 18.4749 10.0251C18.7999 10.3501 19.0577 10.736 19.2336 11.1606C19.4095 11.5852 19.5 12.0404 19.5 12.5C19.5 12.9596 19.4095 13.4148 19.2336 13.8394C19.0577 14.264 18.7999 14.6499 18.4749 14.9749C18.1499 15.2999 17.764 15.5577 17.3394 15.7336C16.9148 15.9095 16.4596 16 16 16C15.5404 16 15.0852 15.9095 14.6606 15.7336C14.236 15.5577 13.8501 15.2999 13.5251 14.9749C13.2001 14.6499 12.9423 14.264 12.7664 13.8394C12.5905 13.4148 12.5 12.9596 12.5 12.5Z" stroke="black" stroke-width="2" stroke-linecap="round" stroke-linejoin="round"/>
<path d="M5.5 19.5C5.5 18.5717 5.86875 17.6815 6.52513 17.0251C7.1815 16.3687 8.07174 16 9 16H12.5V19.5C12.5 20.4283 12.1313 21.3185 11.4749 21.9749C10.8185 22.6313 9.92826 23 9 23C8.07174 23 7.1815 22.6313 6.52513 21.9749C5.86875 21.3185 5.5 20.4283 5.5 19.5Z" stroke="black" stroke-width="2" stroke-linecap="round" stroke-linejoin="round"/>
<path d="M5.5 12.5C5.5 11.5717 5.86875 10.6815 6.52513 10.0251C7.1815 9.36875 8.07174 9 9 9H12.5V16H9C8.07174 16 7.1815 15.6313 6.52513 14.9749C5.86875 14.3185 5.5 13.4283 5.5 12.5Z" stroke="black" stroke-width="2" stroke-linecap="round" stroke-linejoin="round"/>
</svg>
