<svg width="15" height="15" viewBox="0 0 15 15" fill="none" xmlns="http://www.w3.org/2000/svg">
<path d="M5 15C6.38 15 7.5 13.88 7.5 12.5V10H5C3.62 10 2.5 11.12 2.5 12.5C2.5 13.88 3.62 15 5 15Z" fill="#0ACF83"/>
<path d="M2.5 7.5C2.5 6.12 3.62 5 5 5H7.5V10H5C3.62 10 2.5 8.88 2.5 7.5Z" fill="#A259FF"/>
<path d="M2.5 2.5C2.5 1.12 3.62 0 5 0H7.5V5H5C3.62 5 2.5 3.88 2.5 2.5Z" fill="#F24E1E"/>
<path d="M7.5 0H10C11.38 0 12.5 1.12 12.5 2.5C12.5 3.88 11.38 5 10 5H7.5V0Z" fill="#FF7262"/>
<path d="M12.5 7.5C12.5 8.88 11.38 10 10 10C8.62 10 7.5 8.88 7.5 7.5C7.5 6.12 8.62 5 10 5C11.38 5 12.5 6.12 12.5 7.5Z" fill="#1ABCFE"/>
</svg>
