<svg width="15" height="15" viewBox="0 0 15 15" fill="none" xmlns="http://www.w3.org/2000/svg">
<g clip-path="url(#clip0_240_1361)">
<path d="M9.19621 5.41803L7.69621 6.8149L6.30371 4.0049L7.02309 2.38928C7.20496 2.06678 7.50246 2.06303 7.68434 2.38928L9.19621 5.41803Z" fill="#FFA000"/>
<path d="M7.69635 6.81426L2.08447 12.0336L6.30385 4.00488L7.69635 6.81426Z" fill="#F57F17"/>
<path d="M10.8412 3.28198C11.11 3.02573 11.3868 3.11261 11.4568 3.47573L12.9156 11.9632L8.07684 14.8682C7.90684 14.9632 7.45684 15.0001 7.45684 15.0001C7.45684 15.0001 7.04746 14.9501 6.89059 14.8639L2.08496 12.0339L10.8412 3.28198Z" fill="#FFCA28"/>
<path d="M6.30371 4.00494L2.08496 12.0337L3.96496 0.298066C4.03559 -0.0656841 4.24184 -0.102559 4.42746 0.219316L6.30371 4.00494Z" fill="#FFA000"/>
</g>
<defs>
<clipPath id="clip0_240_1361">
<rect width="15" height="15" fill="white"/>
</clipPath>
</defs>
</svg>
