<svg width="25" height="24" viewBox="0 0 25 24" fill="none" xmlns="http://www.w3.org/2000/svg">
<path d="M22.5 19C22.5 19.5304 22.2893 20.0391 21.9142 20.4142C21.5391 20.7893 21.0304 21 20.5 21H4.5C3.96957 21 3.46086 20.7893 3.08579 20.4142C2.71071 20.0391 2.5 19.5304 2.5 19V5C2.5 4.46957 2.71071 3.96086 3.08579 3.58579C3.46086 3.21071 3.96957 3 4.5 3H9.5L11.5 6H20.5C21.0304 6 21.5391 6.21071 21.9142 6.58579C22.2893 6.96086 22.5 7.46957 22.5 8V19Z" stroke="black" stroke-width="2" stroke-linecap="round" stroke-linejoin="round"/>
<path d="M12.5 11V17" stroke="black" stroke-width="2" stroke-linecap="round" stroke-linejoin="round"/>
<path d="M9.5 14H15.5" stroke="black" stroke-width="2" stroke-linecap="round" stroke-linejoin="round"/>
</svg>
