<svg width="25" height="25" viewBox="0 0 25 25" fill="none" xmlns="http://www.w3.org/2000/svg">
<path d="M9.5 19.9999C4.5 21.4999 4.5 17.4999 2.5 16.9999M16.5 22.9999V19.1299C16.5375 18.6531 16.4731 18.1737 16.311 17.7237C16.1489 17.2737 15.8929 16.8634 15.56 16.5199C18.7 16.1699 22 14.9799 22 9.51994C21.9997 8.12376 21.4627 6.78114 20.5 5.76994C20.9559 4.54844 20.9236 3.19829 20.41 1.99994C20.41 1.99994 19.23 1.64994 16.5 3.47994C14.208 2.85876 11.792 2.85876 9.5 3.47994C6.77 1.64994 5.59 1.99994 5.59 1.99994C5.07638 3.19829 5.04414 4.54844 5.5 5.76994C4.53013 6.78864 3.99252 8.1434 4 9.54994C4 14.9699 7.3 16.1599 10.44 16.5499C10.111 16.8899 9.85726 17.2953 9.69531 17.7399C9.53335 18.1844 9.46681 18.658 9.5 19.1299V22.9999" stroke="white" stroke-width="2" stroke-linecap="round" stroke-linejoin="round"/>
</svg>