<svg width="25" height="24" viewBox="0 0 25 24" fill="none" xmlns="http://www.w3.org/2000/svg">
<path d="M23.1501 14.3902L12.5001 22.1302L1.85014 14.3902C1.70737 14.2852 1.60146 14.1377 1.54758 13.9689C1.49369 13.8001 1.49459 13.6185 1.55014 13.4502L2.77014 9.67021L5.21014 2.16021C5.23381 2.09901 5.27148 2.04421 5.32014 2.00021C5.39938 1.92783 5.50282 1.8877 5.61014 1.8877C5.71746 1.8877 5.82091 1.92783 5.90014 2.00021C5.95153 2.04987 5.98939 2.11182 6.01014 2.18021L8.45014 9.67021H16.5501L18.9901 2.16021C19.0138 2.09901 19.0515 2.04421 19.1001 2.00021C19.1794 1.92783 19.2828 1.8877 19.3901 1.8877C19.4975 1.8877 19.6009 1.92783 19.6801 2.00021C19.7315 2.04987 19.7694 2.11182 19.7901 2.18021L22.2301 9.6902L23.5001 13.4502C23.5507 13.6237 23.5439 13.8088 23.4809 13.9782C23.4178 14.1475 23.3018 14.292 23.1501 14.3902Z" stroke="black" stroke-width="2" stroke-linecap="round" stroke-linejoin="round"/>
</svg>
