<svg width="25" height="24" viewBox="0 0 25 24" fill="none" xmlns="http://www.w3.org/2000/svg">
<path d="M22.5 12H16.5L14.5 15H10.5L8.5 12H2.5" stroke="black" stroke-width="2" stroke-linecap="round" stroke-linejoin="round"/>
<path d="M5.95 5.11L2.5 12V18C2.5 18.5304 2.71071 19.0391 3.08579 19.4142C3.46086 19.7893 3.96957 20 4.5 20H20.5C21.0304 20 21.5391 19.7893 21.9142 19.4142C22.2893 19.0391 22.5 18.5304 22.5 18V12L19.05 5.11C18.8844 4.77679 18.6292 4.49637 18.313 4.30028C17.9967 4.10419 17.6321 4.0002 17.26 4H7.74C7.36792 4.0002 7.00326 4.10419 6.68704 4.30028C6.37083 4.49637 6.11558 4.77679 5.95 5.11Z" stroke="black" stroke-width="2" stroke-linecap="round" stroke-linejoin="round"/>
</svg>
