<svg width="25" height="24" viewBox="0 0 25 24" fill="none" xmlns="http://www.w3.org/2000/svg">
<path d="M17.5 2H7.5C4.73858 2 2.5 4.23858 2.5 7V17C2.5 19.7614 4.73858 22 7.5 22H17.5C20.2614 22 22.5 19.7614 22.5 17V7C22.5 4.23858 20.2614 2 17.5 2Z" stroke="black" stroke-width="2" stroke-linecap="round" stroke-linejoin="round"/>
<path d="M16.4997 11.3698C16.6231 12.2021 16.481 13.052 16.0935 13.7988C15.706 14.5456 15.0929 15.1512 14.3413 15.5295C13.5898 15.9077 12.7382 16.0394 11.9075 15.9057C11.0768 15.7721 10.3095 15.3799 9.71455 14.785C9.11962 14.1901 8.72744 13.4227 8.59377 12.592C8.46011 11.7614 8.59177 10.9097 8.97003 10.1582C9.34829 9.40667 9.95389 8.79355 10.7007 8.40605C11.4475 8.01856 12.2975 7.8764 13.1297 7.99981C13.9786 8.1257 14.7646 8.52128 15.3714 9.12812C15.9782 9.73496 16.3738 10.5209 16.4997 11.3698Z" stroke="black" stroke-width="2" stroke-linecap="round" stroke-linejoin="round"/>
<path d="M18 6.5H18.01" stroke="black" stroke-width="2" stroke-linecap="round" stroke-linejoin="round"/>
</svg>
