<svg width="15" height="15" viewBox="0 0 15 15" fill="none" xmlns="http://www.w3.org/2000/svg">
<g clip-path="url(#clip0_240_1486)">
<path d="M12.0625 0.9375H2.9375C1.83293 0.9375 0.9375 1.83293 0.9375 2.9375V12.0625C0.9375 13.1671 1.83293 14.0625 2.9375 14.0625H12.0625C13.1671 14.0625 14.0625 13.1671 14.0625 12.0625V2.9375C14.0625 1.83293 13.1671 0.9375 12.0625 0.9375Z" fill="#F5DE19"/>
<path d="M9.75416 11.1914C9.86599 11.4185 10.0397 11.6095 10.2554 11.7422C10.471 11.8749 10.7197 11.9439 10.9729 11.9414C11.4838 11.9414 11.8106 11.6859 11.8106 11.332C11.8106 10.9101 11.4749 10.7592 10.9124 10.5131L10.604 10.3809C9.71338 10.0017 9.12275 9.52684 9.12275 8.52278C9.12275 7.59794 9.82588 6.89341 10.9288 6.89341C11.2859 6.86762 11.6426 6.94753 11.9546 7.12317C12.2665 7.29881 12.5198 7.5624 12.6829 7.88106L11.7187 8.49747C11.6559 8.33946 11.5465 8.20428 11.4051 8.10985C11.2637 8.01542 11.097 7.9662 10.927 7.96872C10.8528 7.96129 10.7779 7.9694 10.707 7.99253C10.6362 8.01565 10.5709 8.05328 10.5154 8.10303C10.4598 8.15277 10.4153 8.21353 10.3845 8.28144C10.3538 8.34936 10.3376 8.42293 10.3368 8.49747C10.3368 8.86731 10.566 9.01731 11.0953 9.24747L11.4037 9.37966C12.4518 9.82919 13.0443 10.2872 13.0443 11.317C13.0443 12.4275 12.172 13.0359 11.0006 13.0359C10.5441 13.065 10.0891 12.9614 9.69023 12.7375C9.2914 12.5137 8.96587 12.1792 8.75291 11.7745L9.75416 11.1914ZM5.39713 11.2983C5.59072 11.6418 5.76697 11.9325 6.19072 11.9325C6.59572 11.9325 6.85166 11.774 6.85166 11.1576V6.96372H8.08494V11.174C8.08494 12.4509 7.33494 13.0322 6.24322 13.0322C5.85733 13.0533 5.47408 12.9571 5.14386 12.7563C4.81364 12.5555 4.5519 12.2595 4.39307 11.9072L5.39713 11.2983Z" fill="black"/>
</g>
<defs>
<clipPath id="clip0_240_1486">
<rect width="15" height="15" fill="white"/>
</clipPath>
</defs>
</svg>
