<svg width="60" height="60" viewBox="0 0 60 60" fill="none" xmlns="http://www.w3.org/2000/svg">
<rect width="60" height="60" rx="12" fill="#F2F2F2"/>
<path d="M16.6667 30V25C16.6667 24.0795 17.4129 23.3333 18.3334 23.3333H25M16.6667 30V38.3333C16.6667 39.2538 17.4129 40 18.3334 40H41.6667C42.5872 40 43.3334 39.2538 43.3334 38.3333V30M16.6667 30L28.3334 31.6667H31.6667L43.3334 30M25 23.3333V21.6667C25 20.7462 25.7462 20 26.6667 20H33.3334C34.2539 20 35 20.7462 35 21.6667V23.3333M25 23.3333H35M43.3334 30V25C43.3334 24.0795 42.5872 23.3333 41.6667 23.3333H35M28.3334 34.1667H31.6667" stroke="#2A2A2A" stroke-width="2.5" stroke-linecap="round" stroke-linejoin="round"/>
</svg>
