<svg width="25" height="24" viewBox="0 0 25 24" fill="none" xmlns="http://www.w3.org/2000/svg">
<path d="M15.5 7H18.5C19.1566 7 19.8068 7.12933 20.4134 7.3806C21.02 7.63188 21.5712 8.00017 22.0355 8.46447C22.4998 8.92876 22.8681 9.47996 23.1194 10.0866C23.3707 10.6932 23.5 11.3434 23.5 12C23.5 12.6566 23.3707 13.3068 23.1194 13.9134C22.8681 14.52 22.4998 15.0712 22.0355 15.5355C21.5712 15.9998 21.02 16.3681 20.4134 16.6194C19.8068 16.8707 19.1566 17 18.5 17H15.5M9.5 17H6.5C5.84339 17 5.19321 16.8707 4.58658 16.6194C3.97995 16.3681 3.42876 15.9998 2.96447 15.5355C2.02678 14.5979 1.5 13.3261 1.5 12C1.5 10.6739 2.02678 9.40215 2.96447 8.46447C3.90215 7.52678 5.17392 7 6.5 7H9.5" stroke="black" stroke-width="2" stroke-linecap="round" stroke-linejoin="round"/>
<path d="M8.5 12H16.5" stroke="black" stroke-width="2" stroke-linecap="round" stroke-linejoin="round"/>
</svg>
