<svg width="25" height="24" viewBox="0 0 25 24" fill="none" xmlns="http://www.w3.org/2000/svg">
<path d="M8.5 3V6C8.5 6.53043 8.28929 7.03914 7.91421 7.41421C7.53914 7.78929 7.03043 8 6.5 8H3.5M21.5 8H18.5C17.9696 8 17.4609 7.78929 17.0858 7.41421C16.7107 7.03914 16.5 6.53043 16.5 6V3M16.5 21V18C16.5 17.4696 16.7107 16.9609 17.0858 16.5858C17.4609 16.2107 17.9696 16 18.5 16H21.5M3.5 16H6.5C7.03043 16 7.53914 16.2107 7.91421 16.5858C8.28929 16.9609 8.5 17.4696 8.5 18V21" stroke="black" stroke-width="2" stroke-linecap="round" stroke-linejoin="round"/>
</svg>
