<svg width="25" height="24" viewBox="0 0 25 24" fill="none" xmlns="http://www.w3.org/2000/svg">
<path d="M9.5 18V5L21.5 3V16" stroke="black" stroke-width="2" stroke-linecap="round" stroke-linejoin="round"/>
<path d="M6.5 21C8.15685 21 9.5 19.6569 9.5 18C9.5 16.3431 8.15685 15 6.5 15C4.84315 15 3.5 16.3431 3.5 18C3.5 19.6569 4.84315 21 6.5 21Z" stroke="black" stroke-width="2" stroke-linecap="round" stroke-linejoin="round"/>
<path d="M18.5 19C20.1569 19 21.5 17.6569 21.5 16C21.5 14.3431 20.1569 13 18.5 13C16.8431 13 15.5 14.3431 15.5 16C15.5 17.6569 16.8431 19 18.5 19Z" stroke="black" stroke-width="2" stroke-linecap="round" stroke-linejoin="round"/>
</svg>
