<svg width="25" height="24" viewBox="0 0 25 24" fill="none" xmlns="http://www.w3.org/2000/svg">
<path d="M21.9403 11.0499L12.7503 20.2399C11.6244 21.3658 10.0975 21.9983 8.50529 21.9983C6.91311 21.9983 5.38613 21.3658 4.26029 20.2399C3.13445 19.1141 2.50195 17.5871 2.50195 15.9949C2.50195 14.4027 3.13445 12.8758 4.26029 11.7499L13.4503 2.55992C14.2009 1.80936 15.2188 1.3877 16.2803 1.3877C17.3417 1.3877 18.3597 1.80936 19.1103 2.55992C19.8609 3.31048 20.2825 4.32846 20.2825 5.38992C20.2825 6.45138 19.8609 7.46936 19.1103 8.21992L9.91029 17.4099C9.53501 17.7852 9.02602 17.996 8.49529 17.996C7.96456 17.996 7.45557 17.7852 7.08029 17.4099C6.70501 17.0346 6.49418 16.5256 6.49418 15.9949C6.49418 15.4642 6.70501 14.9552 7.08029 14.5799L15.5703 6.09992" stroke="black" stroke-width="2" stroke-linecap="round" stroke-linejoin="round"/>
</svg>
