<svg width="25" height="24" viewBox="0 0 25 24" fill="none" xmlns="http://www.w3.org/2000/svg">
<path d="M21.7104 15.8901C21.0742 17.3946 20.0792 18.7203 18.8123 19.7514C17.5454 20.7825 16.0452 21.4875 14.4428 21.8049C12.8405 22.1222 11.1848 22.0422 9.62055 21.5719C8.05627 21.1015 6.63103 20.2551 5.46942 19.1067C4.30782 17.9583 3.44522 16.5428 2.95704 14.984C2.46886 13.4252 2.36996 11.7706 2.669 10.1647C2.96804 8.55886 3.6559 7.05071 4.67245 5.77211C5.689 4.49351 7.00329 3.4834 8.5004 2.83008" stroke="black" stroke-width="2" stroke-linecap="round" stroke-linejoin="round"/>
<path d="M22.5 12C22.5 10.6868 22.2413 9.38642 21.7388 8.17317C21.2362 6.95991 20.4997 5.85752 19.5711 4.92893C18.6425 4.00035 17.5401 3.26375 16.3268 2.7612C15.1136 2.25866 13.8132 2 12.5 2V12H22.5Z" stroke="black" stroke-width="2" stroke-linecap="round" stroke-linejoin="round"/>
</svg>
