<svg width="25" height="24" viewBox="0 0 25 24" fill="none" xmlns="http://www.w3.org/2000/svg">
<path d="M4.5 3H20.5C21.0304 3 21.5391 3.21071 21.9142 3.58579C22.2893 3.96086 22.5 4.46957 22.5 5V11C22.5 13.6522 21.4464 16.1957 19.5711 18.0711C17.6957 19.9464 15.1522 21 12.5 21C11.1868 21 9.88642 20.7413 8.67317 20.2388C7.45991 19.7362 6.35752 18.9997 5.42893 18.0711C3.55357 16.1957 2.5 13.6522 2.5 11V5C2.5 4.46957 2.71071 3.96086 3.08579 3.58579C3.46086 3.21071 3.96957 3 4.5 3Z" stroke="black" stroke-width="2" stroke-linecap="round" stroke-linejoin="round"/>
<path d="M8.5 10L12.5 14L16.5 10" stroke="black" stroke-width="2" stroke-linecap="round" stroke-linejoin="round"/>
</svg>
