<svg width="15" height="15" viewBox="0 0 15 15" fill="none" xmlns="http://www.w3.org/2000/svg">
<g clip-path="url(#clip0_240_1357)">
<path d="M7.5 8.83594C8.23782 8.83594 8.83594 8.23782 8.83594 7.5C8.83594 6.76218 8.23782 6.16406 7.5 6.16406C6.76218 6.16406 6.16406 6.76218 6.16406 7.5C6.16406 8.23782 6.76218 8.83594 7.5 8.83594Z" fill="#61DAFB"/>
<path d="M12.5742 5.29688C12.3164 5.20312 12.0469 5.10938 11.7656 5.02734C11.8359 4.74609 11.8945 4.46484 11.9414 4.19531C12.1875 2.64844 11.918 1.55859 11.168 1.13672C10.9453 1.00781 10.6992 0.949219 10.418 0.949219C9.59766 0.949219 8.55469 1.55859 7.5 2.57812C6.44531 1.55859 5.40234 0.949219 4.58203 0.949219C4.30078 0.949219 4.05469 1.00781 3.83203 1.13672C3.08203 1.57031 2.8125 2.66016 3.05859 4.19531C3.10547 4.46484 3.16406 4.74609 3.23438 5.02734C2.95312 5.10938 2.68359 5.19141 2.42578 5.29688C0.960938 5.85938 0.164062 6.63281 0.164062 7.5C0.164062 8.36719 0.972656 9.14063 2.42578 9.70313C2.68359 9.79688 2.95312 9.89062 3.23438 9.97266C3.16406 10.2539 3.10547 10.5352 3.05859 10.8047C2.8125 12.3516 3.08203 13.4414 3.83203 13.8633C4.05469 13.9922 4.30078 14.0508 4.58203 14.0508C5.41406 14.0508 6.45703 13.4414 7.5 12.4219C8.55469 13.4414 9.59766 14.0508 10.418 14.0508C10.6992 14.0508 10.9453 13.9922 11.168 13.8633C11.918 13.4297 12.1875 12.3398 11.9414 10.8047C11.8945 10.5352 11.8359 10.2539 11.7656 9.97266C12.0469 9.89062 12.3164 9.80859 12.5742 9.70313C14.0391 9.14063 14.8359 8.36719 14.8359 7.5C14.8359 6.63281 14.0391 5.85938 12.5742 5.29688ZM10.8398 1.72266C11.3203 2.00391 11.4844 2.87109 11.2852 4.10156C11.25 4.34766 11.1914 4.60547 11.1211 4.875C10.5117 4.73438 9.86719 4.64062 9.1875 4.58203C8.78906 4.01953 8.37891 3.51562 7.96875 3.05859C8.83594 2.20312 9.71484 1.61719 10.4297 1.61719C10.582 1.61719 10.7227 1.65234 10.8398 1.72266ZM9.52734 8.67188C9.31641 9.04688 9.07031 9.42188 8.8125 9.79688C8.37891 9.83203 7.94531 9.84375 7.5 9.84375C7.04297 9.84375 6.60937 9.83203 6.1875 9.79688C5.92969 9.42188 5.69531 9.04688 5.48437 8.67188C5.26172 8.28516 5.05078 7.88672 4.86328 7.5C5.05078 7.11328 5.26172 6.71484 5.48437 6.32812C5.69531 5.95312 5.94141 5.57813 6.19922 5.20313C6.63281 5.16797 7.06641 5.15625 7.51172 5.15625C7.96875 5.15625 8.40234 5.16797 8.82422 5.20313C9.08203 5.57813 9.31641 5.95312 9.52734 6.32812C9.75 6.71484 9.96094 7.11328 10.1484 7.5C9.94922 7.88672 9.75 8.27344 9.52734 8.67188ZM10.5 8.28516C10.6758 8.69531 10.8164 9.09375 10.9453 9.49219C10.5469 9.58594 10.125 9.65625 9.67969 9.71484C9.82031 9.49219 9.97266 9.25781 10.1016 9.01172C10.2422 8.76563 10.3711 8.51953 10.5 8.28516ZM7.5 11.4609C7.21875 11.1563 6.94922 10.8281 6.69141 10.4883C6.96094 10.5 7.23047 10.5117 7.5 10.5117C7.76953 10.5117 8.03906 10.5 8.30859 10.4883C8.05078 10.8281 7.78125 11.1563 7.5 11.4609ZM5.32031 9.70313C4.875 9.64453 4.45312 9.57422 4.05469 9.48047C4.18359 9.09375 4.32422 8.68359 4.5 8.27344C4.62891 8.50781 4.75781 8.75391 4.89844 8.98828C5.03906 9.24609 5.17969 9.46875 5.32031 9.70313ZM4.5 6.71484C4.32422 6.30469 4.18359 5.90625 4.05469 5.50781C4.45312 5.41406 4.875 5.34375 5.32031 5.28516C5.17969 5.50781 5.02734 5.74219 4.89844 5.98828C4.75781 6.23438 4.62891 6.48047 4.5 6.71484ZM7.5 3.53906C7.78125 3.84375 8.05078 4.17188 8.30859 4.51172C8.03906 4.5 7.76953 4.48828 7.5 4.48828C7.23047 4.48828 6.96094 4.5 6.69141 4.51172C6.94922 4.17188 7.21875 3.84375 7.5 3.53906ZM10.1016 6L9.67969 5.29688C10.125 5.35547 10.5469 5.42578 10.9453 5.51953C10.8164 5.90625 10.6758 6.31641 10.5 6.72656C10.3711 6.48047 10.2422 6.23438 10.1016 6ZM3.71484 4.10156C3.51563 2.87109 3.67969 2.00391 4.16016 1.72266C4.27734 1.65234 4.41797 1.61719 4.57031 1.61719C5.27344 1.61719 6.15234 2.19141 7.03125 3.05859C6.62109 3.50391 6.21094 4.01953 5.8125 4.58203C5.13281 4.64062 4.48828 4.74609 3.87891 4.875C3.80859 4.60547 3.76172 4.34766 3.71484 4.10156ZM0.820312 7.5C0.820312 6.94922 1.48828 6.36328 2.66016 5.92969C2.89453 5.83594 3.15234 5.75391 3.41016 5.68359C3.59766 6.26953 3.83203 6.89062 4.11328 7.51172C3.83203 8.13281 3.58594 8.74219 3.41016 9.32812C1.79297 8.85938 0.820312 8.15625 0.820312 7.5ZM4.16016 13.2773C3.67969 12.9961 3.51563 12.1289 3.71484 10.8984C3.75 10.6523 3.80859 10.3945 3.87891 10.125C4.48828 10.2656 5.13281 10.3594 5.8125 10.418C6.21094 10.9805 6.62109 11.4844 7.03125 11.9414C6.16406 12.7969 5.28516 13.3828 4.57031 13.3828C4.41797 13.3828 4.27734 13.3477 4.16016 13.2773ZM11.2852 10.8984C11.4844 12.1289 11.3203 12.9961 10.8398 13.2773C10.7227 13.3477 10.582 13.3828 10.4297 13.3828C9.72656 13.3828 8.84766 12.8086 7.96875 11.9414C8.37891 11.4961 8.78906 10.9805 9.1875 10.418C9.86719 10.3594 10.5117 10.2539 11.1211 10.125C11.1914 10.3945 11.2383 10.6523 11.2852 10.8984ZM12.3398 9.07031C12.1055 9.16406 11.8477 9.24609 11.5898 9.31641C11.4023 8.73047 11.168 8.10938 10.8867 7.48828C11.168 6.86719 11.4141 6.25781 11.5898 5.67188C13.207 6.14063 14.1797 6.84375 14.1797 7.5C14.1797 8.05078 13.5 8.63672 12.3398 9.07031Z" fill="#61DAFB"/>
</g>
<defs>
<clipPath id="clip0_240_1357">
<rect width="15" height="15" fill="white"/>
</clipPath>
</defs>
</svg>
