<svg width="25" height="24" viewBox="0 0 25 24" fill="none" xmlns="http://www.w3.org/2000/svg">
<path d="M1.5 4V10H7.5" stroke="black" stroke-width="2" stroke-linecap="round" stroke-linejoin="round"/>
<path d="M23.5 20V14H17.5" stroke="black" stroke-width="2" stroke-linecap="round" stroke-linejoin="round"/>
<path d="M20.99 9.00008C20.4828 7.56686 19.6209 6.28548 18.4845 5.27549C17.3482 4.26551 15.9745 3.55984 14.4917 3.22433C13.0089 2.88883 11.4652 2.93442 10.0048 3.35685C8.54437 3.77928 7.21475 4.56479 6.14 5.64008L1.5 10.0001M23.5 14.0001L18.86 18.3601C17.7853 19.4354 16.4556 20.2209 14.9952 20.6433C13.5348 21.0657 11.9911 21.1113 10.5083 20.7758C9.02547 20.4403 7.6518 19.7346 6.51547 18.7247C5.37913 17.7147 4.51717 16.4333 4.01 15.0001" stroke="black" stroke-width="2" stroke-linecap="round" stroke-linejoin="round"/>
</svg>
