<svg width="25" height="24" viewBox="0 0 25 24" fill="none" xmlns="http://www.w3.org/2000/svg">
<path d="M6.5 9C8.15685 9 9.5 7.65685 9.5 6C9.5 4.34315 8.15685 3 6.5 3C4.84315 3 3.5 4.34315 3.5 6C3.5 7.65685 4.84315 9 6.5 9Z" stroke="black" stroke-width="2" stroke-linecap="round" stroke-linejoin="round"/>
<path d="M6.5 21C8.15685 21 9.5 19.6569 9.5 18C9.5 16.3431 8.15685 15 6.5 15C4.84315 15 3.5 16.3431 3.5 18C3.5 19.6569 4.84315 21 6.5 21Z" stroke="black" stroke-width="2" stroke-linecap="round" stroke-linejoin="round"/>
<path d="M20.5001 4L8.62012 15.88" stroke="black" stroke-width="2" stroke-linecap="round" stroke-linejoin="round"/>
<path d="M14.9697 14.48L20.4997 20" stroke="black" stroke-width="2" stroke-linecap="round" stroke-linejoin="round"/>
<path d="M8.62012 8.12012L12.5001 12.0001" stroke="black" stroke-width="2" stroke-linecap="round" stroke-linejoin="round"/>
</svg>
