<svg width="25" height="24" viewBox="0 0 25 24" fill="none" xmlns="http://www.w3.org/2000/svg">
<path d="M20.5 2H4.5C3.39543 2 2.5 2.89543 2.5 4V8C2.5 9.10457 3.39543 10 4.5 10H20.5C21.6046 10 22.5 9.10457 22.5 8V4C22.5 2.89543 21.6046 2 20.5 2Z" stroke="black" stroke-width="2" stroke-linecap="round" stroke-linejoin="round"/>
<path d="M20.5 14H4.5C3.39543 14 2.5 14.8954 2.5 16V20C2.5 21.1046 3.39543 22 4.5 22H20.5C21.6046 22 22.5 21.1046 22.5 20V16C22.5 14.8954 21.6046 14 20.5 14Z" stroke="black" stroke-width="2" stroke-linecap="round" stroke-linejoin="round"/>
<path d="M6.5 6H6.51" stroke="black" stroke-width="2" stroke-linecap="round" stroke-linejoin="round"/>
<path d="M6.5 18H6.51" stroke="black" stroke-width="2" stroke-linecap="round" stroke-linejoin="round"/>
</svg>
