<svg width="25" height="24" viewBox="0 0 25 24" fill="none" xmlns="http://www.w3.org/2000/svg">
<path d="M18.5 2H6.5C5.39543 2 4.5 2.89543 4.5 4V20C4.5 21.1046 5.39543 22 6.5 22H18.5C19.6046 22 20.5 21.1046 20.5 20V4C20.5 2.89543 19.6046 2 18.5 2Z" stroke="black" stroke-width="2" stroke-linecap="round" stroke-linejoin="round"/>
<path d="M12.5 18C14.7091 18 16.5 16.2091 16.5 14C16.5 11.7909 14.7091 10 12.5 10C10.2909 10 8.5 11.7909 8.5 14C8.5 16.2091 10.2909 18 12.5 18Z" stroke="black" stroke-width="2" stroke-linecap="round" stroke-linejoin="round"/>
<path d="M12.5 6H12.51" stroke="black" stroke-width="2" stroke-linecap="round" stroke-linejoin="round"/>
</svg>
