<svg width="15" height="15" viewBox="0 0 15 15" fill="none" xmlns="http://www.w3.org/2000/svg">
<path d="M11.5625 5.9438C11.0938 5.78237 10.6801 5.49211 10.3687 5.1063C10.0257 4.67645 9.58879 4.33076 9.09156 4.09569C8.59434 3.86062 8.04994 3.74239 7.5 3.75005C6.76023 3.69766 6.02786 3.92583 5.44875 4.38912C4.86964 4.85241 4.48628 5.51682 4.375 6.25005C4.59417 5.88333 4.92403 5.59559 5.31712 5.42825C5.71021 5.26091 6.14625 5.22259 6.5625 5.3188C7.03043 5.48493 7.44349 5.77688 7.75625 6.16255C8.10123 6.58897 8.53893 6.93108 9.03604 7.16286C9.53316 7.39463 10.0766 7.50995 10.625 7.50005C11.3648 7.55244 12.0971 7.32427 12.6762 6.86098C13.2554 6.3977 13.6387 5.73328 13.75 5.00005C13.5348 5.37116 13.206 5.66324 12.8121 5.83318C12.4182 6.00311 11.9801 6.0419 11.5625 5.9438ZM3.4375 9.0563C3.90622 9.21773 4.31995 9.50799 4.63125 9.8938C4.97434 10.3237 5.41121 10.6693 5.90844 10.9044C6.40566 11.1395 6.95006 11.2577 7.5 11.2501C8.23977 11.3024 8.97214 11.0743 9.55125 10.611C10.1304 10.1477 10.5137 9.48328 10.625 8.75005C10.4058 9.11677 10.076 9.40451 9.68288 9.57185C9.28979 9.73919 8.85375 9.77752 8.4375 9.6813C7.96957 9.51517 7.55651 9.22322 7.24375 8.83755C6.89785 8.41219 6.45997 8.07082 5.96307 7.83915C5.46617 7.60748 4.92319 7.49154 4.375 7.50005C3.63523 7.44766 2.90286 7.67583 2.32375 8.13912C1.74464 8.60241 1.36128 9.26682 1.25 10.0001C1.46519 9.62894 1.794 9.33686 2.1879 9.16692C2.58179 8.99699 3.01988 8.95821 3.4375 9.0563Z" fill="white"/>
</svg>
