<svg width="25" height="24" viewBox="0 0 25 24" fill="none" xmlns="http://www.w3.org/2000/svg">
<path d="M14.5 14.76V3.5C14.5 2.83696 14.2366 2.20107 13.7678 1.73223C13.2989 1.26339 12.663 1 12 1C11.337 1 10.7011 1.26339 10.2322 1.73223C9.76339 2.20107 9.5 2.83696 9.5 3.5V14.76C8.69728 15.2963 8.08832 16.0766 7.76307 16.9856C7.43782 17.8946 7.41352 18.8841 7.69376 19.8079C7.97399 20.7317 8.54391 21.541 9.31934 22.1161C10.0948 22.6912 11.0346 23.0017 12 23.0017C12.9654 23.0017 13.9052 22.6912 14.6807 22.1161C15.4561 21.541 16.026 20.7317 16.3062 19.8079C16.5865 18.8841 16.5622 17.8946 16.2369 16.9856C15.9117 16.0766 15.3027 15.2963 14.5 14.76Z" stroke="black" stroke-width="2" stroke-linecap="round" stroke-linejoin="round"/>
</svg>
