<svg width="25" height="24" viewBox="0 0 25 24" fill="none" xmlns="http://www.w3.org/2000/svg">
<path d="M7.5 11L11.5 2C12.2956 2 13.0587 2.31607 13.6213 2.87868C14.1839 3.44129 14.5 4.20435 14.5 5V9H20.16C20.4499 8.99672 20.7371 9.0565 21.0016 9.17522C21.2661 9.29393 21.5016 9.46873 21.6919 9.68751C21.8821 9.90629 22.0225 10.1638 22.1033 10.4423C22.1842 10.7207 22.2035 11.0134 22.16 11.3L20.78 20.3C20.7077 20.7769 20.4654 21.2116 20.0979 21.524C19.7304 21.8364 19.2623 22.0055 18.78 22H7.5M7.5 11V22M7.5 11H4.5C3.96957 11 3.46086 11.2107 3.08579 11.5858C2.71071 11.9609 2.5 12.4696 2.5 13V20C2.5 20.5304 2.71071 21.0391 3.08579 21.4142C3.46086 21.7893 3.96957 22 4.5 22H7.5" stroke="black" stroke-width="2" stroke-linecap="round" stroke-linejoin="round"/>
</svg>
