<svg width="44" height="44" viewBox="0 0 44 44" fill="none" xmlns="http://www.w3.org/2000/svg">
<rect width="44" height="44" rx="22" fill="#DCFCE7"/>
<path d="M17.1582 21L21.1582 12C21.9539 12 22.7169 12.3161 23.2795 12.8787C23.8421 13.4413 24.1582 14.2044 24.1582 15V19H29.8182C30.1081 18.9967 30.3953 19.0565 30.6598 19.1752C30.9243 19.2939 31.1598 19.4687 31.3501 19.6875C31.5403 19.9063 31.6807 20.1638 31.7615 20.4423C31.8424 20.7207 31.8617 21.0134 31.8182 21.3L30.4382 30.3C30.3659 30.7769 30.1236 31.2116 29.7561 31.524C29.3886 31.8364 28.9205 32.0055 28.4382 32H17.1582M17.1582 21V32M17.1582 21H14.1582C13.6278 21 13.1191 21.2107 12.744 21.5858C12.3689 21.9609 12.1582 22.4696 12.1582 23V30C12.1582 30.5304 12.3689 31.0391 12.744 31.4142C13.1191 31.7893 13.6278 32 14.1582 32H17.1582" stroke="#15803D" stroke-width="2" stroke-linecap="round" stroke-linejoin="round"/>
</svg>
