<svg width="25" height="24" viewBox="0 0 25 24" fill="none" xmlns="http://www.w3.org/2000/svg">
<path d="M17.5 13.0001L13.5 22.0001C12.7044 22.0001 11.9413 21.684 11.3787 21.1214C10.8161 20.5588 10.5 19.7958 10.5 19.0001V15.0001H4.84003C4.55012 15.0034 4.26297 14.9436 3.99846 14.8249C3.73395 14.7062 3.49842 14.5314 3.30817 14.3126C3.11793 14.0938 2.97753 13.8363 2.89669 13.5579C2.81586 13.2794 2.79652 12.9868 2.84003 12.7001L4.22003 3.70012C4.29235 3.22321 4.5346 2.78851 4.90212 2.47611C5.26965 2.16371 5.7377 1.99466 6.22003 2.00012H17.5M17.5 13.0001V2.00012M17.5 13.0001H20.17C20.736 13.0101 21.2859 12.812 21.7154 12.4433C22.145 12.0746 22.4242 11.5611 22.5 11.0001V4.00012C22.4242 3.43918 22.145 2.92562 21.7154 2.55694C21.2859 2.18825 20.736 1.99011 20.17 2.00012H17.5" stroke="black" stroke-width="2" stroke-linecap="round" stroke-linejoin="round"/>
</svg>
