<svg width="15" height="15" viewBox="0 0 15 15" fill="none" xmlns="http://www.w3.org/2000/svg">
<path d="M14.5009 5.4707H2.54053V14.3111H14.5009V5.4707Z" fill="white"/>
<path d="M0 7.5V15H15V0H0V7.5ZM12.0876 6.9C12.4469 6.98337 12.7734 7.17127 13.026 7.44C13.1651 7.58477 13.286 7.74596 13.386 7.92C13.386 7.9392 12.738 8.3772 12.3432 8.622C12.3288 8.6316 12.2712 8.5692 12.2076 8.4744C12.1355 8.35004 12.0331 8.24597 11.9099 8.17189C11.7868 8.09782 11.6468 8.05616 11.5032 8.0508C11.0484 8.0196 10.7556 8.2584 10.758 8.6508C10.7542 8.7485 10.7766 8.84543 10.8228 8.9316C10.9224 9.1392 11.1084 9.2628 11.6916 9.5148C12.7656 9.9768 13.2252 10.2816 13.5108 10.7148C13.83 11.1948 13.9008 11.97 13.6848 12.5436C13.4448 13.1676 12.8568 13.5912 12.0252 13.7316C11.6454 13.7751 11.2616 13.7711 10.8828 13.7196C10.3022 13.6239 9.76738 13.3451 9.3564 12.924C9.2184 12.7716 8.9496 12.3744 8.9664 12.3456C9.01021 12.3131 9.05633 12.2838 9.1044 12.258L9.66 11.9508L10.0908 11.7012L10.1808 11.8344C10.3327 12.0517 10.526 12.2368 10.7496 12.3792C11.2296 12.6312 11.8848 12.5964 12.2088 12.3048C12.3176 12.1979 12.3854 12.0563 12.4006 11.9046C12.4157 11.7529 12.3771 11.6006 12.2916 11.4744C12.1716 11.3076 11.9316 11.1672 11.2608 10.8744C10.4868 10.5408 10.1532 10.3344 9.8484 10.0056C9.65812 9.78863 9.51763 9.53264 9.4368 9.2556C9.37651 8.93909 9.36759 8.61494 9.4104 8.2956C9.57 7.548 10.1304 7.026 10.9488 6.8712C11.3278 6.8243 11.7117 6.83482 12.0876 6.9024V6.9ZM8.5668 7.5288V8.1432H6.6192V13.6908H5.238V8.142H3.2856V7.542C3.27952 7.33509 3.28433 7.128 3.3 6.9216C3.3096 6.9108 4.5 6.9108 5.94 6.9108H8.5596L8.5668 7.5288Z" fill="#007ACC"/>
</svg>
