<svg width="25" height="24" viewBox="0 0 25 24" fill="none" xmlns="http://www.w3.org/2000/svg">
<path d="M16.5 16L12.5 12L8.5 16" stroke="black" stroke-width="2" stroke-linecap="round" stroke-linejoin="round"/>
<path d="M12.5 12V21" stroke="black" stroke-width="2" stroke-linecap="round" stroke-linejoin="round"/>
<path d="M20.8904 18.39C21.8658 17.8583 22.6363 17.0169 23.0803 15.9986C23.5244 14.9804 23.6167 13.8432 23.3427 12.7667C23.0686 11.6901 22.4439 10.7355 21.5671 10.0534C20.6903 9.37137 19.6113 9.00072 18.5004 8.99998H17.2404C16.9378 7.82923 16.3736 6.74232 15.5904 5.82098C14.8072 4.89964 13.8253 4.16783 12.7185 3.68059C11.6118 3.19335 10.409 2.96334 9.20057 3.00787C7.99213 3.05239 6.80952 3.37028 5.74163 3.93765C4.67374 4.50501 3.74836 5.30709 3.03507 6.28357C2.32178 7.26004 1.83914 8.38552 1.62343 9.57538C1.40772 10.7652 1.46455 11.9885 1.78966 13.1532C2.11477 14.318 2.69969 15.3938 3.50045 16.3" stroke="black" stroke-width="2" stroke-linecap="round" stroke-linejoin="round"/>
<path d="M16.5 16L12.5 12L8.5 16" stroke="black" stroke-width="2" stroke-linecap="round" stroke-linejoin="round"/>
</svg>
