<svg width="25" height="24" viewBox="0 0 25 24" fill="none" xmlns="http://www.w3.org/2000/svg">
<path d="M23.0396 6.42C22.9208 5.94541 22.6789 5.51057 22.3382 5.15941C21.9976 4.80824 21.5703 4.55318 21.0996 4.42C19.3796 4 12.4996 4 12.4996 4C12.4996 4 5.6196 4 3.8996 4.46C3.42884 4.59318 3.00157 4.84824 2.66094 5.19941C2.32031 5.55057 2.07838 5.98541 1.9596 6.46C1.64481 8.20556 1.49083 9.97631 1.4996 11.75C1.48837 13.537 1.64236 15.3213 1.9596 17.08C2.09055 17.5398 2.3379 17.9581 2.67774 18.2945C3.01758 18.6308 3.43842 18.8738 3.8996 19C5.6196 19.46 12.4996 19.46 12.4996 19.46C12.4996 19.46 19.3796 19.46 21.0996 19C21.5703 18.8668 21.9976 18.6118 22.3382 18.2606C22.6789 17.9094 22.9208 17.4746 23.0396 17C23.352 15.2676 23.5059 13.5103 23.4996 11.75C23.5108 9.96295 23.3568 8.1787 23.0396 6.42Z" stroke="black" stroke-width="2" stroke-linecap="round" stroke-linejoin="round"/>
<path d="M10.25 15.02L16 11.75L10.25 8.47998V15.02Z" stroke="black" stroke-width="2" stroke-linecap="round" stroke-linejoin="round"/>
</svg>
