<svg width="31" height="22" viewBox="0 0 31 22" fill="none" xmlns="http://www.w3.org/2000/svg">
<path d="M28.3571 0.285645H2.64286C2.07454 0.285645 1.52949 0.511409 1.12763 0.913273C0.725765 1.31514 0.5 1.86018 0.5 2.4285V19.5714C0.5 20.1397 0.725765 20.6847 1.12763 21.0866C1.52949 21.4885 2.07454 21.7142 2.64286 21.7142H28.3571C28.9255 21.7142 29.4705 21.4885 29.8724 21.0866C30.2742 20.6847 30.5 20.1397 30.5 19.5714V2.4285C30.5 1.86018 30.2742 1.31514 29.8724 0.913273C29.4705 0.511409 28.9255 0.285645 28.3571 0.285645ZM26 2.4285L15.5 9.69279L5 2.4285H26ZM2.64286 19.5714V3.4035L14.8893 11.8785C15.0686 12.0029 15.2817 12.0696 15.5 12.0696C15.7183 12.0696 15.9314 12.0029 16.1107 11.8785L28.3571 3.4035V19.5714H2.64286Z" fill="white"/>
</svg>
