<svg width="29" height="21" viewBox="0 0 29 21" fill="none" xmlns="http://www.w3.org/2000/svg">
<path d="M26.5 0.5H2.5C1.96957 0.5 1.46086 0.710714 1.08579 1.08579C0.710714 1.46086 0.5 1.96957 0.5 2.5V18.5C0.5 19.0304 0.710714 19.5391 1.08579 19.9142C1.46086 20.2893 1.96957 20.5 2.5 20.5H26.5C27.0304 20.5 27.5391 20.2893 27.9142 19.9142C28.2893 19.5391 28.5 19.0304 28.5 18.5V2.5C28.5 1.96957 28.2893 1.46086 27.9142 1.08579C27.5391 0.710714 27.0304 0.5 26.5 0.5ZM24.3 2.5L14.5 9.28L4.7 2.5H24.3ZM2.5 18.5V3.41L13.93 11.32C14.0974 11.4361 14.2963 11.4984 14.5 11.4984C14.7037 11.4984 14.9026 11.4361 15.07 11.32L26.5 3.41V18.5H2.5Z" fill="white"/>
</svg>
