<svg width="31" height="30" viewBox="0 0 31 30" fill="none" xmlns="http://www.w3.org/2000/svg">
<path d="M15.5 0C7.21652 0 0.5 6.89063 0.5 15.3817C0.5 22.1786 4.79911 27.9375 10.7589 29.9732C10.8425 29.9914 10.9278 30.0004 11.0134 30C11.5692 30 11.7835 29.5915 11.7835 29.2366C11.7835 28.8683 11.7701 27.904 11.7634 26.6183C11.2672 26.7346 10.7596 26.7953 10.25 26.7991C7.36384 26.7991 6.70759 24.5558 6.70759 24.5558C6.02455 22.7813 5.04018 22.3058 5.04018 22.3058C3.73438 21.3884 5.03348 21.3616 5.13393 21.3616H5.14062C6.64732 21.4955 7.4375 22.9554 7.4375 22.9554C8.1875 24.2679 9.19196 24.6362 10.0893 24.6362C10.6826 24.6243 11.2668 24.4874 11.8036 24.2344C11.9375 23.2433 12.3259 22.567 12.7545 22.1786C9.42634 21.7902 5.92411 20.471 5.92411 14.5781C5.92411 12.8973 6.5067 11.5246 7.46429 10.4531C7.31027 10.0647 6.79464 8.49777 7.61161 6.3817C7.72119 6.35548 7.83382 6.34421 7.94643 6.34822C8.48884 6.34822 9.71429 6.5558 11.7366 7.96205C14.1939 7.27454 16.7927 7.27454 19.25 7.96205C21.2723 6.5558 22.4978 6.34822 23.0402 6.34822C23.1528 6.34421 23.2654 6.35548 23.375 6.3817C24.192 8.49777 23.6763 10.0647 23.5223 10.4531C24.4799 11.5313 25.0625 12.904 25.0625 14.5781C25.0625 20.4844 21.5536 21.7835 18.2121 22.1652C18.7478 22.6406 19.2299 23.5781 19.2299 25.0112C19.2299 27.067 19.2098 28.7277 19.2098 29.2299C19.2098 29.5915 19.4174 30 19.9732 30C20.0632 30.0004 20.153 29.9914 20.2411 29.9732C26.2076 27.9375 30.5 22.1719 30.5 15.3817C30.5 6.89063 23.7835 0 15.5 0Z" fill="#E8E8E8"/>
</svg>
