<svg width="15" height="16" viewBox="0 0 15 16" fill="none" xmlns="http://www.w3.org/2000/svg">
<path d="M7.5 0.5C3.35826 0.5 0 3.94531 0 8.19085C0 11.5893 2.14955 14.4688 5.12946 15.4866C5.17126 15.4957 5.21392 15.5002 5.2567 15.5C5.5346 15.5 5.64174 15.2958 5.64174 15.1183C5.64174 14.9342 5.63504 14.452 5.6317 13.8092C5.38361 13.8673 5.12981 13.8976 4.875 13.8996C3.43192 13.8996 3.10379 12.7779 3.10379 12.7779C2.76228 11.8906 2.27009 11.6529 2.27009 11.6529C1.61719 11.1942 2.26674 11.1808 2.31696 11.1808H2.32031C3.07366 11.2478 3.46875 11.9777 3.46875 11.9777C3.84375 12.6339 4.34598 12.8181 4.79464 12.8181C5.09131 12.8121 5.38338 12.7437 5.65179 12.6172C5.71875 12.1217 5.91295 11.7835 6.12723 11.5893C4.46317 11.3951 2.71205 10.7355 2.71205 7.78906C2.71205 6.94866 3.00335 6.26228 3.48214 5.72656C3.40513 5.53237 3.14732 4.74888 3.5558 3.69085C3.6106 3.67774 3.66691 3.67211 3.72321 3.67411C3.99442 3.67411 4.60714 3.7779 5.6183 4.48103C6.84694 4.13727 8.14636 4.13727 9.375 4.48103C10.3862 3.7779 10.9989 3.67411 11.2701 3.67411C11.3264 3.67211 11.3827 3.67774 11.4375 3.69085C11.846 4.74888 11.5882 5.53237 11.5112 5.72656C11.99 6.26563 12.2812 6.95201 12.2812 7.78906C12.2812 10.7422 10.5268 11.3917 8.85603 11.5826C9.12388 11.8203 9.36496 12.2891 9.36496 13.0056C9.36496 14.0335 9.35491 14.8638 9.35491 15.115C9.35491 15.2958 9.4587 15.5 9.73661 15.5C9.78159 15.5002 9.82648 15.4957 9.87053 15.4866C12.8538 14.4688 15 11.5859 15 8.19085C15 3.94531 11.6417 0.5 7.5 0.5Z" fill="#E8E8E8"/>
</svg>
