<svg width="31" height="30" viewBox="0 0 31 30" fill="none" xmlns="http://www.w3.org/2000/svg">
<path d="M28.1006 0H3.06339C1.69531 0 0.5 0.984373 0.5 2.33638V27.4292C0.5 28.7886 1.69531 30 3.06339 30H28.0933C29.4687 30 30.5 28.7805 30.5 27.4292V2.33638C30.508 0.984373 29.4687 0 28.1006 0ZM9.79932 25.0064H5.50155V11.6437H9.79932V25.0064ZM7.7991 9.61204H7.76829C6.39285 9.61204 5.50222 8.58816 5.50222 7.30646C5.50222 6.00133 6.41629 5.00156 7.82253 5.00156C9.22878 5.00156 10.0893 5.99396 10.1201 7.30646C10.1194 8.58816 9.22878 9.61204 7.7991 9.61204ZM25.5064 25.0064H21.2087V17.7C21.2087 15.9495 20.5832 14.7536 19.0283 14.7536C17.8404 14.7536 17.1373 15.5571 16.8245 16.3399C16.7073 16.6212 16.6759 17.0042 16.6759 17.3953V25.0064H12.3781V11.6437H16.6759V13.5033C17.3013 12.6127 18.2783 11.331 20.5518 11.331C23.373 11.331 25.5071 13.1906 25.5071 17.1998L25.5064 25.0064Z" fill="#E8E8E8"/>
</svg>
