<svg width="24" height="23" viewBox="0 0 24 23" fill="none" xmlns="http://www.w3.org/2000/svg">
<path d="M21.6605 0H2.46526C1.4164 0 0.5 0.754686 0.5 1.79122V21.0291C0.5 22.0712 1.4164 23 2.46526 23H21.6548C22.7093 23 23.5 22.0651 23.5 21.0291V1.79122C23.5061 0.754686 22.7093 0 21.6605 0ZM7.62948 19.1716H4.33453V8.92686H7.62948V19.1716ZM6.09597 7.36923H6.07236C5.01785 7.36923 4.33504 6.58425 4.33504 5.60162C4.33504 4.60102 5.03582 3.83453 6.11394 3.83453C7.19207 3.83453 7.85177 4.59537 7.87539 5.60162C7.87488 6.58425 7.19207 7.36923 6.09597 7.36923ZM19.6716 19.1716H16.3766V13.57C16.3766 12.228 15.8971 11.3111 14.705 11.3111C13.7943 11.3111 13.2552 11.9271 13.0155 12.5273C12.9256 12.7429 12.9015 13.0366 12.9015 13.3364V19.1716H9.60655V8.92686H12.9015V10.3526C13.381 9.66974 14.13 8.68711 15.873 8.68711C18.0359 8.68711 19.6721 10.1128 19.6721 13.1865L19.6716 19.1716Z" fill="#E8E8E8"/>
</svg>
