<svg width="25" height="25" viewBox="0 0 25 25" fill="none" xmlns="http://www.w3.org/2000/svg">
<path fill-rule="evenodd" clip-rule="evenodd" d="M21.0034 3.98755C19.8939 2.87759 18.5759 1.99802 17.1252 1.39949C15.6745 0.80096 14.1197 0.495282 12.5503 0.500055C5.96428 0.500055 0.602857 5.83469 0.600178 12.3929C0.597265 14.4812 1.14773 16.5329 2.19553 18.3393L0.5 24.5L6.83481 22.8463C8.58832 23.7962 10.5512 24.2934 12.5455 24.2927H12.5503C19.1359 24.2927 24.4967 18.9575 24.5 12.3999C24.504 10.8359 24.1969 9.28671 23.5966 7.84251C22.9963 6.39831 22.1148 5.08791 21.0034 3.98755ZM12.5503 22.2854H12.5461C10.7682 22.2859 9.02272 21.8101 7.49106 20.9075L7.12838 20.6932L3.36928 21.6747L4.37267 18.027L4.13642 17.652C3.14235 16.0782 2.61567 14.2544 2.61768 12.3929C2.61768 6.94308 7.07535 2.50898 12.5541 2.50898C15.1823 2.50429 17.7047 3.54373 19.5666 5.39868C21.4285 7.25364 22.4774 9.77219 22.4825 12.4004C22.4803 17.8507 18.0248 22.2854 12.5503 22.2854ZM17.998 14.8824C17.6996 14.7334 16.2302 14.0145 15.958 13.9154C15.6859 13.8163 15.485 13.7665 15.2862 14.0643C15.0875 14.3622 14.5148 15.0286 14.3407 15.2295C14.1666 15.4304 13.9925 15.4524 13.6941 15.3034C13.3957 15.1545 12.433 14.8411 11.2925 13.8286C10.4048 13.0406 9.80588 12.0677 9.63177 11.7704C9.45766 11.4731 9.61302 11.3118 9.76248 11.164C9.89695 11.0306 10.0609 10.8168 10.2103 10.6433C10.3598 10.4697 10.4096 10.3454 10.5087 10.1472C10.6078 9.94897 10.5586 9.7754 10.4841 9.627C10.4096 9.47861 9.81231 8.01558 9.56374 7.4204C9.32106 6.84076 9.07516 6.91951 8.89195 6.9104C8.71784 6.90183 8.51695 6.89969 8.31927 6.89969C8.16815 6.90362 8.01947 6.93867 7.8825 7.00263C7.74553 7.0666 7.62322 7.15812 7.5232 7.27147C7.24945 7.56933 6.47803 8.28933 6.47803 9.75075C6.47803 11.2122 7.54945 12.6265 7.69731 12.8247C7.84517 13.0229 9.80266 16.0245 12.7978 17.3118C13.354 17.55 13.9223 17.7589 14.5003 17.9375C15.2155 18.1636 15.8664 18.132 16.3807 18.0554C16.9544 17.9702 18.1485 17.3365 18.3966 16.6422C18.6446 15.9479 18.6452 15.3532 18.5707 15.2295C18.4962 15.1057 18.2969 15.0307 17.998 14.8824Z" fill="white"/>
</svg>
