<svg width="15" height="15" viewBox="0 0 15 15" fill="none" xmlns="http://www.w3.org/2000/svg">
<path d="M10.1337 8.35898C10.0282 9.23601 10.4561 9.70898 10.9352 10.77C11.3934 11.7734 10.4665 12.4516 10.3727 12.5177C10.3694 12.5193 10.3663 12.5214 10.3636 12.5238C9.55085 12.9559 8.64424 13.1813 7.72381 13.1801C6.23159 13.18 4.80049 12.5872 3.74531 11.5321C2.69013 10.477 2.09729 9.04589 2.09717 7.55367C2.09773 6.06208 2.6907 4.63176 3.74569 3.57731C4.80066 2.52286 6.23126 1.9306 7.72287 1.93079C8.73033 1.9305 9.71939 2.2008 10.5867 2.71345C11.454 3.22607 12.1677 3.96225 12.6532 4.845V4.8471C13.3221 7.10226 10.2361 7.48195 10.1337 8.35898Z" stroke="#455D7A" stroke-linecap="round" stroke-linejoin="round"/>
<path d="M12.6531 4.84497V4.84708C13.322 7.1013 10.236 7.48099 10.1335 8.35802C10.0311 9.23505 10.456 9.70802 10.9351 10.769C11.3933 11.7724 10.4664 12.4504 10.3726 12.5168C10.3693 12.5183 10.3662 12.5204 10.3635 12.5229" stroke="#455D7A" stroke-linecap="round" stroke-linejoin="round"/>
<path d="M7.72109 6.2072C8.30811 6.2072 8.78398 5.73133 8.78398 5.14431C8.78398 4.5573 8.30811 4.08142 7.72109 4.08142C7.13408 4.08142 6.6582 4.5573 6.6582 5.14431C6.6582 5.73133 7.13408 6.2072 7.72109 6.2072Z" stroke="#455D7A" stroke-linecap="round" stroke-linejoin="round"/>
<path d="M5.31006 8.17615C5.65309 8.17615 5.93115 7.89806 5.93115 7.55505C5.93115 7.21202 5.65309 6.93396 5.31006 6.93396C4.96703 6.93396 4.68896 7.21202 4.68896 7.55505C4.68896 7.89806 4.96703 8.17615 5.31006 8.17615Z" stroke="#455D7A" stroke-linecap="round" stroke-linejoin="round"/>
<path d="M6.19416 10.3278C6.39389 10.3278 6.5558 10.1659 6.5558 9.96613C6.5558 9.7664 6.39389 9.60449 6.19416 9.60449C5.99443 9.60449 5.83252 9.7664 5.83252 9.96613C5.83252 10.1659 5.99443 10.3278 6.19416 10.3278Z" stroke="#455D7A" stroke-linecap="round" stroke-linejoin="round"/>
</svg>
