<svg width="15" height="15" viewBox="0 0 15 15" fill="none" xmlns="http://www.w3.org/2000/svg">
<path d="M7.5 11.25H7.50625M5.75 13.125H9.25C9.95006 13.125 10.3001 13.125 10.5675 12.9887C10.8027 12.8689 10.9939 12.6777 11.1137 12.4425C11.25 12.1751 11.25 11.8251 11.25 11.125V3.875C11.25 3.17494 11.25 2.8249 11.1137 2.55751C10.9939 2.32231 10.8027 2.13108 10.5675 2.01124C10.3001 1.875 9.95006 1.875 9.25 1.875H5.75C5.04994 1.875 4.6999 1.875 4.43251 2.01124C4.19731 2.13108 4.00608 2.32231 3.88624 2.55751C3.75 2.8249 3.75 3.17493 3.75 3.875V11.125C3.75 11.8251 3.75 12.1751 3.88624 12.4425C4.00608 12.6777 4.19731 12.8689 4.43251 12.9887C4.6999 13.125 5.04993 13.125 5.75 13.125Z" stroke="#455D7A" stroke-linecap="round" stroke-linejoin="round"/>
</svg>
