<svg width="15" height="15" viewBox="0 0 15 15" fill="none" xmlns="http://www.w3.org/2000/svg">
<path d="M11.875 10.4688H3.125C2.83543 10.4671 2.55818 10.3514 2.35341 10.1466C2.14865 9.94181 2.03289 9.66456 2.03125 9.375V3.125C2.03289 2.83543 2.14865 2.55818 2.35341 2.35341C2.55818 2.14865 2.83543 2.03289 3.125 2.03125H11.875C12.1646 2.03289 12.4418 2.14865 12.6466 2.35341C12.8514 2.55818 12.9671 2.83543 12.9688 3.125V9.375C12.9671 9.66456 12.8514 9.94181 12.6466 10.1466C12.4418 10.3514 12.1646 10.4671 11.875 10.4688ZM3.125 2.96875C3.08356 2.96875 3.04382 2.98521 3.01451 3.01451C2.98521 3.04382 2.96875 3.08356 2.96875 3.125V9.375C2.96875 9.41644 2.98521 9.45619 3.01451 9.4855C3.04382 9.51481 3.08356 9.53125 3.125 9.53125H11.875C11.9164 9.53125 11.9562 9.51481 11.9855 9.4855C12.0148 9.45619 12.0312 9.41644 12.0312 9.375V3.125C12.0312 3.08356 12.0148 3.04382 11.9855 3.01451C11.9562 2.98521 11.9164 2.96875 11.875 2.96875H3.125Z" fill="#455D7A"/>
<path d="M9.375 12.9688H7.5C7.37619 12.9671 7.25787 12.9173 7.17031 12.8297C7.08275 12.7421 7.03288 12.6238 7.03125 12.5V10C7.03125 9.87569 7.08062 9.75644 7.16856 9.66856C7.25644 9.58062 7.37569 9.53125 7.5 9.53125C7.62431 9.53125 7.74356 9.58062 7.83144 9.66856C7.91938 9.75644 7.96875 9.87569 7.96875 10V12.0312H9.375C9.49931 12.0312 9.61856 12.0806 9.70644 12.1686C9.79438 12.2564 9.84375 12.3757 9.84375 12.5C9.84375 12.6243 9.79438 12.7436 9.70644 12.8314C9.61856 12.9194 9.49931 12.9688 9.375 12.9688Z" fill="#455D7A"/>
<path d="M7.5 12.9688H5.625C5.50068 12.9688 5.38145 12.9194 5.29354 12.8314C5.20564 12.7436 5.15625 12.6243 5.15625 12.5C5.15625 12.3757 5.20564 12.2564 5.29354 12.1686C5.38145 12.0806 5.50068 12.0312 5.625 12.0312H7.5C7.62431 12.0312 7.74356 12.0806 7.83144 12.1686C7.91938 12.2564 7.96875 12.3757 7.96875 12.5C7.96875 12.6243 7.91938 12.7436 7.83144 12.8314C7.74356 12.9194 7.62431 12.9688 7.5 12.9688Z" fill="#455D7A"/>
</svg>
