<svg width="48" height="48" viewBox="0 0 48 48" fill="none" xmlns="http://www.w3.org/2000/svg">
<rect width="48" height="48" rx="24" fill="white"/>
<path d="M16.5 29V24C16.5 22.0109 17.2902 20.1032 18.6967 18.6967C20.1032 17.2902 22.0109 16.5 24 16.5C25.9891 16.5 27.8968 17.2902 29.3033 18.6967C30.7098 20.1032 31.5 22.0109 31.5 24V29" stroke="#1F2937" stroke-width="2" stroke-linecap="round" stroke-linejoin="round"/>
<path d="M31.5 29.8334C31.5 30.2754 31.3244 30.6994 31.0118 31.0119C30.6993 31.3245 30.2754 31.5001 29.8333 31.5001H29C28.558 31.5001 28.134 31.3245 27.8215 31.0119C27.5089 30.6994 27.3333 30.2754 27.3333 29.8334V27.3334C27.3333 26.8914 27.5089 26.4675 27.8215 26.1549C28.134 25.8423 28.558 25.6667 29 25.6667H31.5V29.8334ZM16.5 29.8334C16.5 30.2754 16.6756 30.6994 16.9882 31.0119C17.3007 31.3245 17.7246 31.5001 18.1667 31.5001H19C19.442 31.5001 19.866 31.3245 20.1785 31.0119C20.4911 30.6994 20.6667 30.2754 20.6667 29.8334V27.3334C20.6667 26.8914 20.4911 26.4675 20.1785 26.1549C19.866 25.8423 19.442 25.6667 19 25.6667H16.5V29.8334Z" stroke="#1F2937" stroke-width="2" stroke-linecap="round" stroke-linejoin="round"/>
</svg>
