<svg width="48" height="48" viewBox="0 0 48 48" fill="none" xmlns="http://www.w3.org/2000/svg">
<rect width="48" height="48" rx="24" fill="white"/>
<path d="M30.6667 31.5V29.8333C30.6667 28.9493 30.3155 28.1014 29.6904 27.4763C29.0652 26.8512 28.2174 26.5 27.3333 26.5H20.6667C19.7826 26.5 18.9348 26.8512 18.3097 27.4763C17.6845 28.1014 17.3333 28.9493 17.3333 29.8333V31.5" stroke="#1F2937" stroke-width="2" stroke-linecap="round" stroke-linejoin="round"/>
<path d="M24 23.1667C25.8409 23.1667 27.3333 21.6743 27.3333 19.8333C27.3333 17.9924 25.8409 16.5 24 16.5C22.159 16.5 20.6667 17.9924 20.6667 19.8333C20.6667 21.6743 22.159 23.1667 24 23.1667Z" stroke="#1F2937" stroke-width="2" stroke-linecap="round" stroke-linejoin="round"/>
</svg>
