<svg width="72" height="73" viewBox="0 0 72 73" fill="none" xmlns="http://www.w3.org/2000/svg">
<rect y="0.5" width="72" height="72" rx="36" fill="white"/>
<path d="M32 45.8333C25.3333 47.8333 25.3333 42.5 22.6666 41.8333M41.3333 49.8333V44.6733C41.3833 44.0375 41.2974 43.3984 41.0813 42.7984C40.8652 42.1984 40.5239 41.6512 40.08 41.1933C44.2666 40.7267 48.6666 39.14 48.6666 31.86C48.6663 29.9984 47.9502 28.2083 46.6666 26.86C47.2744 25.2313 47.2315 23.4311 46.5466 21.8333C46.5466 21.8333 44.9733 21.3667 41.3333 23.8067C38.2773 22.9784 35.0559 22.9784 32 23.8067C28.36 21.3667 26.7866 21.8333 26.7866 21.8333C26.1018 23.4311 26.0588 25.2313 26.6666 26.86C25.3735 28.2183 24.6567 30.0246 24.6666 31.9C24.6666 39.1267 29.0666 40.7133 33.2533 41.2333C32.8146 41.6866 32.4763 42.2272 32.2604 42.8199C32.0444 43.4126 31.9557 44.0441 32 44.6733V49.8333" stroke="#1F2937" stroke-width="2" stroke-linecap="round" stroke-linejoin="round"/>
</svg>
