<svg width="72" height="73" viewBox="0 0 72 73" fill="none" xmlns="http://www.w3.org/2000/svg">
<rect y="0.5" width="72" height="72" rx="36" fill="white"/>
<path d="M42.6666 23.1667H29.3333C25.6514 23.1667 22.6666 26.1515 22.6666 29.8334V43.1667C22.6666 46.8486 25.6514 49.8334 29.3333 49.8334H42.6666C46.3485 49.8334 49.3333 46.8486 49.3333 43.1667V29.8334C49.3333 26.1515 46.3485 23.1667 42.6666 23.1667Z" stroke="#1F2937" stroke-width="2" stroke-linecap="round" stroke-linejoin="round"/>
<path d="M41.3334 35.6599C41.4979 36.7696 41.3084 37.9029 40.7917 38.8986C40.275 39.8943 39.4575 40.7018 38.4555 41.2061C37.4535 41.7105 36.3179 41.886 35.2104 41.7078C34.1029 41.5296 33.0797 41.0067 32.2865 40.2135C31.4932 39.4202 30.9703 38.3971 30.7921 37.2895C30.6139 36.182 30.7894 35.0464 31.2938 34.0444C31.7981 33.0424 32.6056 32.2249 33.6013 31.7082C34.5971 31.1916 35.7304 31.002 36.84 31.1666C37.9719 31.3344 39.0198 31.8619 39.8289 32.671C40.6381 33.4801 41.1655 34.528 41.3334 35.6599Z" stroke="#1F2937" stroke-width="2" stroke-linecap="round" stroke-linejoin="round"/>
<path d="M43.3334 29.1667H43.3467" stroke="#1F2937" stroke-width="2" stroke-linecap="round" stroke-linejoin="round"/>
</svg>
