<svg width="72" height="73" viewBox="0 0 72 73" fill="none" xmlns="http://www.w3.org/2000/svg">
<rect y="0.5" width="72" height="72" rx="36" fill="white"/>
<path d="M41.3334 31.1667C43.4551 31.1667 45.4899 32.0096 46.9902 33.5099C48.4905 35.0102 49.3334 37.045 49.3334 39.1667V48.5001H44V39.1667C44 38.4595 43.7191 37.7812 43.219 37.2811C42.7189 36.781 42.0406 36.5001 41.3334 36.5001C40.6261 36.5001 39.9479 36.781 39.4478 37.2811C38.9477 37.7812 38.6667 38.4595 38.6667 39.1667V48.5001H33.3334V39.1667C33.3334 37.045 34.1762 35.0102 35.6765 33.5099C37.1768 32.0096 39.2116 31.1667 41.3334 31.1667Z" stroke="#1F2937" stroke-width="2" stroke-linecap="round" stroke-linejoin="round"/>
<path d="M28 32.5H22.6666V48.5H28V32.5Z" stroke="#1F2937" stroke-width="2" stroke-linecap="round" stroke-linejoin="round"/>
<path d="M25.3333 28.5001C26.8061 28.5001 28 27.3062 28 25.8334C28 24.3607 26.8061 23.1667 25.3333 23.1667C23.8605 23.1667 22.6666 24.3607 22.6666 25.8334C22.6666 27.3062 23.8605 28.5001 25.3333 28.5001Z" stroke="#1F2937" stroke-width="2" stroke-linecap="round" stroke-linejoin="round"/>
</svg>
