<svg width="72" height="73" viewBox="0 0 72 73" fill="none" xmlns="http://www.w3.org/2000/svg">
<rect y="0.5" width="72" height="72" rx="36" fill="white"/>
<path d="M50.0533 29.0599C49.8949 28.4271 49.5723 27.8473 49.1182 27.3791C48.664 26.9109 48.0943 26.5708 47.4666 26.3933C45.1733 25.8333 35.9999 25.8333 35.9999 25.8333C35.9999 25.8333 26.8266 25.8333 24.5333 26.4466C23.9056 26.6242 23.3359 26.9642 22.8817 27.4325C22.4276 27.9007 22.105 28.4805 21.9466 29.1133C21.5269 31.4407 21.3216 33.8017 21.3333 36.1666C21.3183 38.5493 21.5236 40.9283 21.9466 43.2733C22.1212 43.8864 22.451 44.4441 22.9041 44.8926C23.3573 45.341 23.9184 45.665 24.5333 45.8333C26.8266 46.4466 35.9999 46.4466 35.9999 46.4466C35.9999 46.4466 45.1733 46.4466 47.4666 45.8333C48.0943 45.6557 48.664 45.3156 49.1182 44.8474C49.5723 44.3792 49.8949 43.7994 50.0533 43.1666C50.4698 40.8567 50.675 38.5137 50.6666 36.1666C50.6816 33.7839 50.4763 31.4048 50.0533 29.0599Z" stroke="#1F2937" stroke-width="2" stroke-linecap="round" stroke-linejoin="round"/>
<path d="M33 40.5266L40.6667 36.1666L33 31.8066V40.5266Z" stroke="#1F2937" stroke-width="2" stroke-linecap="round" stroke-linejoin="round"/>
</svg>
