<svg width="15" height="15" viewBox="0 0 15 15" fill="none" xmlns="http://www.w3.org/2000/svg">
<g clip-path="url(#clip0_631_1259)">
<path d="M14.125 10.4688L14.0625 10.2813C14 10.1563 13.9688 10.0313 13.9062 9.9375C13.8438 9.8125 13.8125 9.6875 13.75 9.59375C13.6875 9.46875 13.625 9.34375 13.5625 9.21875L13.5312 9.1875C12.5 6.9375 11.4375 4.78125 10.375 2.71875L10.3438 2.625C10.2188 2.40625 10.0938 2.1875 10 1.9375L9.9375 1.875C9.8125 1.625 9.65625 1.375 9.4375 1.125C8.96875 0.53125 8.25 0.1875 7.5 0.1875C6.75 0.1875 6.0625 0.5 5.5625 1.09375C5.34375 1.375 5.1875 1.65625 5.03125 1.90625C4.90625 2.125 4.8125 2.375 4.6875 2.59375L4.65625 2.6875C3.4375 5.03125 2.375 7.15625 1.46875 9.15625L1.4375 9.1875C1.375 9.3125 1.3125 9.4375 1.28125 9.5625C1.21875 9.6875 1.1875 9.78125 1.125 9.90625C1.0625 10.0625 0.96875 10.25 0.90625 10.4375C0.71875 11 0.65625 11.5313 0.71875 12.0625C0.875 13.1875 1.625 14.125 2.6875 14.5625C3.0625 14.7188 3.46875 14.8125 3.90625 14.8125C4.03125 14.8125 4.1875 14.7813 4.3125 14.7813C4.8125 14.7188 5.34375 14.5625 5.8125 14.2813C6.375 13.9688 6.90625 13.5313 7.53125 12.875C8.125 13.5 8.6875 13.9375 9.25 14.2813C9.71875 14.5625 10.2188 14.7188 10.75 14.7813C10.8438 14.7813 11 14.8125 11.1563 14.8125C11.5938 14.8125 12.0312 14.7188 12.375 14.5625C13.4062 14.1563 14.1563 13.1875 14.3438 12.0625C14.375 11.5938 14.3125 11.0625 14.125 10.4688ZM6.15625 7.75C6.1875 7.5625 6.25 7.375 6.34375 7.21875C6.59375 6.84375 7 6.65625 7.46875 6.65625C7.96875 6.65625 8.375 6.875 8.59375 7.21875C8.71875 7.375 8.78125 7.5625 8.8125 7.75C8.84375 8 8.84375 8.28125 8.78125 8.5625C8.625 9.25 8.1875 10.0938 7.46875 11.0313C6.78125 10.125 6.3125 9.28125 6.15625 8.5625C6.125 8.25 6.125 8 6.15625 7.75ZM10 8.875C10.0938 8.4375 10.125 8.03125 10.0625 7.59375C10 7.21875 9.875 6.84375 9.65625 6.5625C9.1875 5.875 8.40625 5.46875 7.5 5.46875C6.625 5.46875 5.84375 5.875 5.34375 6.5625C5.125 6.875 5 7.21875 4.9375 7.59375C4.875 8 4.90625 8.4375 5 8.875C5.21875 9.8125 5.78125 10.875 6.6875 12.0313C6.15625 12.625 5.65625 13.0313 5.1875 13.3125C4.84375 13.5 4.5 13.625 4.15625 13.6563C3.8125 13.6875 3.46875 13.6563 3.125 13.5313C2.46875 13.25 2 12.6563 1.90625 11.9688C1.875 11.5625 1.90625 11.25 2.0625 10.875C2.09375 10.7813 2.125 10.6875 2.1875 10.5938C2.21875 10.5313 2.21875 10.5 2.25 10.4375C2.34375 10.2188 2.46875 9.96875 2.5625 9.71875V9.6875C3.625 7.4375 4.6875 5.25 5.71875 3.25L5.75 3.15625C5.8125 3.0625 5.875 2.9375 5.9375 2.8125C6 2.6875 6.0625 2.59375 6.125 2.46875C6.25 2.21875 6.375 2.03125 6.5 1.875C6.78125 1.5625 7.125 1.40625 7.53125 1.40625C7.9375 1.40625 8.28125 1.5625 8.5625 1.875C8.6875 2.03125 8.8125 2.21875 8.9375 2.46875C9 2.5625 9.0625 2.6875 9.09375 2.8125C9.15625 2.9375 9.21875 3.03125 9.25 3.125L9.28125 3.21875C10.375 5.34375 11.4063 7.5 12.4063 9.625L12.4375 9.6875C12.5 9.8125 12.5312 9.90625 12.5938 10.0312C12.6562 10.1562 12.7188 10.2813 12.75 10.375C12.7812 10.4375 12.7812 10.4688 12.8125 10.5313C12.875 10.625 12.9063 10.7188 12.9375 10.8125C13.0625 11.1875 13.0938 11.5313 13.0313 11.8438C12.9375 12.5313 12.4688 13.125 11.8125 13.4063C11.5 13.5313 11.1562 13.5938 10.8125 13.5313C10.4688 13.5 10.125 13.375 9.78125 13.1875C9.3125 12.9375 8.84375 12.5313 8.28125 11.9063C9.21875 10.875 9.78125 9.8125 10 8.875Z" fill="#FF5A5F"/>
</g>
<defs>
<clipPath id="clip0_631_1259">
<rect width="15" height="15" rx="4" fill="white"/>
</clipPath>
</defs>
</svg>
