<svg width="15" height="15" viewBox="0 0 15 15" fill="none" xmlns="http://www.w3.org/2000/svg">
<g clip-path="url(#clip0_967_736)">
<path opacity="0.5" d="M8.61975 13.3244L8.24706 13.9541C7.91488 14.5152 7.08506 14.5152 6.75287 13.9541L6.38019 13.3244C6.09112 12.836 5.94659 12.5918 5.71442 12.4567C5.48225 12.3217 5.18994 12.3167 4.60534 12.3066C3.74227 12.2917 3.20099 12.2389 2.74702 12.0508C1.90474 11.7019 1.23555 11.0328 0.886663 10.1905C0.625 9.55875 0.625 8.75794 0.625 7.15625V6.46875C0.625 4.21827 0.625 3.09303 1.13155 2.26641C1.41499 1.80388 1.80388 1.41499 2.26641 1.13155C3.09303 0.625 4.21827 0.625 6.46875 0.625H8.53125C10.7817 0.625 11.907 0.625 12.7336 1.13155C13.1961 1.41499 13.585 1.80388 13.8684 2.26641C14.375 3.09303 14.375 4.21827 14.375 6.46875V7.15625C14.375 8.75794 14.375 9.55875 14.1133 10.1905C13.7644 11.0328 13.0952 11.7019 12.253 12.0508C11.799 12.2389 11.2577 12.2917 10.3946 12.3066C9.81 12.3167 9.51775 12.3217 9.28556 12.4567C9.05338 12.5918 8.90888 12.836 8.61975 13.3244Z" fill="#1E3A8A"/>
<path fill-rule="evenodd" clip-rule="evenodd" d="M9.54166 4.26846C9.74303 4.06709 10.0695 4.06709 10.2709 4.26846L10.3888 4.38641C10.3973 4.39486 10.4057 4.40329 10.4141 4.41169C10.8509 4.84846 11.2152 5.21267 11.4654 5.54069C11.7296 5.88691 11.9148 6.25269 11.9148 6.69556C11.9148 7.13838 11.7296 7.50419 11.4654 7.85044C11.2152 8.17844 10.8509 8.54269 10.4141 8.97944L10.2709 9.12269C10.0695 9.324 9.74303 9.324 9.54166 9.12269C9.34028 8.92132 9.34028 8.59481 9.54166 8.39344L9.65966 8.2755C10.1283 7.80688 10.4423 7.49131 10.6455 7.22488C10.8397 6.97038 10.8836 6.82225 10.8836 6.69556C10.8836 6.56888 10.8397 6.42069 10.6455 6.16623C10.4423 5.89983 10.1283 5.58426 9.65966 5.11561L9.54166 4.99766C9.34028 4.7963 9.34028 4.46982 9.54166 4.26846Z" fill="white"/>
<path fill-rule="evenodd" clip-rule="evenodd" d="M8.52329 2.87756C8.79836 2.95127 8.96161 3.23401 8.88792 3.50907L7.10854 10.1498C7.03486 10.4249 6.75211 10.5881 6.47704 10.5144C6.20196 10.4407 6.03872 10.158 6.11242 9.88291L7.89179 3.24216C7.96548 2.96709 8.24823 2.80386 8.52329 2.87756Z" fill="white"/>
<path fill-rule="evenodd" clip-rule="evenodd" d="M5.45814 4.26846C5.25678 4.06709 4.9303 4.06709 4.72894 4.26846L4.61099 4.38641C4.60253 4.39486 4.5941 4.40329 4.5857 4.41169C4.1489 4.84846 3.78467 5.21267 3.5344 5.54069C3.27024 5.88691 3.08496 6.25269 3.08496 6.69556C3.08496 7.13838 3.27024 7.50419 3.5344 7.85044C3.78467 8.17844 4.14891 8.54269 4.58571 8.97944L4.72894 9.12269C4.9303 9.324 5.25678 9.324 5.45814 9.12269C5.65951 8.92132 5.65951 8.59481 5.45814 8.39344L5.34019 8.2755C4.87155 7.80688 4.55752 7.49131 4.35427 7.22488C4.1601 6.97038 4.11621 6.82225 4.11621 6.69556C4.11621 6.56888 4.1601 6.42069 4.35427 6.16623C4.55752 5.89983 4.87155 5.58426 5.34019 5.11561L5.45814 4.99766C5.65951 4.7963 5.65951 4.46982 5.45814 4.26846Z" fill="white"/>
</g>
<defs>
<clipPath id="clip0_967_736">
<rect width="15" height="15" rx="4" fill="white"/>
</clipPath>
</defs>
</svg>
