<svg width="15" height="15" viewBox="0 0 15 15" fill="none" xmlns="http://www.w3.org/2000/svg">
<path opacity="0.1" d="M5.61 1.875C2.53422 1.875 1.875 2.53422 1.875 5.61V9.39C1.875 12.4657 2.53422 13.125 5.61 13.125H5.625V5.625H13.125V5.61C13.125 2.53422 12.4657 1.875 9.39 1.875H5.61Z" fill="#323232"/>
<path d="M1.875 5.61C1.875 2.53422 2.53422 1.875 5.61 1.875H9.39C12.4657 1.875 13.125 2.53422 13.125 5.61V9.39C13.125 12.4657 12.4657 13.125 9.39 13.125H5.61C2.53422 13.125 1.875 12.4657 1.875 9.39V5.61Z" stroke="#323232"/>
<path d="M13.125 5.625H1.875" stroke="#323232" stroke-linecap="round" stroke-linejoin="round"/>
<path d="M5.625 13.125V5.625" stroke="#323232" stroke-linecap="round" stroke-linejoin="round"/>
</svg>
