<svg width="15" height="15" viewBox="0 0 15 15" fill="none" xmlns="http://www.w3.org/2000/svg">
<rect width="15" height="15" rx="4" fill="white"/>
<path d="M7.5 13.8235C4.6875 13.8235 2.8125 8.16099 2.8125 5.85474C2.8125 4.61153 3.30636 3.41925 4.18544 2.54017C5.06451 1.6611 6.2568 1.16724 7.5 1.16724C8.7432 1.16724 9.93549 1.6611 10.8146 2.54017C11.6936 3.41925 12.1875 4.61153 12.1875 5.85474C12.1875 8.16099 10.3125 13.8235 7.5 13.8235ZM7.5 2.10474C6.50544 2.10474 5.55161 2.49982 4.84835 3.20309C4.14509 3.90635 3.75 4.86017 3.75 5.85474C3.75 8.04849 5.56406 12.886 7.5 12.886C9.43594 12.886 11.25 8.05786 11.25 5.85474C11.2475 4.8618 10.8513 3.91038 10.1483 3.20914C9.44535 2.50791 8.49294 2.11411 7.5 2.11411V2.10474Z" fill="#17061C"/>
<path d="M7.5002 7.79531C8.53314 7.79531 9.37051 6.95795 9.37051 5.925C9.37051 4.89206 8.53314 4.05469 7.5002 4.05469C6.46725 4.05469 5.62988 4.89206 5.62988 5.925C5.62988 6.95795 6.46725 7.79531 7.5002 7.79531Z" fill="#FF4A64"/>
<path d="M7.5 8.26404C7.03645 8.26404 6.58331 8.12658 6.19788 7.86905C5.81246 7.61151 5.51205 7.24547 5.33466 6.8172C5.15727 6.38894 5.11085 5.91769 5.20129 5.46305C5.29172 5.0084 5.51494 4.59079 5.84272 4.26301C6.1705 3.93523 6.58812 3.71201 7.04276 3.62157C7.4974 3.53114 7.96865 3.57755 8.39692 3.75495C8.82518 3.93234 9.19122 4.23274 9.44876 4.61817C9.70629 5.0036 9.84375 5.45674 9.84375 5.92029C9.84375 6.54189 9.59682 7.13803 9.15728 7.57757C8.71774 8.01711 8.1216 8.26404 7.5 8.26404ZM7.5 4.51404C7.22187 4.51404 6.94999 4.59651 6.71873 4.75104C6.48747 4.90556 6.30723 5.12518 6.2008 5.38214C6.09436 5.6391 6.06651 5.92185 6.12077 6.19463C6.17503 6.46742 6.30896 6.71799 6.50563 6.91466C6.7023 7.11133 6.95287 7.24526 7.22566 7.29952C7.49844 7.35378 7.78119 7.32593 8.03815 7.21949C8.29511 7.11306 8.51473 6.93282 8.66926 6.70156C8.82378 6.4703 8.90625 6.19842 8.90625 5.92029C8.90255 5.54977 8.75275 5.19569 8.48943 4.935C8.22611 4.67431 7.87054 4.52808 7.5 4.5281V4.51404Z" fill="#17061C"/>
</svg>
