<svg width="26" height="26" viewBox="0 0 26 26" fill="none" xmlns="http://www.w3.org/2000/svg">
<g clip-path="url(#clip0_759_235)">
<path fill-rule="evenodd" clip-rule="evenodd" d="M2.33059 1.9518C0.5 3.78238 0.5 6.72865 0.5 12.6212C0.5 18.5137 0.5 21.4601 2.33059 23.2906C4.16116 25.1212 7.10744 25.1212 13 25.1212C18.8925 25.1212 21.8389 25.1212 23.6694 23.2906C25.5 21.4601 25.5 18.5137 25.5 12.6212C25.5 6.72865 25.5 3.78238 23.6694 1.9518C21.8389 0.121216 18.8925 0.121216 13 0.121216C7.10744 0.121216 4.16116 0.121216 2.33059 1.9518ZM6.02981 9.52107C6.36129 9.1233 6.95244 9.06957 7.3502 9.40103L7.69572 9.68896C8.45191 10.3191 9.09566 10.8555 9.54119 11.3488C10.0144 11.8728 10.3837 12.4755 10.3837 13.2462C10.3837 14.017 10.0144 14.6196 9.54119 15.1436C9.09566 15.637 8.45191 16.1735 7.69572 16.8035L7.3502 17.0915C6.95244 17.423 6.36129 17.3692 6.02981 16.9715C5.69835 16.5736 5.75209 15.9825 6.14985 15.6511L6.44285 15.4068C7.26606 14.7208 7.80435 14.2693 8.1496 13.887C8.47745 13.524 8.50868 13.3537 8.50868 13.2462C8.50868 13.1387 8.47745 12.9686 8.1496 12.6055C7.80435 12.2231 7.26606 11.7716 6.44286 11.0856L6.14985 10.8415C5.75209 10.51 5.69835 9.91883 6.02981 9.52107ZM20.1875 16.3712C20.1875 16.889 19.7677 17.3087 19.25 17.3087H13C12.4823 17.3087 12.0625 16.889 12.0625 16.3712C12.0625 15.8535 12.4823 15.4337 13 15.4337H19.25C19.7677 15.4337 20.1875 15.8535 20.1875 16.3712Z" fill="#121212"/>
</g>
<defs>
<clipPath id="clip0_759_235">
<rect width="25" height="25" fill="white" transform="translate(0.5 0.621216)"/>
</clipPath>
</defs>
</svg>
