<svg width="35" height="24" viewBox="0 0 35 24" fill="none" xmlns="http://www.w3.org/2000/svg">
<path d="M17.5 14.5469C17.3542 14.5469 17.2083 14.5469 17.0625 14.401L1.02083 8.56771C0.4375 8.42187 0 7.83854 0 7.25521C0 6.67187 0.4375 6.08854 1.02083 5.94271L17.0625 0.109375C17.3542 -0.0364583 17.7917 -0.0364583 18.0833 0.109375L34.125 5.94271C34.5625 6.08854 35 6.67187 35 7.25521C35 7.83854 34.5625 8.42187 33.9792 8.56771L17.9375 14.401C17.7917 14.5469 17.6458 14.5469 17.5 14.5469ZM5.6875 7.25521L17.5 11.4844L29.3125 7.25521L17.5 3.02604L5.6875 7.25521Z" fill="white"/>
<path d="M27.7084 23.2967H17.5001C16.6251 23.2967 16.0417 22.7134 16.0417 21.8384C16.0417 20.9634 16.6251 20.3801 17.5001 20.3801H26.2501C26.1042 16.5884 25.2292 13.3801 23.7709 11.0467C23.3334 10.3176 23.6251 9.44258 24.2084 9.00508C24.9376 8.56758 25.8126 8.85925 26.2501 9.44258C28.1459 12.5051 29.1667 16.7342 29.1667 21.6926C29.1667 22.7134 28.5834 23.2967 27.7084 23.2967Z" fill="white"/>
<path d="M17.4999 23.2969H7.29159C6.41659 23.2969 5.83325 22.7135 5.83325 21.8385C5.83325 16.8802 6.85409 12.651 8.74992 9.58854C9.18742 8.85938 10.0624 8.71354 10.7916 9.15104C11.5208 9.58854 11.6666 10.4635 11.2291 11.1927C9.77075 13.526 8.89575 16.7344 8.74992 20.526H17.4999C18.3749 20.526 18.9583 21.1094 18.9583 21.9844C18.9583 22.8594 18.3749 23.2969 17.4999 23.2969ZM32.0833 23.2969C31.2083 23.2969 30.6249 22.7135 30.6249 21.8385V7.25521C30.6249 6.38021 31.2083 5.79688 32.0833 5.79688C32.9583 5.79688 33.5416 6.38021 33.5416 7.25521V21.8385C33.5416 22.7135 32.9583 23.2969 32.0833 23.2969Z" fill="white"/>
</svg>
