<svg width="30" height="30" viewBox="0 0 30 30" fill="none" xmlns="http://www.w3.org/2000/svg">
<path fill-rule="evenodd" clip-rule="evenodd" d="M4.91415 4.56146C5.96341 4.41951 7.24829 4.39463 8.79366 4.39171C8.88548 3.19677 9.42503 2.08055 10.3044 1.2663C11.1838 0.452048 12.3381 -0.000203724 13.5366 6.88449e-08H16.4634C17.6614 0.000136582 18.8152 0.45235 19.6942 1.26626C20.5732 2.08017 21.1127 3.19582 21.2049 4.39024C22.7517 4.39463 24.0366 4.41951 25.0859 4.56146C26.4029 4.73707 27.5122 5.11756 28.3932 5.99707C29.2741 6.87805 29.6517 7.98732 29.8302 9.30439C30 10.5732 30 12.1873 30 14.1878V20.2024C30 22.2029 30 23.8171 29.8302 25.0859C29.6517 26.4029 29.2741 27.5122 28.3932 28.3932C27.5122 29.2741 26.4029 29.6517 25.0859 29.8302C23.8171 30 22.2029 30 20.2024 30H9.79756C7.79707 30 6.18293 30 4.91415 29.8302C3.59707 29.6517 2.4878 29.2741 1.60683 28.3932C0.725854 27.5122 0.348293 26.4029 0.171219 25.0859C-2.18066e-08 23.8171 0 22.2029 0 20.2024V14.1878C0 12.1873 -2.18066e-08 10.5732 0.171219 9.30439C0.346829 7.98732 0.727317 6.87805 1.60683 5.99707C2.4878 5.1161 3.59707 4.73854 4.91415 4.56146ZM18.9981 4.39024H11.002C11.0899 3.78075 11.3946 3.22336 11.8601 2.82021C12.3256 2.41705 12.9208 2.19514 13.5366 2.19512H16.4634C17.0792 2.19514 17.6744 2.41705 18.1399 2.82021C18.6054 3.22336 18.9101 3.78075 18.9981 4.39024ZM5.20683 27.6541C4.13268 27.5093 3.56488 27.2444 3.15951 26.8405C2.75415 26.4351 2.49073 25.8673 2.34585 24.7917C2.19805 23.6868 2.19512 22.222 2.19512 20.122V15.1902C7.5922 17.4556 10.7444 18.6937 14.0634 18.8488C14.6868 18.878 15.3132 18.878 15.9366 18.8488C19.2556 18.6937 22.4078 17.4556 27.8049 15.1902V20.122C27.8049 22.222 27.802 23.6868 27.6541 24.7932C27.5093 25.8673 27.2444 26.4351 26.8405 26.8405C26.4351 27.2459 25.8673 27.5093 24.7917 27.6541C23.6868 27.802 22.222 27.8049 20.122 27.8049H9.87805C7.77805 27.8049 6.31171 27.802 5.20683 27.6541ZM27.802 12.8093C21.7654 15.3483 18.862 16.5146 15.8341 16.6551C15.278 16.6815 14.722 16.6815 14.1659 16.6551C11.1366 16.5146 8.23463 15.3483 2.19805 12.8093C2.20537 11.4585 2.23463 10.4268 2.34585 9.59707C2.49073 8.52293 2.75561 7.95512 3.15951 7.54976C3.56488 7.14439 4.13268 6.88098 5.20829 6.7361C6.31171 6.58829 7.77805 6.58537 9.87805 6.58537H20.122C22.222 6.58537 23.6868 6.58829 24.7932 6.7361C25.8673 6.88098 26.4351 7.14585 26.8405 7.54976C27.2459 7.95512 27.5093 8.52293 27.6541 9.59854C27.7654 10.4268 27.7946 11.4571 27.802 12.8093Z" fill="white"/>
</svg>
