<svg width="35" height="35" viewBox="0 0 35 35" fill="none" xmlns="http://www.w3.org/2000/svg">
<path d="M17.5 0C12.8603 0.00528286 8.41221 1.85072 5.13147 5.13147C1.85072 8.41221 0.00528286 12.8603 0 17.5C0 22.1756 1.82136 26.5694 5.12724 29.8727C6.74791 31.5033 8.676 32.7961 10.7998 33.6762C12.9237 34.5563 15.201 35.0063 17.5 35C22.1397 34.9947 26.5878 33.1493 29.8685 29.8685C33.1493 26.5878 34.9947 22.1397 35 17.5C34.9947 12.8603 33.1493 8.41221 29.8685 5.13147C26.5878 1.85072 22.1397 0.00528286 17.5 0ZM17.5 2.49501C21.4782 2.49963 25.292 4.08199 28.105 6.89497C30.918 9.70795 32.5004 13.5218 32.505 17.5C32.5016 21.2728 31.07 24.9044 28.498 27.6647C26.8001 25.6547 24.5894 24.1424 22.1008 23.2884C22.9648 22.5878 23.6616 21.7033 24.1407 20.6994C24.6198 19.6955 24.869 18.5974 24.8703 17.485C24.8673 16.5014 24.6703 15.528 24.2906 14.6206C23.9108 13.7132 23.3558 12.8896 22.6572 12.1971C21.9587 11.5046 21.1303 10.9567 20.2197 10.5848C19.309 10.2129 18.3339 10.0244 17.3503 10.0299C16.3671 10.0329 15.3941 10.2297 14.487 10.6091C13.5799 10.9886 12.7566 11.5432 12.0641 12.2412C11.3717 12.9392 10.8237 13.767 10.4515 14.6771C10.0793 15.5871 9.89028 16.5617 9.89521 17.5449C9.89521 19.8628 10.983 21.9112 12.6497 23.2784C10.2117 24.1094 8.03719 25.5711 6.3473 27.515C3.86235 24.7719 2.48888 21.2012 2.49501 17.5C2.49963 13.5218 4.08199 9.70795 6.89497 6.89497C9.70795 4.08199 13.5218 2.49963 17.5 2.49501ZM17.4127 12.5249C20.1497 12.5249 22.3728 14.7505 22.3728 17.5449C22.3696 18.8302 21.8676 20.064 20.9726 20.9865C20.0776 21.909 18.8594 22.448 17.5748 22.49C17.5025 22.49 17.4326 22.475 17.3603 22.475C17.2979 22.475 17.238 22.4875 17.1756 22.49C15.885 22.4395 14.6646 21.8891 13.7725 20.955C12.8803 20.021 12.3864 18.7766 12.3952 17.485C12.3952 14.7505 14.6183 12.5249 17.4127 12.5249ZM17.1732 24.98C17.233 24.9825 17.2929 25 17.3528 25H17.4127C17.4676 25 17.5125 24.9825 17.5674 24.98C19.3079 25.0104 21.0214 25.4168 22.5902 26.1713C24.1591 26.9258 25.5463 28.0106 26.6567 29.3513C24.0416 31.3943 20.8185 32.5044 17.5 32.505C14.1063 32.5119 10.8121 31.3586 8.16367 29.2365C9.27696 27.9279 10.6563 26.8714 12.2098 26.1375C13.7632 25.4035 15.4553 25.009 17.1732 24.98Z" fill="white"/>
</svg>
