<svg width="35" height="26" viewBox="0 0 35 26" fill="none" xmlns="http://www.w3.org/2000/svg">
<path fill-rule="evenodd" clip-rule="evenodd" d="M35 3.5C35 2.57133 34.6313 1.68117 33.9745 1.0255C33.3188 0.368667 32.4287 0 31.5 0C25.487 0 9.513 0 3.5 0C2.57133 0 1.68117 0.368667 1.0255 1.0255C0.368667 1.68117 0 2.57133 0 3.5C0 7.97067 0 17.696 0 22.1667C0 23.0953 0.368667 23.9855 1.0255 24.6412C1.68117 25.298 2.57133 25.6667 3.5 25.6667C9.513 25.6667 25.487 25.6667 31.5 25.6667C32.4287 25.6667 33.3188 25.298 33.9745 24.6412C34.6313 23.9855 35 23.0953 35 22.1667V3.5ZM32.6667 3.5V22.1667C32.6667 22.4758 32.5442 22.7733 32.3248 22.9915C32.1067 23.2108 31.8092 23.3333 31.5 23.3333H3.5C3.19083 23.3333 2.89333 23.2108 2.67517 22.9915C2.45583 22.7733 2.33333 22.4758 2.33333 22.1667V3.5C2.33333 3.19083 2.45583 2.89333 2.67517 2.67517C2.89333 2.45583 3.19083 2.33333 3.5 2.33333H31.5C31.8092 2.33333 32.1067 2.45583 32.3248 2.67517C32.5442 2.89333 32.6667 3.19083 32.6667 3.5Z" fill="white"/>
<path fill-rule="evenodd" clip-rule="evenodd" d="M9.71713 8.48638L6.17513 12.0284C5.71897 12.4845 5.71897 13.223 6.17513 13.6792L9.66347 17.1675C10.1185 17.6225 10.8581 17.6225 11.3131 17.1675C11.7693 16.7125 11.7693 15.9729 11.3131 15.5179L8.64963 12.8544L11.368 10.136C11.823 9.68105 11.823 8.94138 11.368 8.48638C10.9118 8.03138 10.1733 8.03138 9.71713 8.48638ZM25.4088 17.1524L28.8691 13.692C29.3253 13.2359 29.3253 12.4974 28.8691 12.0424L25.3248 8.49688C24.8698 8.04188 24.1301 8.04188 23.6751 8.49688C23.2201 8.95305 23.2201 9.69155 23.6751 10.1465L26.3946 12.8672L23.7591 15.5015C23.3041 15.9577 23.3041 16.6962 23.7591 17.1524C24.2141 17.6074 24.9538 17.6074 25.4088 17.1524ZM17.9666 7.75488L14.8376 17.1407C14.6335 17.7509 14.9648 18.4124 15.575 18.6165C16.1863 18.8195 16.8478 18.4894 17.0508 17.878L20.1798 8.49221C20.384 7.88205 20.0526 7.22055 19.4425 7.01638C18.8311 6.81338 18.1696 7.14355 17.9666 7.75488Z" fill="white"/>
</svg>
