<svg width="20" height="20" viewBox="0 0 20 20" fill="none" xmlns="http://www.w3.org/2000/svg">
<path d="M17.0867 2.90383C15.2843 1.10978 12.7944 0 10.0439 0C4.54354 0 0.0837549 4.43844 0.0837549 9.91397C0.0837549 11.736 0.577574 13.4427 1.43857 14.91L1.41311 14.8633L0 20L5.27924 18.6214C6.65349 19.3811 8.29308 19.8279 10.0379 19.8279H10.0419C15.5422 19.8259 20 15.3868 20 9.91197C20 7.17554 18.8864 4.69855 17.086 2.9045L17.0867 2.90383ZM10.0419 18.1533H10.0385C8.48471 18.1533 7.03005 17.7264 5.78847 16.9841L5.82599 17.0048L5.5238 16.8267L2.39137 17.6451L3.22691 14.6045L3.02992 14.2931C2.23592 13.0512 1.76421 11.5379 1.76421 9.91463C1.76421 5.36481 5.4702 1.676 10.0412 1.676C14.6122 1.676 18.3182 5.36481 18.3182 9.91463C18.3182 14.4645 14.6136 18.1533 10.0419 18.1533ZM14.5821 11.9835C14.3335 11.8594 13.11 11.2612 12.8822 11.1778C12.6537 11.0951 12.4875 11.0544 12.3214 11.3025C12.1565 11.55 11.6795 12.1075 11.5341 12.2729C11.3893 12.439 11.2433 12.459 10.9947 12.3356C10.2241 12.0248 9.56213 11.6106 8.98657 11.1004L8.99327 11.1064C8.4579 10.6129 7.99893 10.048 7.6284 9.4251L7.60964 9.39042C7.46491 9.14299 7.59422 9.00894 7.71818 8.88555C7.83008 8.77484 7.96744 8.59611 8.09139 8.45205C8.18922 8.33267 8.27297 8.19595 8.33663 8.04922L8.34065 8.03788C8.36946 7.97986 8.38621 7.9125 8.38621 7.84047C8.38621 7.7531 8.36142 7.67174 8.31854 7.60238L8.31988 7.60438C8.25689 7.48033 7.75972 6.26117 7.55268 5.76497C7.35033 5.28211 7.14463 5.34814 6.99253 5.34014C6.8478 5.33347 6.68163 5.33213 6.51546 5.33213C6.2508 5.3388 6.01561 5.45752 5.85346 5.64092L5.85279 5.64226C5.31542 6.14979 4.98174 6.86541 4.98174 7.6584C4.98174 7.67574 4.98174 7.69374 4.98241 7.71108V7.70842C5.07019 8.68681 5.43871 9.56516 6.00556 10.2808L5.99752 10.2708C7.07226 11.8574 8.50481 13.1266 10.1859 13.9816L10.2489 14.0103C10.6161 14.1757 11.0865 14.3524 11.5676 14.5038L11.6674 14.5311C11.9636 14.6245 12.3046 14.6785 12.6584 14.6785C12.8614 14.6785 13.0611 14.6605 13.254 14.6265L13.2333 14.6292C13.9495 14.4805 14.5439 14.0503 14.9064 13.4627L14.9124 13.4514C15.0229 13.2073 15.0873 12.9225 15.0873 12.623C15.0873 12.4997 15.0766 12.379 15.0558 12.2616L15.0578 12.2742C14.9961 12.1709 14.83 12.1095 14.5807 11.9848L14.5821 11.9835Z" fill="#2A2A2A"/>
</svg>
