<svg width="40" height="41" viewBox="0 0 40 41" fill="none" xmlns="http://www.w3.org/2000/svg">
<path d="M3.33301 33.8333H6.66634M6.66634 33.8333H23.333M6.66634 33.8333V10.8337C6.66634 8.96682 6.66634 8.0327 7.02966 7.31967C7.34922 6.69245 7.85879 6.18288 8.48601 5.86332C9.19904 5.5 10.1332 5.5 12 5.5H18C19.8668 5.5 20.799 5.5 21.512 5.86332C22.1392 6.18288 22.6505 6.69245 22.97 7.31967C23.333 8.032 23.333 8.96498 23.333 10.8282V20.5M23.333 33.8333H33.333M23.333 33.8333V20.5M23.333 20.5C23.333 18.9468 23.333 18.1707 23.5867 17.5582C23.925 16.7414 24.5735 16.0921 25.3903 15.7537C26.0028 15.5 26.7795 15.5 28.3325 15.5C29.8857 15.5 30.6632 15.5 31.2757 15.7537C32.0925 16.0921 32.7408 16.7414 33.0792 17.5582C33.3328 18.1707 33.333 18.9468 33.333 20.5V33.8333M33.333 33.8333H36.6663M11.6663 17.1667H18.333M11.6663 12.1667H18.333" stroke="#2563EB" stroke-width="2" stroke-linecap="round" stroke-linejoin="round"/>
</svg>
