<svg width="80" height="80" viewBox="0 0 80 80" fill="none" xmlns="http://www.w3.org/2000/svg">
<path d="M6.66699 66.6667H13.3337M13.3337 66.6667H46.667M13.3337 66.6667V20.6673C13.3337 16.9336 13.3337 15.0654 14.0603 13.6393C14.6994 12.3849 15.7186 11.3658 16.973 10.7266C18.3991 10 20.2673 10 24.001 10H36.001C39.7347 10 41.599 10 43.025 10.7266C44.2793 11.3658 45.302 12.3849 45.941 13.6393C46.667 15.064 46.667 16.93 46.667 20.6564V40M46.667 66.6667H66.667M46.667 66.6667V40M46.667 40C46.667 36.8937 46.667 35.3413 47.1743 34.1163C47.851 32.4827 49.148 31.1841 50.7817 30.5075C52.0067 30 53.56 30 56.666 30C59.7723 30 61.3273 30 62.5523 30.5075C64.186 31.1841 65.4827 32.4827 66.1593 34.1163C66.6667 35.3413 66.667 36.8937 66.667 40V66.6667M66.667 66.6667H73.3337M23.3337 33.3333H36.667M23.3337 23.3333H36.667" stroke="url(#paint0_linear_926_1114)" stroke-width="5" stroke-linecap="round" stroke-linejoin="round"/>
<defs>
<linearGradient id="paint0_linear_926_1114" x1="40.0003" y1="10" x2="40.0003" y2="66.6667" gradientUnits="userSpaceOnUse">
<stop stop-color="#5940BF"/>
<stop offset="1" stop-color="#BF4040"/>
</linearGradient>
</defs>
</svg>
