<svg width="40" height="41" viewBox="0 0 40 41" fill="none" xmlns="http://www.w3.org/2000/svg">
<path d="M19.9997 3.83325C10.7949 3.83325 3.33301 11.2952 3.33301 20.4999C3.33301 29.7046 10.7949 37.1666 19.9997 37.1666C29.2043 37.1666 36.6663 29.7046 36.6663 20.4999C36.6663 11.2952 29.2043 3.83325 19.9997 3.83325Z" stroke="#2563EB" stroke-width="2" stroke-linecap="round" stroke-linejoin="round"/>
<path d="M13.333 35.7799V23.8334L19.9997 12.1667L26.6663 23.8334V35.7799" stroke="#2563EB" stroke-width="2" stroke-linecap="round" stroke-linejoin="round"/>
<path d="M13.333 23.8333C13.333 23.8333 15.2109 25.4999 16.6663 25.4999C18.1217 25.4999 19.9997 23.8333 19.9997 23.8333C19.9997 23.8333 21.8777 25.4999 23.333 25.4999C24.7883 25.4999 26.6663 23.8333 26.6663 23.8333" stroke="#2563EB" stroke-width="2" stroke-linecap="round" stroke-linejoin="round"/>
</svg>
