<svg width="80" height="80" viewBox="0 0 80 80" fill="none" xmlns="http://www.w3.org/2000/svg">
<path d="M40.0003 6.6665C21.5908 6.6665 6.66699 21.5903 6.66699 39.9998C6.66699 58.4092 21.5908 73.3332 40.0003 73.3332C58.4097 73.3332 73.3337 58.4092 73.3337 39.9998C73.3337 21.5903 58.4097 6.6665 40.0003 6.6665Z" stroke="url(#paint0_linear_926_1113)" stroke-width="3.75" stroke-linecap="round" stroke-linejoin="round"/>
<path d="M26.667 70.5598V46.6668L40.0003 23.3335L53.3337 46.6668V70.5598" stroke="url(#paint1_linear_926_1113)" stroke-width="3.75" stroke-linecap="round" stroke-linejoin="round"/>
<path d="M26.667 46.6665C26.667 46.6665 30.4229 49.9998 33.3337 49.9998C36.2443 49.9998 40.0003 46.6665 40.0003 46.6665C40.0003 46.6665 43.7563 49.9998 46.667 49.9998C49.5777 49.9998 53.3337 46.6665 53.3337 46.6665" stroke="url(#paint2_linear_926_1113)" stroke-width="3.75" stroke-linecap="round" stroke-linejoin="round"/>
<defs>
<linearGradient id="paint0_linear_926_1113" x1="40.0003" y1="6.6665" x2="40.0003" y2="73.3332" gradientUnits="userSpaceOnUse">
<stop stop-color="#5940BF"/>
<stop offset="1" stop-color="#BF4040"/>
</linearGradient>
<linearGradient id="paint1_linear_926_1113" x1="40.0003" y1="23.3335" x2="40.0003" y2="70.5598" gradientUnits="userSpaceOnUse">
<stop stop-color="#5940BF"/>
<stop offset="1" stop-color="#BF4040"/>
</linearGradient>
<linearGradient id="paint2_linear_926_1113" x1="40.0003" y1="46.6665" x2="40.0003" y2="49.9998" gradientUnits="userSpaceOnUse">
<stop stop-color="#5940BF"/>
<stop offset="1" stop-color="#BF4040"/>
</linearGradient>
</defs>
</svg>
