<svg width="80" height="80" viewBox="0 0 80 80" fill="none" xmlns="http://www.w3.org/2000/svg">
<path d="M63.333 55.8335H16.6663C15.1219 55.8248 13.6433 55.2075 12.5512 54.1152C11.4591 53.0232 10.8418 51.5445 10.833 50.0002V16.6668C10.8418 15.1224 11.4591 13.6438 12.5512 12.5517C13.6433 11.4596 15.1219 10.8423 16.6663 10.8335H63.333C64.8773 10.8423 66.356 11.4596 67.448 12.5517C68.5403 13.6438 69.1577 15.1224 69.1663 16.6668V50.0002C69.1577 51.5445 68.5403 53.0232 67.448 54.1152C66.356 55.2075 64.8773 55.8248 63.333 55.8335ZM16.6663 15.8335C16.4453 15.8335 16.2334 15.9213 16.0771 16.0776C15.9208 16.2339 15.833 16.4458 15.833 16.6668V50.0002C15.833 50.2212 15.9208 50.4332 16.0771 50.5895C16.2334 50.7458 16.4453 50.8335 16.6663 50.8335H63.333C63.554 50.8335 63.766 50.7458 63.9223 50.5895C64.0787 50.4332 64.1663 50.2212 64.1663 50.0002V16.6668C64.1663 16.4458 64.0787 16.2339 63.9223 16.0776C63.766 15.9213 63.554 15.8335 63.333 15.8335H16.6663Z" fill="url(#paint0_linear_926_1110)"/>
<path d="M50 69.1668H40C39.3397 69.1582 38.7087 68.8922 38.2417 68.4252C37.7747 67.9582 37.5087 67.3272 37.5 66.6668V53.3335C37.5 52.6705 37.7633 52.0345 38.2323 51.5658C38.701 51.0968 39.337 50.8335 40 50.8335C40.663 50.8335 41.299 51.0968 41.7677 51.5658C42.2367 52.0345 42.5 52.6705 42.5 53.3335V64.1668H50C50.663 64.1668 51.299 64.4302 51.7677 64.8992C52.2367 65.3678 52.5 66.0038 52.5 66.6668C52.5 67.3298 52.2367 67.9658 51.7677 68.4345C51.299 68.9035 50.663 69.1668 50 69.1668Z" fill="url(#paint1_linear_926_1110)"/>
<path d="M40 69.1665H30C29.337 69.1665 28.7011 68.9032 28.2322 68.4342C27.7634 67.9655 27.5 67.3295 27.5 66.6665C27.5 66.0035 27.7634 65.3675 28.2322 64.8988C28.7011 64.4298 29.337 64.1665 30 64.1665H40C40.663 64.1665 41.299 64.4298 41.7677 64.8988C42.2367 65.3675 42.5 66.0035 42.5 66.6665C42.5 67.3295 42.2367 67.9655 41.7677 68.4342C41.299 68.9032 40.663 69.1665 40 69.1665Z" fill="url(#paint2_linear_926_1110)"/>
<defs>
<linearGradient id="paint0_linear_926_1110" x1="39.9997" y1="10.8335" x2="39.9997" y2="55.8335" gradientUnits="userSpaceOnUse">
<stop stop-color="#5940BF"/>
<stop offset="1" stop-color="#BF4040"/>
</linearGradient>
<linearGradient id="paint1_linear_926_1110" x1="45" y1="50.8335" x2="45" y2="69.1668" gradientUnits="userSpaceOnUse">
<stop stop-color="#5940BF"/>
<stop offset="1" stop-color="#BF4040"/>
</linearGradient>
<linearGradient id="paint2_linear_926_1110" x1="35" y1="64.1665" x2="35" y2="69.1665" gradientUnits="userSpaceOnUse">
<stop stop-color="#5940BF"/>
<stop offset="1" stop-color="#BF4040"/>
</linearGradient>
</defs>
</svg>
