<svg width="40" height="41" viewBox="0 0 40 41" fill="none" xmlns="http://www.w3.org/2000/svg">
<path d="M31.667 28.4167H8.33366C7.56146 28.4124 6.82214 28.1037 6.27609 27.5576C5.73006 27.0116 5.42138 26.2722 5.41699 25.5001V8.83341C5.42138 8.06121 5.73006 7.3219 6.27609 6.77585C6.82214 6.22981 7.56146 5.92113 8.33366 5.91675H31.667C32.4392 5.92113 33.1785 6.22981 33.7245 6.77585C34.2707 7.3219 34.5793 8.06121 34.5837 8.83341V25.5001C34.5793 26.2722 34.2707 27.0116 33.7245 27.5576C33.1785 28.1037 32.4392 28.4124 31.667 28.4167ZM8.33366 8.41675C8.22316 8.41675 8.11718 8.46065 8.03903 8.53878C7.96089 8.61693 7.91699 8.72291 7.91699 8.83341V25.5001C7.91699 25.6106 7.96089 25.7166 8.03903 25.7947C8.11718 25.8729 8.22316 25.9167 8.33366 25.9167H31.667C31.7775 25.9167 31.8835 25.8729 31.9617 25.7947C32.0398 25.7166 32.0837 25.6106 32.0837 25.5001V8.83341C32.0837 8.72291 32.0398 8.61693 31.9617 8.53878C31.8835 8.46065 31.7775 8.41675 31.667 8.41675H8.33366Z" fill="#2563EB"/>
<path d="M25 35.0834H20C19.6698 35.0791 19.3543 34.9461 19.1208 34.7126C18.8873 34.4791 18.7543 34.1636 18.75 33.8334V27.1667C18.75 26.8352 18.8817 26.5172 19.1162 26.2829C19.3505 26.0484 19.6685 25.9167 20 25.9167C20.3315 25.9167 20.6495 26.0484 20.8838 26.2829C21.1183 26.5172 21.25 26.8352 21.25 27.1667V32.5834H25C25.3315 32.5834 25.6495 32.7151 25.8838 32.9496C26.1183 33.1839 26.25 33.5019 26.25 33.8334C26.25 34.1649 26.1183 34.4829 25.8838 34.7172C25.6495 34.9517 25.3315 35.0834 25 35.0834Z" fill="#2563EB"/>
<path d="M20 35.0833H15C14.6685 35.0833 14.3505 34.9516 14.1161 34.7171C13.8817 34.4828 13.75 34.1648 13.75 33.8333C13.75 33.5018 13.8817 33.1838 14.1161 32.9494C14.3505 32.7149 14.6685 32.5833 15 32.5833H20C20.3315 32.5833 20.6495 32.7149 20.8838 32.9494C21.1183 33.1838 21.25 33.5018 21.25 33.8333C21.25 34.1648 21.1183 34.4828 20.8838 34.7171C20.6495 34.9516 20.3315 35.0833 20 35.0833Z" fill="#2563EB"/>
</svg>
