<svg width="40" height="41" viewBox="0 0 40 41" fill="none" xmlns="http://www.w3.org/2000/svg">
<path d="M18.3333 30.5H21.6667M15.3333 35.5H24.6667C26.5335 35.5 27.467 35.5 28.18 35.1367C28.8072 34.8172 29.3172 34.3072 29.6367 33.68C30 32.967 30 32.0335 30 30.1667V10.8333C30 8.9665 30 8.03307 29.6367 7.32003C29.3172 6.69282 28.8072 6.18288 28.18 5.86332C27.467 5.5 26.5335 5.5 24.6667 5.5H15.3333C13.4665 5.5 12.5331 5.5 11.82 5.86332C11.1928 6.18288 10.6829 6.69282 10.3633 7.32003C10 8.03307 10 8.96648 10 10.8333V30.1667C10 32.0335 10 32.967 10.3633 33.68C10.6829 34.3072 11.1928 34.8172 11.82 35.1367C12.5331 35.5 13.4665 35.5 15.3333 35.5Z" stroke="#2563EB" stroke-width="2" stroke-linecap="round" stroke-linejoin="round"/>
</svg>
