<svg width="80" height="80" viewBox="0 0 80 80" fill="none" xmlns="http://www.w3.org/2000/svg">
<path d="M36.6667 60H43.3333M30.6667 70H49.3333C53.067 70 54.934 70 56.36 69.2733C57.6143 68.6343 58.6343 67.6143 59.2733 66.36C60 64.934 60 63.067 60 59.3333V20.6667C60 16.933 60 15.0661 59.2733 13.6401C58.6343 12.3856 57.6143 11.3658 56.36 10.7266C54.934 10 53.067 10 49.3333 10H30.6667C26.933 10 25.0661 10 23.6401 10.7266C22.3856 11.3658 21.3658 12.3856 20.7266 13.6401C20 15.0661 20 16.933 20 20.6667V59.3333C20 63.067 20 64.934 20.7266 66.36C21.3658 67.6143 22.3856 68.6343 23.6401 69.2733C25.0661 70 26.933 70 30.6667 70Z" stroke="url(#paint0_linear_926_1111)" stroke-width="5" stroke-linecap="round" stroke-linejoin="round"/>
<defs>
<linearGradient id="paint0_linear_926_1111" x1="40" y1="10" x2="40" y2="70" gradientUnits="userSpaceOnUse">
<stop stop-color="#5940BF"/>
<stop offset="1" stop-color="#BF4040"/>
</linearGradient>
</defs>
</svg>
