<svg width="80" height="80" viewBox="0 0 80 80" fill="none" xmlns="http://www.w3.org/2000/svg">
<path d="M34.5519 37.304L46.7759 50.4C47.1213 50.7689 47.5435 51.0574 48.0127 51.2451C48.4819 51.4328 48.9866 51.515 49.4911 51.486C49.9956 51.457 50.4876 51.3175 50.9322 51.0773C51.3768 50.8371 51.7632 50.5021 52.0639 50.096L69.0879 26.992L70.1519 41.712L73.0959 41.496L71.6399 21.376L49.6959 26.568L50.3999 29.44L66.3999 25.64L49.6879 48.376C49.6449 48.436 49.5885 48.4853 49.5233 48.52C49.4581 48.5546 49.3858 48.5738 49.3119 48.576C49.2421 48.5786 49.1725 48.5664 49.1077 48.5402C49.0429 48.514 48.9844 48.4744 48.9359 48.424L34.2879 32.696L13.3359 61.152L15.7359 62.896L34.5519 37.304Z" fill="url(#paint0_linear_926_1112)"/>
<path d="M5.34439 68.1761V8.87207H2.40039V69.6721C2.40038 70.0632 2.55521 70.4384 2.83104 70.7158C3.10687 70.9931 3.48126 71.15 3.87239 71.1521H77.6004V68.1761H5.34439Z" fill="url(#paint1_linear_926_1112)"/>
<defs>
<linearGradient id="paint0_linear_926_1112" x1="43.2159" y1="21.376" x2="43.2159" y2="62.896" gradientUnits="userSpaceOnUse">
<stop stop-color="#5940BF"/>
<stop offset="1" stop-color="#BF4040"/>
</linearGradient>
<linearGradient id="paint1_linear_926_1112" x1="40.0004" y1="8.87207" x2="40.0004" y2="71.1521" gradientUnits="userSpaceOnUse">
<stop stop-color="#5940BF"/>
<stop offset="1" stop-color="#BF4040"/>
</linearGradient>
</defs>
</svg>
