<svg width="40" height="41" viewBox="0 0 40 41" fill="none" xmlns="http://www.w3.org/2000/svg">
<path d="M17.276 19.152L23.388 25.7C23.5606 25.8845 23.7717 26.0287 24.0063 26.1226C24.2409 26.2164 24.4933 26.2575 24.7456 26.243C24.9978 26.2285 25.2438 26.1587 25.4661 26.0386C25.6884 25.9185 25.8816 25.751 26.032 25.548L34.544 13.996L35.076 21.356L36.548 21.248L35.82 11.188L24.848 13.784L25.2 15.22L33.2 13.32L24.844 24.688C24.8224 24.718 24.7943 24.7426 24.7617 24.76C24.7291 24.7773 24.6929 24.7869 24.656 24.788C24.621 24.7893 24.5862 24.7832 24.5538 24.7701C24.5214 24.757 24.4922 24.7372 24.468 24.712L17.144 16.848L6.66797 31.076L7.86797 31.948L17.276 19.152Z" fill="#2563EB"/>
<path d="M2.6722 34.588V4.93604H1.2002V35.336C1.20019 35.5316 1.27761 35.7192 1.41552 35.8579C1.55343 35.9966 1.74063 36.075 1.9362 36.076H38.8002V34.588H2.6722Z" fill="#2563EB"/>
</svg>
